<svg width="459" height="440" viewBox="0 0 459 440" fill="none" xmlns="http://www.w3.org/2000/svg">
<path d="M161.531 5.83936C161.531 5.38378 161.531 5.08006 161.381 4.62448C160.636 2.19472 158.251 0.827974 155.865 1.58727C154.673 1.89099 153.778 2.80216 153.182 3.86518C150.498 1.28355 146.771 0.372396 143.044 1.43542C140.957 2.04286 139.168 3.4096 137.826 5.08006C134.099 2.49844 129.477 1.43542 124.856 2.95402C116.954 5.38378 112.482 13.8879 114.867 22.0884C114.867 22.0884 114.867 22.2403 114.867 22.3921C114.271 22.3921 113.525 22.3921 112.929 22.6958C109.202 23.7589 107.264 27.7072 108.307 31.5037C108.605 32.4149 109.053 33.326 109.649 34.0854C125.601 22.9996 142.895 13.5842 161.531 5.99122V5.83936Z" fill="white" stroke="#07132B" stroke-linecap="round" stroke-linejoin="round"/>
<path d="M64.9236 75.0876C64.9236 74.7839 64.6255 74.632 64.4764 74.4802C63.2837 73.2653 61.1965 73.4171 60.1529 74.4802C59.5566 75.0876 59.2584 75.9988 59.2584 76.7581C56.8731 76.1506 54.0405 76.7581 52.2514 78.8841C51.2079 80.099 50.6115 81.4657 50.3133 82.9843C47.1826 82.6806 44.0518 83.7436 41.6664 86.3253C37.6411 90.5773 37.9393 97.4111 42.1137 101.511C42.1137 101.511 42.1137 101.511 42.2628 101.511C41.8155 101.815 41.5173 101.967 41.2192 102.422C39.4302 104.397 39.4302 107.586 41.5173 109.408C41.9646 109.864 42.5609 110.167 43.3064 110.471C49.1207 98.0185 56.4258 86.1734 65.0727 74.9357L64.9236 75.0876Z" fill="white" stroke="#07132B" stroke-linecap="round" stroke-linejoin="round"/>
<path d="M22.2853 167.722C21.9871 167.57 21.5398 167.419 21.2417 167.267C18.8563 166.659 16.4709 168.178 15.8746 170.608C15.5764 171.823 15.8746 173.037 16.4709 174.1C13.042 175.163 10.2094 178.049 9.31487 181.845C8.86762 184.123 9.01671 186.249 9.76213 188.223C5.73685 190.198 2.45698 193.842 1.41339 198.702C-0.524711 206.902 4.54417 215.103 12.5947 217.077C12.5947 217.077 12.7438 217.077 12.8929 217.077C12.5947 217.684 12.2966 218.292 12.1475 218.899C11.253 222.696 13.6383 226.492 17.3655 227.403C18.409 227.707 19.3036 227.707 20.1981 227.403C18.8563 207.813 19.4526 187.768 22.1362 167.57L22.2853 167.722Z" fill="white" stroke="#07132B" stroke-linecap="round" stroke-linejoin="round"/>
<path d="M32.8703 287.084C32.5721 287.084 32.2739 287.084 32.1248 287.084C30.4849 287.54 29.5904 289.362 30.0377 291.033C30.3358 291.944 30.9322 292.551 31.5285 292.855C29.7395 294.677 29.1431 297.411 29.8886 300.144C30.3358 301.663 31.2303 302.878 32.423 303.789C30.634 306.371 29.8886 309.863 30.9322 313.052C32.5721 318.671 38.5355 321.86 44.0516 320.19C44.0516 320.19 44.0516 320.19 44.2007 320.19C44.2007 320.645 44.2007 321.101 44.3498 321.557C45.0952 324.138 47.7787 325.657 50.4623 324.898C51.0586 324.746 51.6549 324.29 52.2513 323.986C44.648 312.597 38.0882 300.296 32.8703 287.084Z" fill="white" stroke="#07132B" stroke-linecap="round" stroke-linejoin="round"/>
<path d="M90.2678 371.519C89.9696 371.671 89.6715 371.974 89.3733 372.278C87.7334 374.1 87.7334 376.986 89.5224 378.656C90.4169 379.567 91.6096 379.871 92.8023 379.871C92.0568 383.516 92.9513 387.312 95.784 390.046C97.4239 391.564 99.362 392.475 101.449 392.779C101.002 397.335 102.642 402.043 106.071 405.383C112.183 411.154 121.576 410.85 127.39 404.624C127.39 404.624 127.39 404.624 127.539 404.472C127.837 405.08 128.284 405.535 128.732 405.991C131.564 408.724 135.888 408.573 138.571 405.687C139.317 404.928 139.764 404.169 140.062 403.257C122.619 394.753 105.922 384.123 90.2678 371.67V371.519Z" fill="white" stroke="#07132B" stroke-linecap="round" stroke-linejoin="round"/>
<path d="M197.161 423.91C197.161 424.214 197.012 424.366 196.863 424.67C196.416 426.34 197.46 428.011 199.249 428.466C200.143 428.618 200.889 428.466 201.634 428.011C202.379 430.44 204.318 432.415 207.001 433.174C208.492 433.478 209.983 433.326 211.325 432.87C212.666 435.755 215.201 438.033 218.481 438.793C224.146 440.159 229.811 436.515 231.153 430.744C231.153 430.744 231.153 430.744 231.153 430.592C231.6 430.744 232.047 431.048 232.495 431.048C235.029 431.655 237.713 429.985 238.309 427.403C238.458 426.644 238.458 426.036 238.309 425.429C224.891 426.492 211.026 426.036 197.161 424.062V423.91Z" fill="white" stroke="#07132B" stroke-linecap="round" stroke-linejoin="round"/>
<path d="M297.496 413.432C297.496 413.888 297.496 414.191 297.645 414.647C298.39 417.077 300.775 418.443 303.161 417.684C304.354 417.38 305.248 416.469 305.844 415.406C308.528 417.988 312.255 418.899 315.982 417.836C318.069 417.229 319.858 415.862 321.2 414.191C324.927 416.773 329.549 417.836 334.17 416.317C342.072 413.888 346.545 405.383 344.159 397.183C344.159 397.183 344.159 397.031 344.159 396.879C344.755 396.879 345.501 396.879 346.097 396.576C349.824 395.513 351.762 391.564 350.719 387.768C350.421 386.856 349.973 385.945 349.377 385.186C333.425 396.272 316.131 405.687 297.496 413.28V413.432Z" fill="white" stroke="#07132B" stroke-linecap="round" stroke-linejoin="round"/>
<path d="M393.954 344.184C393.954 344.488 394.252 344.639 394.401 344.791C395.593 346.006 397.681 345.854 398.724 344.791C399.321 344.184 399.619 343.273 399.619 342.513C402.004 343.121 404.837 342.513 406.626 340.387C407.669 339.172 408.266 337.806 408.564 336.287C411.695 336.591 414.825 335.528 417.211 332.946C421.236 328.694 420.938 321.86 416.763 317.76C416.763 317.76 416.763 317.76 416.614 317.76C417.062 317.456 417.36 317.305 417.658 316.849C419.447 314.875 419.447 311.686 417.36 309.863C416.913 309.408 416.316 309.104 415.571 308.8C409.757 321.253 402.451 333.098 393.804 344.336L393.954 344.184Z" fill="white" stroke="#07132B" stroke-linecap="round" stroke-linejoin="round"/>
<path d="M436.741 251.549C437.039 251.701 437.486 251.853 437.785 252.005C440.17 252.612 442.555 251.094 443.152 248.664C443.45 247.449 443.152 246.234 442.555 245.171C445.984 244.108 448.817 241.223 449.711 237.426C450.159 235.148 450.01 233.022 449.264 231.048C453.289 229.074 456.569 225.429 457.613 220.57C459.551 212.369 454.482 204.169 446.431 202.195C446.431 202.195 446.282 202.195 446.133 202.195C446.432 201.587 446.73 200.98 446.879 200.372C447.773 196.576 445.388 192.779 441.661 191.868C440.617 191.564 439.723 191.564 438.828 191.868C440.17 211.458 439.574 231.504 436.89 251.701L436.741 251.549Z" fill="white" stroke="#07132B" stroke-linecap="round" stroke-linejoin="round"/>
<path d="M368.758 47.7528C369.056 47.6009 369.355 47.2972 369.653 46.9935C371.293 45.1712 371.293 42.2858 369.504 40.6154C368.609 39.7042 367.416 39.4005 366.224 39.4005C366.969 35.7558 366.075 31.9593 363.242 29.2259C361.602 27.7073 359.664 26.7961 357.577 26.4924C358.024 21.9366 356.384 17.2289 352.955 13.888C346.843 8.1173 337.45 8.42102 331.636 14.6473C331.636 14.6473 331.636 14.6473 331.487 14.7991C331.189 14.1917 330.742 13.7361 330.294 13.2805C327.462 10.5471 323.138 10.6989 320.455 13.5843C319.709 14.3436 319.262 15.1029 318.964 16.014C336.407 24.5182 353.104 35.1484 368.758 47.6009V47.7528Z" fill="white" stroke="#07132B" stroke-linecap="round" stroke-linejoin="round"/>
</svg>
