<svg width="23" height="18" viewBox="0 0 23 18" fill="none" xmlns="http://www.w3.org/2000/svg">
<g clip-path="url(#clip0_1494_157)">
<path d="M17.5375 6.75H12.075V8.71875C12.075 10.1145 10.9142 11.25 9.48746 11.25C8.06075 11.25 6.89997 10.1145 6.89997 8.71875V4.44375L4.56762 5.81485C3.87403 6.21914 3.44997 6.95391 3.44997 7.74141V9.4043L0.574965 11.0285C0.0251214 11.3379 -0.165347 12.027 0.154496 12.5648L3.0295 17.4375C3.34575 17.9754 4.05012 18.1582 4.59997 17.8488L8.3159 15.75H13.225C14.4936 15.75 15.525 14.741 15.525 13.5H16.1C16.7361 13.5 17.25 12.9973 17.25 12.375V10.125H17.5375C18.0154 10.125 18.4 9.74883 18.4 9.28125V7.59375C18.4 7.12617 18.0154 6.75 17.5375 6.75ZM22.8454 5.43516L19.9704 0.562502C19.6542 0.0246118 18.9498 -0.158201 18.4 0.151174L14.684 2.25H11.0112C10.58 2.25 10.1595 2.36953 9.79293 2.59102L8.58903 3.32578C8.25121 3.52969 8.04996 3.8918 8.04996 4.27852V8.71875C8.04996 9.49571 8.69325 10.125 9.48746 10.125C10.2817 10.125 10.925 9.49571 10.925 8.71875V5.625H17.5375C18.6479 5.625 19.55 6.50742 19.55 7.59375V8.59571L22.425 6.97149C22.9748 6.6586 23.1617 5.97305 22.8454 5.43516Z" fill="#07132B"/>
</g>
<defs>
<clipPath id="clip0_1494_157">
<rect width="23" height="18" fill="white"/>
</clipPath>
</defs>
</svg>
