<svg width="234" height="190" viewBox="0 0 234 190" fill="none" xmlns="http://www.w3.org/2000/svg">
<path d="M143.043 174.013C142.149 167.939 145.876 154.575 145.876 154.575C145.876 154.575 153.777 159.738 154.225 160.194C159.442 164.75 167.046 176.747 164.064 184.036C161.977 189.351 155.715 190.87 151.094 188.288C146.323 185.707 143.789 179.177 143.043 174.013Z" fill="#3AF2AE"/>
<path d="M106.219 159.131C106.815 153.208 113.375 142.275 113.972 141.363C107.859 137.719 101.896 133.467 96.2305 128.759C92.9506 126.177 89.6707 123.292 86.3909 120.558C87.7326 122.077 88.7762 123.444 88.9253 123.596C92.8015 129.366 96.9759 143.034 92.2052 149.26C88.7762 153.816 82.5146 153.664 78.6384 149.868C74.6131 146.071 74.0168 139.237 74.6132 133.922C75.2095 128.607 80.5766 119.04 82.0674 116.61C80.8747 115.547 79.533 114.484 78.3403 113.269C72.526 107.954 66.7117 102.639 60.7483 97.6276C58.6611 95.8053 56.5739 94.1348 54.4867 92.4644C55.6794 93.8311 56.5739 94.8941 56.723 95.1979C60.5992 100.969 64.7736 114.636 60.0028 120.862C56.5739 125.418 50.3124 125.266 46.4362 121.47C42.4109 117.673 41.8145 110.839 42.4109 105.524C43.0072 100.513 47.927 91.7051 49.5669 88.6679C47.3306 86.9974 45.2435 85.327 43.0072 83.8083C41.5163 82.7453 40.0255 81.8342 38.5346 80.923C37.0438 80.0118 35.4039 79.1007 33.913 78.1895C30.9313 76.519 27.8006 74.8486 24.8189 73.33C22.7317 72.267 20.7936 71.2039 18.8555 70.2928C20.9427 71.9632 24.9679 75.456 25.2661 75.9116C30.0368 81.0749 36.1493 93.8311 32.4222 100.817C29.7386 105.828 23.4771 106.587 19.0045 103.55C14.532 100.361 12.8921 93.6792 12.5939 88.516C12.4448 82.7453 16.9174 71.2039 17.5137 69.8372C14.2338 68.1667 10.954 66.6481 7.97227 65.1295C5.28875 63.7628 2.60524 62.6998 0.0708008 61.4849L1.26346 56.7772C3.94699 57.9921 6.77962 59.5107 9.9104 60.8775C13.1903 62.5479 16.7683 64.3703 20.4954 66.3444C21.0917 65.5851 24.3716 61.0293 28.0987 57.2328C24.9679 52.2214 22.7317 40.8319 22.4335 39.4652C18.8555 39.9207 15.2774 40.3763 11.9976 40.9838C9.76131 41.2875 7.52505 41.7431 5.43786 42.0468L6.77961 37.0354C8.27046 36.8836 9.76132 36.5798 11.4013 36.428C15.1284 35.9724 19.0046 35.5168 23.1789 35.0612C23.1789 33.5426 23.9243 21.242 26.6079 16.0787C28.9932 11.371 33.3167 6.20779 38.6837 5.29663C43.9017 4.38547 49.2687 7.87825 49.5669 13.6489C50.0142 21.5457 39.131 30.3536 32.7204 32.9352C32.2731 33.0871 28.0987 34.3019 25.2661 34.9094C26.906 34.7575 28.546 34.6057 30.1859 34.4538C33.6148 34.1501 36.8947 33.8464 40.6218 33.6945C42.4108 33.6945 44.1999 33.6945 45.9889 33.5426C47.7779 33.5426 49.716 33.5426 51.505 33.5426C55.8285 33.5426 60.1519 33.9982 64.6245 34.4538C64.3263 31.4166 63.5809 20.6345 65.2208 15.6231C66.8607 10.6117 70.4388 4.84105 75.5077 3.01873C80.5766 1.34827 86.3908 3.92989 87.5835 9.54872C89.2234 17.2936 79.8311 27.7719 73.7187 31.2647C73.4205 31.4166 68.7989 33.5426 66.2644 34.6056C68.9479 34.9094 71.4824 35.2131 74.1659 35.5168C81.7692 36.5798 89.5216 37.9466 97.274 39.1614C99.6594 39.617 102.045 39.9207 104.43 40.2245C104.43 39.1614 103.088 26.4052 105.026 20.7864C106.666 15.775 110.244 10.0043 115.313 8.18199C120.382 6.51153 126.196 9.09315 127.389 14.712C129.029 22.4568 119.637 32.9352 113.524 36.428C113.077 36.7317 106.517 39.617 104.728 40.3763C109.946 41.1356 115.164 41.8949 120.233 42.5024C127.389 43.2617 134.396 43.5654 141.105 43.4135C141.105 42.958 139.763 29.5943 141.701 23.8236C143.341 18.8122 146.919 13.0415 151.988 11.2192C157.057 9.54873 162.871 12.1304 164.064 17.7492C165.704 25.494 156.312 35.9724 150.199 39.4652C149.752 39.7689 142.596 42.958 141.254 43.4135C141.701 43.4135 142.149 43.4135 142.447 43.4135C149.752 43.1098 156.759 41.8949 163.17 40.5282C166.897 39.7689 170.475 38.7059 173.904 37.6428C173.456 35.2131 171.22 23.9754 172.413 18.6603C173.605 13.4971 176.438 7.27082 181.358 4.99292C186.278 2.71501 192.241 4.68921 194.03 10.1562C196.564 17.5973 188.216 29.1387 182.7 33.2389C182.401 33.3908 179.122 35.5168 176.587 36.8835C178.078 36.428 179.718 35.8205 181.209 35.3649C186.725 33.3908 191.794 31.4166 196.117 29.4424C198.652 28.3794 200.888 27.3164 202.826 26.2533C203.571 23.5199 206.702 12.8896 210.131 8.78942C213.411 4.68919 218.778 0.588975 224.294 0.892696C229.661 1.19642 234.134 5.75221 233.239 11.371C232.047 19.1159 219.524 25.494 212.666 26.5571C212.069 26.5571 202.677 27.0126 202.677 27.0126C202.677 27.0126 202.677 27.0127 202.677 26.8608C200.739 27.9238 198.503 28.9868 196.266 30.0498C191.943 32.024 187.023 34.3019 181.507 36.2761C175.991 38.4022 169.878 40.3763 163.319 42.0468C156.759 43.7173 149.752 45.084 142.298 45.5396C142.298 45.5396 142.149 45.5396 141.999 45.5396C144.236 46.147 150.348 47.8175 150.795 47.9693C157.206 50.7028 168.089 59.6626 167.493 67.5593C167.046 73.1781 161.679 76.6709 156.461 75.7598C151.094 74.8486 146.77 69.5335 144.534 64.8258C141.85 59.5107 141.403 46.6026 141.254 45.6914C134.247 45.9952 126.942 45.6914 119.637 45.2359C115.462 44.9321 111.288 44.3247 106.965 43.8691C108.903 44.4766 110.543 44.9321 110.841 44.9321C117.251 47.6656 128.135 56.6254 127.538 64.5221C127.091 70.1409 121.724 73.6337 116.506 72.7226C111.139 71.8114 106.815 66.4963 104.579 61.7886C102.194 57.081 101.598 46.147 101.448 43.1098C99.8085 42.958 98.1685 42.6542 96.5286 42.5024C88.7762 41.4394 81.0238 40.2245 73.4205 39.3133C70.7369 39.0096 68.0534 38.8577 65.3699 38.554C67.0098 39.0096 68.5007 39.4652 68.6498 39.617C75.0604 42.3505 85.9436 51.3103 85.3473 59.207C84.9 64.8258 79.533 68.3186 74.315 67.4074C68.9479 66.4963 64.6245 61.1812 62.3882 56.4735C60.1519 51.9177 59.4065 41.8949 59.2574 38.4021C56.5739 38.4021 53.7413 38.0984 51.2069 38.0984C49.4178 38.0984 47.6288 38.0984 45.8398 38.0984C44.0508 38.0984 42.2618 38.2503 40.4728 38.4021C37.0438 38.7059 33.6148 39.0096 30.335 39.4652C28.0987 39.7689 25.8624 40.0726 23.6262 40.2245C26.3097 40.5282 31.5277 41.1356 31.9749 41.2875C36.4475 42.3505 43.3054 45.9952 47.4797 50.551C48.0761 50.7028 48.8215 50.8547 49.4179 51.1584C54.3377 53.4363 56.8721 59.3589 54.0395 64.2184C50.1632 71.0521 36.2984 72.267 29.4405 70.9002C28.9932 70.9002 24.8188 69.3816 22.1353 68.4705C23.6262 69.2298 25.117 69.9891 26.6079 70.9002C29.5896 72.5707 32.5713 74.2411 35.702 76.0635C37.1929 76.9746 38.6838 78.0376 40.3237 78.9488C41.8145 79.86 43.3054 81.0749 44.9453 82.1379C48.5234 84.7195 51.9523 87.453 55.3813 90.1865C56.723 87.453 61.941 78.0377 66.1153 74.8486C70.1406 71.6595 76.2531 68.6223 81.6201 70.1409C86.8381 71.5077 90.118 76.9746 88.1799 82.2897C85.3473 89.579 71.7806 93.0718 64.9227 92.6162C64.4754 92.6162 59.5556 91.7051 56.8721 91.2495C58.9593 92.92 60.8974 94.5904 62.9845 96.4127C68.7988 101.576 74.4641 107.043 80.2784 112.51C82.0674 114.18 83.8564 115.851 85.6454 117.369C86.0927 116.458 92.0561 105.069 96.6777 101.424C100.703 98.2351 106.815 95.1979 112.183 96.7165C117.4 98.0832 120.68 103.55 118.742 108.865C115.91 116.155 102.343 119.647 95.485 119.192C95.0378 119.192 87.8817 117.977 86.0927 117.521C89.9689 121.166 93.8451 124.659 97.8704 128C103.387 132.555 109.052 136.808 114.866 140.604C115.164 140.148 121.128 128.303 125.898 124.659C129.924 121.47 136.036 118.432 141.403 119.951C146.621 121.318 149.901 126.785 147.963 132.1C145.13 139.389 131.564 142.882 124.706 142.426C124.109 142.426 116.506 141.06 115.164 140.756C115.462 140.908 115.91 141.211 116.208 141.515C122.469 145.312 128.88 148.349 135.142 150.779C138.72 152.145 142.298 153.36 145.727 154.423C146.621 152.145 150.945 141.515 154.821 137.719C158.548 134.074 164.213 130.429 169.729 131.341C174.947 132.252 178.973 137.263 177.482 142.73C175.544 150.323 162.424 155.183 155.417 155.638C154.97 155.638 151.243 155.486 148.41 155.183C150.05 155.638 151.541 156.094 153.032 156.549C158.697 158.068 163.915 159.131 168.686 160.042C171.369 160.498 173.755 160.953 175.991 161.257C178.078 159.435 186.427 152.297 191.496 150.779C196.415 149.26 203.124 148.804 207.597 152.145C211.92 155.334 213.113 161.713 209.386 165.965C204.168 171.887 190.303 169.913 184.041 167.028C183.445 166.724 175.394 161.864 175.544 161.713C173.307 161.409 171.071 161.105 168.387 160.65C163.617 159.89 158.399 158.979 152.584 157.612C146.919 156.246 140.658 154.575 134.396 152.145C127.986 149.868 121.426 146.982 115.015 143.186C115.015 143.186 115.015 143.186 114.866 143.186C116.357 144.856 120.531 149.716 120.829 150.171C124.706 155.942 128.88 169.609 124.109 175.836C120.68 180.391 114.419 180.24 110.543 176.443C106.517 172.647 105.921 165.813 106.517 160.498L106.219 159.131Z" fill="#3AF2AE"/>
<path d="M175.395 37.7947C175.395 37.7947 184.787 37.7947 185.383 37.7947C192.241 38.7059 205.062 44.4766 206.553 52.2215C207.597 57.8403 203.422 62.5479 198.055 63.0035C192.539 63.4591 187.172 59.5107 183.594 55.5624C179.569 51.0066 175.395 37.7947 175.395 37.7947Z" fill="#3AF2AE"/>
</svg>
