<svg width="681" height="522" viewBox="0 0 681 522" fill="none" xmlns="http://www.w3.org/2000/svg">
<path d="M590.043 446.013C589.149 439.939 592.876 426.575 592.876 426.575C592.876 426.575 600.777 431.738 601.225 432.194C606.442 436.75 614.046 448.747 611.064 456.036C608.977 461.351 602.715 462.87 598.094 460.288C593.323 457.707 590.789 451.177 590.043 446.013Z" fill="#3AF2AE"/>
<path d="M553.219 431.131C553.815 425.208 560.375 414.275 560.972 413.363C554.859 409.719 548.896 405.467 543.23 400.759C539.951 398.177 536.671 395.292 533.391 392.558C534.733 394.077 535.776 395.444 535.925 395.596C539.802 401.366 543.976 415.034 539.205 421.26C535.776 425.816 529.515 425.664 525.638 421.868C521.613 418.071 521.017 411.237 521.613 405.922C522.21 400.607 527.577 391.04 529.067 388.61C527.875 387.547 526.533 386.484 525.34 385.269C519.526 379.954 513.712 374.639 507.748 369.628C505.661 367.805 503.574 366.135 501.487 364.464C502.679 365.831 503.574 366.894 503.723 367.198C507.599 372.969 511.774 386.636 507.003 392.862C503.574 397.418 497.312 397.266 493.436 393.47C489.411 389.673 488.815 382.839 489.411 377.524C490.007 372.513 494.927 363.705 496.567 360.668C494.331 358.997 492.243 357.327 490.007 355.808C488.516 354.745 487.025 353.834 485.535 352.923C484.044 352.012 482.404 351.101 480.913 350.19C477.931 348.519 474.801 346.849 471.819 345.33C469.732 344.267 467.794 343.204 465.855 342.293C467.943 343.963 471.968 347.456 472.266 347.912C477.037 353.075 483.149 365.831 479.422 372.817C476.739 377.828 470.477 378.587 466.005 375.55C461.532 372.361 459.892 365.679 459.594 360.516C459.445 354.745 463.917 343.204 464.514 341.837C461.234 340.167 457.954 338.648 454.972 337.13C452.289 335.763 449.605 334.7 447.071 333.485L448.263 328.777C450.947 329.992 453.78 331.511 456.91 332.877C460.19 334.548 463.768 336.37 467.495 338.344C468.092 337.585 471.372 333.029 475.099 329.233C471.968 324.221 469.732 312.832 469.434 311.465C465.855 311.921 462.277 312.376 458.998 312.984C456.761 313.287 454.525 313.743 452.438 314.047L453.78 309.035C455.27 308.884 456.761 308.58 458.401 308.428C462.128 307.972 466.005 307.517 470.179 307.061C470.179 305.543 470.924 293.242 473.608 288.079C475.993 283.371 480.317 278.208 485.684 277.297C490.902 276.385 496.269 279.878 496.567 285.649C497.014 293.546 486.131 302.354 479.72 304.935C479.273 305.087 475.099 306.302 472.266 306.909C473.906 306.757 475.546 306.606 477.186 306.454C480.615 306.15 483.895 305.846 487.622 305.694C489.411 305.694 491.2 305.694 492.989 305.543C494.778 305.543 496.716 305.543 498.505 305.543C502.828 305.543 507.152 305.998 511.624 306.454C511.326 303.417 510.581 292.635 512.221 287.623C513.861 282.612 517.439 276.841 522.508 275.019C527.577 273.348 533.391 275.93 534.584 281.549C536.223 289.294 526.831 299.772 520.719 303.265C520.42 303.417 515.799 305.543 513.264 306.606C515.948 306.909 518.482 307.213 521.166 307.517C528.769 308.58 536.522 309.947 544.274 311.161C546.659 311.617 549.045 311.921 551.43 312.224C551.43 311.161 550.088 298.405 552.026 292.786C553.666 287.775 557.244 282.004 562.313 280.182C567.382 278.512 573.196 281.093 574.389 286.712C576.029 294.457 566.637 304.935 560.524 308.428C560.077 308.732 553.517 311.617 551.728 312.376C556.946 313.136 562.164 313.895 567.233 314.502C574.389 315.262 581.396 315.565 588.105 315.414C588.105 314.958 586.763 301.594 588.701 295.824C590.341 290.812 593.919 285.042 598.988 283.219C604.057 281.549 609.871 284.13 611.064 289.749C612.704 297.494 603.312 307.972 597.199 311.465C596.752 311.769 589.596 314.958 588.254 315.414C588.701 315.414 589.149 315.414 589.447 315.414C596.752 315.11 603.759 313.895 610.17 312.528C613.897 311.769 617.475 310.706 620.904 309.643C620.456 307.213 618.22 295.975 619.413 290.66C620.605 285.497 623.438 279.271 628.358 276.993C633.278 274.715 639.241 276.689 641.03 282.156C643.564 289.597 635.216 301.139 629.7 305.239C629.401 305.391 626.122 307.517 623.587 308.884C625.078 308.428 626.718 307.821 628.209 307.365C633.725 305.391 638.794 303.417 643.117 301.442C645.652 300.379 647.888 299.316 649.826 298.253C650.571 295.52 653.702 284.89 657.131 280.789C660.411 276.689 665.778 272.589 671.294 272.893C676.661 273.196 681.134 277.752 680.239 283.371C679.047 291.116 666.524 297.494 659.666 298.557C659.069 298.557 649.677 299.013 649.677 299.013C649.677 299.013 649.677 299.013 649.677 298.861C647.739 299.924 645.503 300.987 643.266 302.05C638.943 304.024 634.023 306.302 628.507 308.276C622.991 310.402 616.878 312.376 610.319 314.047C603.759 315.717 596.752 317.084 589.298 317.54C589.298 317.54 589.149 317.54 588.999 317.54C591.236 318.147 597.348 319.817 597.795 319.969C604.206 322.703 615.089 331.663 614.493 339.559C614.046 345.178 608.679 348.671 603.461 347.76C598.094 346.849 593.77 341.533 591.534 336.826C588.85 331.511 588.403 318.603 588.254 317.691C581.247 317.995 573.942 317.691 566.637 317.236C562.462 316.932 558.288 316.325 553.965 315.869C555.903 316.477 557.543 316.932 557.841 316.932C564.251 319.666 575.135 328.625 574.538 336.522C574.091 342.141 568.724 345.634 563.506 344.723C558.139 343.811 553.815 338.496 551.579 333.789C549.194 329.081 548.598 318.147 548.448 315.11C546.808 314.958 545.169 314.654 543.529 314.502C535.776 313.439 528.024 312.224 520.42 311.313C517.737 311.01 515.053 310.858 512.37 310.554C514.01 311.01 515.501 311.465 515.65 311.617C522.06 314.351 532.944 323.31 532.347 331.207C531.9 336.826 526.533 340.319 521.315 339.407C515.948 338.496 511.624 333.181 509.388 328.474C507.152 323.918 506.407 313.895 506.257 310.402C503.574 310.402 500.741 310.098 498.207 310.098C496.418 310.098 494.629 310.098 492.84 310.098C491.051 310.098 489.262 310.25 487.473 310.402C484.044 310.706 480.615 311.01 477.335 311.465C475.099 311.769 472.862 312.073 470.626 312.224C473.31 312.528 478.528 313.136 478.975 313.288C483.447 314.351 490.305 317.995 494.48 322.551C495.076 322.703 495.822 322.855 496.418 323.158C501.338 325.436 503.872 331.359 501.039 336.218C497.163 343.052 483.298 344.267 476.44 342.9C475.993 342.9 471.819 341.382 469.135 340.47C470.626 341.23 472.117 341.989 473.608 342.9C476.59 344.571 479.571 346.241 482.702 348.063C484.193 348.975 485.684 350.038 487.324 350.949C488.815 351.86 490.305 353.075 491.945 354.138C495.523 356.719 498.952 359.453 502.381 362.186C503.723 359.453 508.941 350.038 513.115 346.849C517.141 343.66 523.253 340.622 528.62 342.141C533.838 343.508 537.118 348.975 535.18 354.29C532.347 361.579 518.781 365.072 511.923 364.616C511.475 364.616 506.556 363.705 503.872 363.249C505.959 364.92 507.897 366.59 509.985 368.413C515.799 373.576 521.464 379.043 527.278 384.51C529.067 386.18 530.856 387.851 532.645 389.369C533.093 388.458 539.056 377.069 543.678 373.424C547.703 370.235 553.815 367.198 559.183 368.716C564.4 370.083 567.68 375.55 565.742 380.865C562.91 388.155 549.343 391.647 542.485 391.192C542.038 391.192 534.882 389.977 533.093 389.521C536.969 393.166 540.845 396.659 544.87 400C550.387 404.555 556.052 408.808 561.866 412.604C562.164 412.148 568.128 400.303 572.898 396.659C576.924 393.47 583.036 390.432 588.403 391.951C593.621 393.318 596.901 398.785 594.963 404.1C592.13 411.389 578.564 414.882 571.706 414.426C571.109 414.426 563.506 413.06 562.164 412.756C562.462 412.908 562.91 413.211 563.208 413.515C569.469 417.312 575.88 420.349 582.142 422.779C585.72 424.145 589.298 425.36 592.727 426.423C593.621 424.145 597.945 413.515 601.821 409.719C605.548 406.074 611.213 402.429 616.729 403.341C621.947 404.252 625.973 409.263 624.482 414.73C622.544 422.323 609.424 427.183 602.417 427.638C601.97 427.638 598.243 427.486 595.41 427.183C597.05 427.638 598.541 428.094 600.032 428.549C605.697 430.068 610.915 431.131 615.686 432.042C618.369 432.498 620.755 432.953 622.991 433.257C625.078 431.435 633.427 424.297 638.496 422.779C643.415 421.26 650.124 420.804 654.597 424.145C658.92 427.334 660.113 433.713 656.386 437.965C651.168 443.887 637.303 441.913 631.041 439.028C630.445 438.724 622.394 433.864 622.544 433.713C620.307 433.409 618.071 433.105 615.387 432.65C610.617 431.89 605.399 430.979 599.584 429.612C593.919 428.246 587.658 426.575 581.396 424.145C574.986 421.868 568.426 418.982 562.015 415.186C562.015 415.186 562.015 415.186 561.866 415.186C563.357 416.856 567.531 421.716 567.829 422.171C571.706 427.942 575.88 441.609 571.109 447.836C567.68 452.391 561.419 452.24 557.543 448.443C553.517 444.647 552.921 437.813 553.517 432.498L553.219 431.131Z" fill="#3AF2AE"/>
<path d="M622.395 309.795C622.395 309.795 631.787 309.795 632.383 309.795C639.241 310.706 652.062 316.477 653.553 324.221C654.597 329.84 650.422 334.548 645.055 335.004C639.539 335.459 634.172 331.511 630.594 327.562C626.569 323.007 622.395 309.795 622.395 309.795Z" fill="#3AF2AE"/>
<path d="M90.3108 446.013C91.2053 439.939 87.4781 426.575 87.4781 426.575C87.4781 426.575 79.5767 431.738 79.1294 432.194C73.9114 436.75 66.3081 448.747 69.2898 456.036C71.377 461.351 77.6386 462.87 82.2602 460.288C87.0309 457.707 89.5653 451.177 90.3108 446.013Z" fill="#3AF2AE"/>
<path d="M127.135 431.131C126.538 425.208 119.979 414.275 119.382 413.363C125.495 409.719 131.458 405.467 137.123 400.759C140.403 398.177 143.683 395.292 146.963 392.558C145.621 394.077 144.578 395.444 144.429 395.596C140.552 401.366 136.378 415.034 141.149 421.26C144.578 425.816 150.839 425.664 154.715 421.868C158.741 418.071 159.337 411.237 158.741 405.922C158.144 400.607 152.777 391.04 151.286 388.61C152.479 387.547 153.821 386.484 155.014 385.269C160.828 379.954 166.642 374.639 172.606 369.628C174.693 367.805 176.78 366.135 178.867 364.464C177.674 365.831 176.78 366.894 176.631 367.198C172.755 372.969 168.58 386.636 173.351 392.862C176.78 397.418 183.042 397.266 186.918 393.47C190.943 389.673 191.539 382.839 190.943 377.524C190.347 372.513 185.427 363.705 183.787 360.668C186.023 358.997 188.11 357.327 190.347 355.808C191.838 354.745 193.328 353.834 194.819 352.923C196.31 352.012 197.95 351.101 199.441 350.19C202.423 348.519 205.553 346.849 208.535 345.33C210.622 344.267 212.56 343.204 214.498 342.293C212.411 343.963 208.386 347.456 208.088 347.912C203.317 353.075 197.205 365.831 200.932 372.817C203.615 377.828 209.877 378.587 214.349 375.55C218.822 372.361 220.462 365.679 220.76 360.516C220.909 354.745 216.437 343.204 215.84 341.837C219.12 340.167 222.4 338.648 225.382 337.13C228.065 335.763 230.749 334.7 233.283 333.485L232.09 328.777C229.407 329.992 226.574 331.511 223.443 332.877C220.164 334.548 216.586 336.37 212.858 338.344C212.262 337.585 208.982 333.029 205.255 329.233C208.386 324.221 210.622 312.832 210.92 311.465C214.498 311.921 218.076 312.376 221.356 312.984C223.593 313.287 225.829 313.743 227.916 314.047L226.574 309.035C225.083 308.884 223.593 308.58 221.953 308.428C218.226 307.972 214.349 307.517 210.175 307.061C210.175 305.543 209.43 293.242 206.746 288.079C204.361 283.371 200.037 278.208 194.67 277.297C189.452 276.385 184.085 279.878 183.787 285.649C183.34 293.546 194.223 302.354 200.634 304.935C201.081 305.087 205.255 306.302 208.088 306.909C206.448 306.757 204.808 306.606 203.168 306.454C199.739 306.15 196.459 305.846 192.732 305.694C190.943 305.694 189.154 305.694 187.365 305.543C185.576 305.543 183.638 305.543 181.849 305.543C177.525 305.543 173.202 305.998 168.729 306.454C169.028 303.417 169.773 292.635 168.133 287.623C166.493 282.612 162.915 276.841 157.846 275.019C152.777 273.348 146.963 275.93 145.77 281.549C144.13 289.294 153.523 299.772 159.635 303.265C159.933 303.417 164.555 305.543 167.089 306.606C164.406 306.909 161.871 307.213 159.188 307.517C151.585 308.58 143.832 309.947 136.08 311.161C133.694 311.617 131.309 311.921 128.924 312.224C128.924 311.161 130.266 298.405 128.327 292.786C126.687 287.775 123.109 282.004 118.041 280.182C112.972 278.512 107.157 281.093 105.965 286.712C104.325 294.457 113.717 304.935 119.83 308.428C120.277 308.732 126.837 311.617 128.626 312.376C123.408 313.136 118.19 313.895 113.121 314.502C105.965 315.262 98.9577 315.565 92.2489 315.414C92.2489 314.958 93.5907 301.594 91.6526 295.824C90.0126 290.812 86.4346 285.042 81.3657 283.219C76.2969 281.549 70.4825 284.13 69.2899 289.749C67.6499 297.494 77.0423 307.972 83.1547 311.465C83.602 311.769 90.7581 314.958 92.0998 315.414C91.6526 315.414 91.2053 315.414 90.9071 315.414C83.602 315.11 76.595 313.895 70.1844 312.528C66.4573 311.769 62.8792 310.706 59.4503 309.643C59.8975 307.213 62.1338 295.975 60.9411 290.66C59.7484 285.497 56.9158 279.271 51.996 276.993C47.0762 274.715 41.1129 276.689 39.3238 282.156C36.7894 289.597 45.1381 301.139 50.6543 305.239C50.9524 305.391 54.2323 307.517 56.7667 308.884C55.2759 308.428 53.636 307.821 52.1451 307.365C46.629 305.391 41.5601 303.417 37.2366 301.442C34.7022 300.379 32.4659 299.316 30.5278 298.253C29.7824 295.52 26.6516 284.89 23.2227 280.789C19.9428 276.689 14.5758 272.589 9.05963 272.893C3.69258 273.196 -0.779962 277.752 0.114547 283.371C1.30722 291.116 13.8303 297.494 20.6882 298.557C21.2846 298.557 30.6769 299.013 30.6769 299.013C30.6769 299.013 30.6769 299.013 30.6769 298.861C32.615 299.924 34.8513 300.987 37.0876 302.05C41.411 304.024 46.3308 306.302 51.847 308.276C57.3631 310.402 63.4756 312.376 70.0353 314.047C76.595 315.717 83.602 317.084 91.0562 317.54C91.0562 317.54 91.2053 317.54 91.3544 317.54C89.1181 318.147 83.0057 319.817 82.5584 319.969C76.1478 322.703 65.2646 331.663 65.8609 339.559C66.3082 345.178 71.6752 348.671 76.8932 347.76C82.2602 346.849 86.5837 341.533 88.82 336.826C91.5035 331.511 91.9507 318.603 92.0998 317.691C99.1068 317.995 106.412 317.691 113.717 317.236C117.891 316.932 122.066 316.325 126.389 315.869C124.451 316.477 122.811 316.932 122.513 316.932C116.102 319.666 105.219 328.625 105.816 336.522C106.263 342.141 111.63 345.634 116.848 344.723C122.215 343.811 126.538 338.496 128.775 333.789C131.16 329.081 131.756 318.147 131.905 315.11C133.545 314.958 135.185 314.654 136.825 314.502C144.578 313.439 152.33 312.224 159.933 311.313C162.617 311.01 165.3 310.858 167.984 310.554C166.344 311.01 164.853 311.465 164.704 311.617C158.293 314.351 147.41 323.31 148.007 331.207C148.454 336.826 153.821 340.319 159.039 339.407C164.406 338.496 168.729 333.181 170.966 328.474C173.202 323.918 173.947 313.895 174.096 310.402C176.78 310.402 179.613 310.098 182.147 310.098C183.936 310.098 185.725 310.098 187.514 310.098C189.303 310.098 191.092 310.25 192.881 310.402C196.31 310.706 199.739 311.01 203.019 311.465C205.255 311.769 207.491 312.073 209.728 312.224C207.044 312.528 201.826 313.136 201.379 313.288C196.906 314.351 190.048 317.995 185.874 322.551C185.278 322.703 184.532 322.855 183.936 323.158C179.016 325.436 176.482 331.359 179.314 336.218C183.191 343.052 197.055 344.267 203.913 342.9C204.361 342.9 208.535 341.382 211.219 340.47C209.728 341.23 208.237 341.989 206.746 342.9C203.764 344.571 200.783 346.241 197.652 348.063C196.161 348.975 194.67 350.038 193.03 350.949C191.539 351.86 190.049 353.075 188.409 354.138C184.831 356.719 181.402 359.453 177.973 362.186C176.631 359.453 171.413 350.038 167.239 346.849C163.213 343.66 157.101 340.622 151.734 342.141C146.516 343.508 143.236 348.975 145.174 354.29C148.007 361.579 161.573 365.072 168.431 364.616C168.878 364.616 173.798 363.705 176.482 363.249C174.395 364.92 172.456 366.59 170.369 368.413C164.555 373.576 158.89 379.043 153.075 384.51C151.286 386.18 149.497 387.851 147.708 389.369C147.261 388.458 141.298 377.069 136.676 373.424C132.651 370.235 126.538 367.198 121.171 368.716C115.953 370.083 112.674 375.55 114.612 380.865C117.444 388.155 131.011 391.647 137.869 391.192C138.316 391.192 145.472 389.977 147.261 389.521C143.385 393.166 139.509 396.659 135.483 400C129.967 404.555 124.302 408.808 118.488 412.604C118.19 412.148 112.226 400.303 107.456 396.659C103.43 393.47 97.3178 390.432 91.9507 391.951C86.7328 393.318 83.4529 398.785 85.391 404.1C88.2236 411.389 101.79 414.882 108.648 414.426C109.245 414.426 116.848 413.06 118.19 412.756C117.891 412.908 117.444 413.211 117.146 413.515C110.885 417.312 104.474 420.349 98.2123 422.779C94.6343 424.145 91.0562 425.36 87.6273 426.423C86.7328 424.145 82.4093 413.515 78.5331 409.719C74.806 406.074 69.1408 402.429 63.6246 403.341C58.4067 404.252 54.3814 409.263 55.8722 414.73C57.8103 422.323 70.9298 427.183 77.9368 427.638C78.384 427.638 82.1111 427.486 84.9438 427.183C83.3038 427.638 81.813 428.094 80.3221 428.549C74.6569 430.068 69.4389 431.131 64.6682 432.042C61.9847 432.498 59.5994 432.953 57.3631 433.257C55.2759 431.435 46.9272 424.297 41.8583 422.779C36.9385 421.26 30.2297 420.804 25.7571 424.145C21.4337 427.334 20.241 433.713 23.9681 437.965C29.1861 443.887 43.0509 441.913 49.3125 439.028C49.9088 438.724 57.9594 433.864 57.8103 433.713C60.0466 433.409 62.2829 433.105 64.9664 432.65C69.7371 431.89 74.9551 430.979 80.7694 429.612C86.4346 428.246 92.6962 426.575 98.9577 424.145C105.368 421.868 111.928 418.982 118.339 415.186C118.339 415.186 118.339 415.186 118.488 415.186C116.997 416.856 112.823 421.716 112.524 422.171C108.648 427.942 104.474 441.609 109.245 447.836C112.674 452.391 118.935 452.24 122.811 448.443C126.837 444.647 127.433 437.813 126.837 432.498L127.135 431.131Z" fill="#3AF2AE"/>
<path d="M57.8105 309.795C57.8105 309.795 48.4182 309.795 47.8218 309.795C40.9639 310.706 28.1426 316.477 26.6518 324.221C25.6082 329.84 29.7826 334.548 35.1496 335.004C40.6658 335.459 46.0328 331.511 49.6108 327.562C53.6361 323.007 57.8105 309.795 57.8105 309.795Z" fill="#3AF2AE"/>
<path d="M280.692 30.2202C280.692 29.7646 280.096 29.309 279.648 29.4609C279.052 29.4609 278.605 29.9165 278.754 30.5239C279.052 34.0167 279.35 37.6613 279.648 41.1541C280.245 41.1541 280.99 41.1541 281.586 41.0022C281.288 37.5095 280.99 33.8648 280.692 30.372V30.2202Z" fill="#07132B"/>
<path d="M376.702 29.7646C376.106 29.7646 375.659 30.0683 375.659 30.5239C375.361 34.0167 375.063 37.6613 374.764 41.1541C375.361 41.1541 376.106 41.1541 376.702 41.306C377.001 37.8132 377.299 34.1685 377.597 30.6758C377.597 30.2202 377.299 29.7646 376.702 29.6127V29.7646Z" fill="#07132B"/>
<path d="M413.228 86.864C413.824 82.1563 414.57 77.4487 415.166 72.741C415.166 72.741 415.464 72.741 415.613 72.741C415.613 72.2854 415.763 71.8299 415.912 71.3743C415.763 71.3743 415.613 71.3743 415.464 71.3743C416.359 65.148 417.253 59.0736 417.999 52.8473C418.297 52.8473 418.595 52.8473 419.042 52.9992C419.042 52.5436 419.191 52.088 419.341 51.6325C419.042 51.6325 418.595 51.6325 418.297 51.4806C419.341 43.8876 420.384 36.2946 421.428 28.7016C422.024 28.7016 422.62 28.8534 423.217 29.0053C423.217 28.5497 423.366 28.0941 423.515 27.6386C423.068 27.6386 422.62 27.6385 422.173 27.4867C422.322 26.5755 422.471 25.6644 422.62 24.7532C422.62 24.7532 422.769 24.7532 422.919 24.7532C422.919 24.6013 422.919 24.2976 422.919 24.1458C422.919 24.1458 422.77 24.1458 422.62 24.1458C423.068 23.3865 423.217 22.6272 422.919 21.716C422.62 20.9567 421.875 20.3493 421.13 19.8937C420.831 19.7418 420.533 19.59 420.235 19.2862C420.086 19.2862 419.937 18.9825 419.639 18.8307C419.639 18.8307 419.639 18.8307 419.639 18.6788H419.788C419.788 18.6788 419.788 18.6788 419.788 18.5269C419.937 18.5269 420.086 18.5269 420.086 18.2232C420.086 18.0714 420.086 17.9195 419.788 17.9195C419.788 17.9195 419.788 17.9195 419.788 17.7676H419.937C419.937 17.7676 419.937 17.7676 419.937 17.6158H419.788C419.788 17.6158 419.788 17.6158 419.788 17.7676C419.788 17.7676 419.788 17.7676 419.788 17.9195C419.639 17.9195 419.49 17.9195 419.49 18.2232C419.49 18.3751 419.49 18.5269 419.788 18.5269H419.639C419.639 18.5269 419.639 18.5269 419.639 18.6788C419.639 18.6788 419.639 18.6788 419.639 18.8307C419.639 18.8307 419.341 18.8307 419.191 18.8307C418.744 18.8307 418.446 19.1344 417.999 19.1344C417.104 19.1344 416.359 19.7418 415.912 20.1974C415.315 20.8048 415.166 21.716 415.464 22.4753C415.464 22.4753 415.315 22.4753 415.166 22.4753C415.166 22.6272 415.166 22.9309 415.166 23.0827C415.166 23.0827 415.315 23.0827 415.464 23.0827C415.464 23.9939 415.166 24.9051 415.017 25.8162C414.57 25.8162 414.123 25.8162 413.824 25.6644C413.824 26.12 413.824 26.5755 413.675 27.0311C414.272 27.0311 414.868 27.183 415.464 27.3348C414.123 34.776 412.632 42.369 411.29 49.8101C410.992 49.8101 410.545 49.8101 410.246 49.6583C410.246 50.1139 410.246 50.5694 410.097 51.025C410.395 51.025 410.694 51.025 411.141 51.1769C409.948 57.2513 408.905 63.4775 407.861 69.552C407.712 69.552 407.563 69.552 407.414 69.552C407.414 70.0075 407.414 70.4631 407.265 70.9187C407.265 70.9187 407.563 70.9187 407.712 70.9187C406.817 75.6264 406.072 80.334 405.177 85.0417C399.81 84.1305 394.294 83.3712 388.778 82.7638C389.076 79.271 389.375 75.7782 389.673 72.2854C389.673 72.2854 389.822 72.2854 389.971 72.2854C389.971 71.9817 389.971 71.5261 389.971 71.2224H389.673C390.12 66.6666 390.567 62.1108 390.865 57.4031C391.164 57.4031 391.313 57.4031 391.611 57.4031C391.611 57.0994 391.611 56.6438 391.611 56.3401C391.313 56.3401 391.164 56.3401 390.865 56.3401C391.313 50.7213 391.909 45.1025 392.356 39.4836C392.803 39.4836 393.251 39.4836 393.698 39.4836C393.698 39.1799 393.698 38.7243 393.698 38.4206C393.4 38.4206 393.102 38.4206 392.803 38.4206C392.803 37.8132 392.953 37.0539 393.102 36.4464C393.102 36.4464 393.102 36.4464 393.251 36.4464C393.251 36.2946 393.251 36.1427 393.251 35.9909C393.251 35.9909 393.251 35.9909 393.102 35.9909C393.4 35.3834 393.549 34.776 393.102 34.1685C392.803 33.5611 392.356 33.1055 391.76 32.9537C391.462 32.9537 391.313 32.6499 391.164 32.6499C391.164 32.6499 390.865 32.4981 390.716 32.3462C390.716 32.1944 390.716 32.1944 390.716 32.0425C390.716 32.0425 391.014 32.0425 391.014 31.8906C391.014 31.8906 391.014 31.7388 390.865 31.5869C390.865 31.5869 390.865 31.4351 390.865 31.2832C390.865 31.2832 390.865 31.4351 390.865 31.5869C390.865 31.5869 390.567 31.5869 390.567 31.7388C390.567 31.7388 390.567 31.8906 390.716 32.0425C390.716 32.0425 390.567 32.0425 390.418 32.0425C390.12 32.0425 389.822 32.1944 389.524 32.3462C388.927 32.3462 388.331 32.8018 388.033 33.2574C387.585 33.713 387.585 34.4723 387.735 35.0797C387.735 35.0797 387.735 35.0797 387.586 35.0797C387.586 35.2316 387.586 35.3834 387.586 35.5353C387.586 35.5353 387.585 35.5353 387.735 35.5353C387.735 36.1427 387.735 36.902 387.586 37.5095C387.287 37.5095 386.989 37.5095 386.691 37.5095C386.691 37.8132 386.691 38.2688 386.691 38.5725C387.138 38.5725 387.585 38.5725 388.033 38.5725C387.287 44.1913 386.542 49.8101 385.796 55.429C385.498 55.429 385.349 55.429 385.051 55.429C385.051 55.7327 385.051 56.1883 385.051 56.492C385.349 56.492 385.498 56.492 385.796 56.492C385.2 61.0478 384.604 65.6036 383.858 70.1594H383.56C383.56 70.4631 383.56 70.9187 383.56 71.2224C383.56 71.2224 383.709 71.2224 383.858 71.2224C383.411 74.7152 382.964 78.208 382.517 81.5489C379.684 81.2452 376.851 80.9415 373.87 80.6377C375.062 67.2741 376.255 53.9104 377.448 40.5467C373.273 40.0911 369.099 39.7874 365.074 39.4836C365.372 39.4836 365.819 39.4836 366.117 39.4836C366.415 35.839 366.565 32.3462 366.863 28.7016C366.863 28.246 366.415 27.7904 365.968 27.7904C365.372 27.7904 364.925 28.0941 364.925 28.7016C364.626 32.3462 364.477 35.839 364.179 39.4836C364.477 39.4836 364.626 39.4836 364.925 39.4836C364.477 39.4836 363.881 39.4836 363.434 39.4836C361.943 39.4836 360.303 39.3318 358.812 39.1799L359.11 33.8648C359.259 33.8648 359.558 33.8648 359.707 33.8648C359.707 33.4092 359.707 32.9537 359.707 32.4981C359.558 32.4981 359.408 32.4981 359.11 32.4981C360.005 30.8276 360.005 29.0053 359.11 27.3348C358.365 25.8162 356.874 24.6013 355.234 23.9939C354.936 23.9939 354.638 23.6902 354.34 23.5383C353.892 23.2346 353.296 23.0827 352.849 22.779C352.551 22.6272 352.252 22.4753 352.103 22.3234C352.103 22.3234 352.103 22.0197 352.103 21.8679C352.252 21.8679 352.402 21.8679 352.402 21.5641C352.402 21.4123 352.401 21.2604 352.103 21.2604C352.103 21.2604 352.103 21.2604 352.103 21.1086C352.401 21.1086 352.849 20.8048 352.849 20.5011C352.849 20.1974 352.551 19.8937 352.252 19.7418C352.252 19.7418 352.252 19.4381 352.252 19.2862C352.401 19.2862 352.551 19.2862 352.551 18.9825C352.551 18.8307 352.551 18.6788 352.252 18.6788C352.252 18.3751 352.252 18.2232 352.252 17.9195C352.252 17.9195 352.103 17.9195 351.954 17.9195C351.954 18.2232 351.954 18.3751 351.954 18.6788C351.805 18.6788 351.656 18.6788 351.656 18.9825C351.656 19.1344 351.656 19.2862 351.954 19.2862C351.954 19.2862 351.954 19.59 351.954 19.7418C351.507 19.7418 351.209 20.0455 351.209 20.3493C351.209 20.653 351.507 20.9567 351.805 21.1086C351.805 21.1086 351.805 21.1086 351.805 21.2604C351.656 21.2604 351.507 21.2604 351.507 21.5641C351.507 21.716 351.507 21.8679 351.805 21.8679C351.805 22.0197 351.805 22.1716 351.805 22.3234C351.358 22.4753 350.911 22.779 350.612 22.9309C350.165 23.0827 349.867 23.2346 349.42 23.3865C349.122 23.3865 348.823 23.5383 348.525 23.6902C347.482 23.9939 346.587 24.4495 345.693 25.0569C345.693 22.9309 345.395 20.9567 344.202 18.9825C342.413 15.9453 339.282 13.5156 335.406 12.3007C334.809 12.1488 334.213 11.8451 333.617 11.6932C332.722 11.3895 331.977 10.9339 331.231 10.6302C330.337 10.1746 329.592 9.71905 328.697 9.41533V8.50417C328.995 8.50417 329.293 8.20045 329.293 7.74487C329.293 7.44115 328.995 7.13743 328.697 6.98557C328.697 6.98557 328.697 6.68185 328.697 6.52999C329.442 6.52999 330.039 5.92255 330.039 5.16325C330.039 4.40394 329.442 3.94836 328.697 3.7965C328.697 3.49278 328.697 3.34092 328.697 3.0372C328.995 3.0372 329.293 2.73348 329.293 2.2779C329.293 1.97418 328.995 1.67046 328.697 1.5186C328.697 1.06302 328.697 0.455581 328.697 0C328.548 0 328.399 0 328.25 0C328.25 0.455581 328.25 1.06302 328.25 1.5186C327.952 1.5186 327.653 1.82232 327.653 2.2779C327.653 2.73348 327.952 2.88534 328.25 3.0372C328.25 3.34092 328.25 3.49278 328.25 3.7965C327.504 3.7965 326.908 4.40394 326.908 5.16325C326.908 5.92255 327.504 6.37813 328.25 6.52999C328.25 6.52999 328.25 6.83371 328.25 6.98557C327.952 6.98557 327.653 7.28929 327.653 7.74487C327.653 8.04859 327.952 8.35231 328.25 8.50417C328.25 8.80789 328.25 9.11161 328.25 9.41533C327.653 9.71905 327.057 10.0228 326.61 10.3265C325.864 10.6302 325.268 11.0858 324.523 11.3895C324.224 11.3895 324.075 11.5414 323.777 11.6932C323.032 11.997 322.435 12.3007 321.69 12.6044C318.112 13.8193 315.279 16.0972 313.639 18.9825C312.596 20.653 312.149 22.6272 312.149 24.4495C311.552 24.1458 311.105 23.842 310.509 23.6902C310.211 23.6902 309.912 23.5383 309.465 23.3865C309.018 23.2346 308.422 22.9309 307.974 22.779C307.676 22.779 307.378 22.4753 307.08 22.3234C307.08 22.3234 307.08 22.0197 307.08 21.8679C307.229 21.8679 307.378 21.716 307.378 21.5641C307.378 21.4123 307.378 21.2604 307.08 21.2604C307.08 21.2604 307.08 21.2604 307.08 21.1086C307.378 21.1086 307.676 20.8048 307.676 20.3493C307.676 20.0455 307.378 19.7418 306.931 19.7418C306.931 19.7418 306.931 19.4381 306.931 19.2862C307.08 19.2862 307.229 19.1344 307.229 18.9825C307.229 18.8307 307.229 18.6788 306.931 18.6788C306.931 18.3751 306.931 18.2232 306.931 17.9195C306.931 17.9195 306.782 17.9195 306.632 17.9195C306.632 18.2232 306.632 18.3751 306.632 18.6788C306.483 18.6788 306.334 18.8307 306.334 18.9825C306.334 19.1344 306.334 19.2862 306.632 19.2862C306.632 19.2862 306.632 19.59 306.632 19.7418C306.334 19.7418 306.036 20.0455 306.036 20.5011C306.036 20.8048 306.334 21.1086 306.782 21.1086C306.782 21.1086 306.782 21.1086 306.782 21.2604C306.632 21.2604 306.483 21.4123 306.483 21.5641C306.483 21.716 306.483 21.8679 306.782 21.8679C306.782 22.0197 306.782 22.1716 306.782 22.3234C306.334 22.4753 306.036 22.779 305.589 22.9309C305.142 23.0827 304.843 23.3865 304.396 23.5383C304.098 23.5383 303.8 23.842 303.502 23.842C301.713 24.4495 300.222 25.6644 299.327 27.3348C298.433 29.0053 298.433 30.8276 299.327 32.4981C299.178 32.4981 299.029 32.4981 298.88 32.4981C298.88 32.9537 298.88 33.4092 298.88 33.8648C299.029 33.8648 299.327 33.8648 299.476 33.8648C299.476 35.6871 299.626 37.3576 299.775 39.1799C297.986 39.1799 296.346 39.3318 294.557 39.4836C294.109 39.4836 293.513 39.4836 293.066 39.4836C293.364 39.4836 293.513 39.4836 293.811 39.4836C293.662 35.839 293.364 32.3462 293.215 28.7016C293.215 28.246 292.768 27.7904 292.171 27.7904C291.575 27.7904 291.128 28.246 291.277 28.7016C291.575 32.3462 291.724 35.839 292.022 39.4836C292.32 39.4836 292.768 39.4836 293.066 39.4836C288.891 39.7874 284.717 40.0911 280.692 40.3948C281.884 53.7585 282.928 67.1222 284.121 80.4859C284.568 80.4859 285.015 80.4859 285.462 80.4859C282.779 80.7896 280.095 80.9415 277.412 81.2452C276.965 77.7524 276.517 74.2596 276.07 70.9187C276.07 70.9187 276.219 70.9187 276.368 70.9187C276.368 70.615 276.368 70.1594 276.368 69.8557H276.07C275.474 65.2999 274.877 60.7441 274.281 56.1883C274.579 56.1883 274.728 56.1883 275.027 56.1883C275.027 55.8845 275.027 55.429 275.027 55.1252C274.728 55.1252 274.579 55.1252 274.281 55.1252C273.536 49.5064 272.939 43.8876 272.194 38.2688C272.641 38.2688 273.088 38.2688 273.536 38.2688C273.536 37.965 273.536 37.5095 273.536 37.2057C273.237 37.2057 272.939 37.2057 272.641 37.2057C272.641 36.5983 272.641 35.839 272.492 35.2316C272.492 35.2316 272.492 35.2316 272.641 35.2316C272.641 35.0797 272.641 34.9278 272.641 34.776C272.641 34.776 272.641 34.776 272.492 34.776C272.641 34.1685 272.492 33.5611 272.194 32.9537C271.896 32.4981 271.299 32.1944 270.703 32.0425C270.405 32.0425 270.107 31.8906 269.809 31.7388C269.809 31.7388 269.659 31.7388 269.51 31.7388C269.51 31.7388 269.659 31.7388 269.659 31.4351C269.659 31.4351 269.659 31.2832 269.361 31.2832C269.361 31.2832 269.361 31.1313 269.361 30.9795C269.361 30.9795 269.361 31.1313 269.361 31.2832C269.361 31.2832 269.212 31.2832 269.212 31.5869C269.212 31.5869 269.212 31.7388 269.51 31.7388C269.51 31.7388 269.51 31.7388 269.51 31.8906C269.51 31.8906 269.212 32.0425 269.063 32.1944C268.914 32.1944 268.616 32.4981 268.318 32.4981C267.721 32.8018 267.274 33.2574 266.976 33.713C266.678 34.3204 266.678 34.9278 266.976 35.5353C266.976 35.5353 266.976 35.5353 266.827 35.5353C266.827 35.6871 266.827 35.839 266.827 35.9909C266.827 35.9909 266.827 35.9909 266.976 35.9909C266.976 36.5983 266.976 37.3576 267.125 37.965C266.827 37.965 266.529 37.965 266.231 37.965C266.231 38.2688 266.231 38.7243 266.231 39.0281C266.678 39.0281 267.125 39.0281 267.572 39.0281C268.02 44.6469 268.467 50.2657 268.914 55.8845C268.616 55.8845 268.467 55.8845 268.169 55.8845C268.169 56.1883 268.169 56.6438 268.169 56.9476C268.467 56.9476 268.616 56.9476 268.914 56.9476C269.212 61.5034 269.659 66.211 269.958 70.7668H269.659C269.659 71.0706 269.659 71.5261 269.659 71.8299C269.659 71.8299 269.809 71.8299 269.958 71.8299C270.256 75.3226 270.554 78.8154 270.852 82.3082C265.336 82.9156 259.969 83.675 254.453 84.4343C253.707 79.7266 252.813 75.0189 252.067 70.3113C252.067 70.3113 252.366 70.3113 252.515 70.3113C252.515 69.8557 252.515 69.4001 252.366 68.9445C252.217 68.9445 252.067 68.9445 251.918 68.9445C250.875 62.8701 249.831 56.6438 248.788 50.5694C249.086 50.5694 249.384 50.5694 249.831 50.4176C249.831 49.962 249.831 49.5064 249.682 49.0508C249.384 49.0508 248.937 49.0508 248.639 49.2027C247.297 41.6097 245.955 34.1685 244.613 26.5755C245.21 26.5755 245.806 26.4237 246.402 26.2718C246.402 25.8162 246.402 25.3606 246.253 24.9051C245.806 24.9051 245.359 24.9051 244.911 25.0569C244.911 24.1458 244.613 23.2346 244.464 22.3234C244.464 22.3234 244.613 22.3234 244.762 22.3234C244.762 22.1716 244.762 21.8679 244.762 21.716C244.762 21.716 244.613 21.716 244.464 21.716C244.762 20.9567 244.464 20.0455 244.017 19.4381C243.57 18.8307 242.824 18.3751 241.93 18.2232C241.482 18.2232 241.035 18.0714 240.737 17.9195C240.737 17.9195 240.439 17.9195 240.29 17.9195C240.29 17.9195 240.29 17.9195 240.29 17.7676C240.29 17.7676 240.29 17.7676 240.29 17.6158C240.29 17.6158 240.29 17.6158 240.141 17.6158C240.29 17.6158 240.439 17.4639 240.439 17.3121C240.439 17.1602 240.29 17.0083 240.141 17.0083C240.141 17.0083 240.141 17.0083 240.141 16.8565C240.141 16.8565 240.141 16.8565 240.141 16.7046C240.141 16.7046 240.141 16.7046 239.992 16.7046C239.992 16.7046 239.992 16.7046 239.992 16.8565C239.992 16.8565 239.992 16.8565 240.141 16.8565C240.141 16.8565 240.141 16.8565 240.141 17.0083C239.992 17.0083 239.843 17.1602 239.843 17.3121C239.843 17.4639 239.992 17.6158 240.141 17.6158C240.141 17.6158 240.141 17.6158 240.141 17.7676C240.141 17.7676 240.141 17.7676 240.29 17.7676C240.29 17.7676 240.29 17.7676 240.29 17.9195C240.141 17.9195 239.992 18.2232 239.693 18.2232C239.395 18.3751 239.097 18.6788 238.799 18.8307C237.904 19.2862 237.308 19.8937 237.01 20.653C236.712 21.4123 236.712 22.3234 237.308 23.0827C237.308 23.0827 237.159 23.0827 237.01 23.0827C237.01 23.2346 237.01 23.5383 237.01 23.6902C237.01 23.6902 237.159 23.6902 237.308 23.6902C237.308 24.6013 237.606 25.5125 237.755 26.4237C237.308 26.4237 236.861 26.4237 236.414 26.5755C236.414 27.0311 236.563 27.4867 236.712 27.9423C237.308 27.9423 237.904 27.7904 238.501 27.6386C239.395 35.2316 240.439 42.8246 241.482 50.4176C241.184 50.4176 240.737 50.4176 240.439 50.5694C240.439 51.025 240.588 51.4806 240.737 51.9362C241.035 51.9362 241.333 51.9362 241.781 51.7843C242.526 58.0106 243.421 64.085 244.166 70.3113C244.017 70.3113 243.868 70.3113 243.719 70.3113C243.719 70.7668 243.868 71.2224 244.017 71.678C244.017 71.678 244.315 71.678 244.464 71.678C245.06 76.3857 245.657 81.0933 246.253 85.801C245.21 85.9529 244.166 86.1047 243.122 86.2566C243.868 90.3568 243.122 111.465 243.719 115.566C300.371 105.847 358.216 105.998 414.719 116.477C415.464 112.377 417.701 91.268 418.297 87.3196C417.104 87.1677 416.061 86.864 414.868 86.7122L413.228 86.864ZM282.481 51.1769C282.332 48.899 283.226 46.9248 284.866 46.1655C285.164 45.8618 285.462 45.558 285.91 45.2543C286.357 45.558 286.804 45.8618 287.102 46.0136C288.742 46.4692 290.084 48.2915 290.233 50.5694C290.531 54.0622 290.68 57.7069 290.979 61.1996C288.444 61.3515 285.91 61.5034 283.524 61.8071C283.226 58.3143 282.928 54.6697 282.63 51.1769H282.481ZM284.866 80.9415C284.568 77.4487 284.27 73.804 283.972 70.3113C283.823 68.0334 284.717 66.0592 286.208 65.2999C286.506 64.9961 286.804 64.6924 287.102 64.3887C287.55 64.6924 287.848 64.9962 288.295 65.148C289.935 65.6036 291.128 67.4259 291.277 69.7038C291.575 73.1966 291.724 76.8412 292.022 80.334C289.637 80.4859 287.251 80.6377 284.866 80.9415ZM311.254 34.0167C312.149 34.0167 313.043 34.6241 313.043 35.5353C313.043 37.6613 313.043 39.6355 313.192 41.7615C312 41.7615 310.956 41.7615 309.763 41.7615C309.763 39.6355 309.763 37.6613 309.614 35.5353C309.614 34.6241 310.36 34.0167 311.254 33.8648V34.0167ZM306.185 34.1685C307.08 34.1685 307.974 34.776 307.974 35.6871C307.974 37.8132 307.974 39.7874 308.123 41.9134C306.931 41.9134 305.887 41.9134 304.694 41.9134C304.694 39.7874 304.545 37.8132 304.396 35.6871C304.396 34.776 305.142 34.1685 306.036 34.0167L306.185 34.1685ZM301.265 34.3204C302.16 34.3204 303.054 34.9278 303.054 35.839C303.054 37.965 303.204 39.9392 303.353 42.0653C302.16 42.0653 301.116 42.0653 299.924 42.2171C299.924 40.0911 299.775 38.1169 299.625 35.9909C299.625 35.0797 300.371 34.3204 301.265 34.3204ZM297.836 50.1139C297.836 47.836 299.327 45.7099 301.564 45.1025C302.011 44.7988 302.607 44.495 303.054 44.1913C303.651 44.495 304.247 44.7988 304.843 45.1025C307.229 45.5581 309.018 47.3804 309.018 49.8101C309.018 53.3029 309.316 56.9476 309.316 60.4403C305.589 60.4403 301.862 60.7441 298.135 60.8959C297.986 57.4031 297.687 53.7585 297.538 50.2657L297.836 50.1139ZM299.327 79.8784C299.178 76.3857 298.88 72.741 298.731 69.2482C298.731 66.9703 300.073 64.9961 302.309 64.2368C302.756 63.9331 303.204 63.6294 303.8 63.3257C304.396 63.6294 304.993 63.9331 305.589 64.2368C307.974 64.6924 309.614 66.6666 309.763 68.9445C309.763 72.4373 310.061 76.0819 310.061 79.5747C306.483 79.5747 302.905 79.8784 299.327 80.0303V79.8784ZM317.814 79.271C317.814 72.5892 317.516 65.9073 317.516 59.2255C317.516 54.9734 320.497 51.1769 324.821 50.1139C325.715 49.5064 326.759 49.0508 327.653 48.4434C328.697 49.0508 329.89 49.6583 330.933 50.2657C335.406 51.3287 338.537 55.1252 338.388 59.3773C338.388 66.0592 338.089 72.741 337.94 79.4229C331.231 79.271 324.523 79.271 317.814 79.4229V79.271ZM343.605 41.7615C343.605 39.6355 343.605 37.6613 343.755 35.5353C343.755 34.6241 344.5 34.0167 345.544 34.0167C346.438 34.0167 347.184 34.776 347.184 35.6871C347.184 37.8132 347.034 39.7874 346.885 41.9134C345.693 41.9134 344.649 41.9134 343.456 41.9134L343.605 41.7615ZM355.532 34.4723C356.427 34.4723 357.172 35.2316 357.172 36.1427C357.172 38.2688 357.023 40.2429 356.874 42.369C355.681 42.369 354.638 42.369 353.445 42.2171C353.445 40.0911 353.594 38.1169 353.743 35.9909C353.743 35.0797 354.638 34.4723 355.532 34.4723ZM350.612 34.3204C351.507 34.3204 352.252 35.0797 352.252 35.9909C352.252 38.1169 352.103 40.0911 351.954 42.2171C350.762 42.2171 349.718 42.2171 348.525 42.2171C348.525 40.0911 348.674 38.1169 348.823 35.9909C348.823 35.0797 349.718 34.4723 350.612 34.4723V34.3204ZM347.184 49.6583C347.184 47.3804 348.973 45.4062 351.507 45.1025C352.103 44.7988 352.7 44.495 353.296 44.1913C353.743 44.495 354.34 44.7988 354.787 45.1025C357.172 45.7099 358.663 47.836 358.514 50.1139C358.365 53.6066 358.067 57.2513 357.918 60.7441C354.19 60.5922 350.463 60.2885 346.885 60.1366C346.885 56.6438 347.184 52.9992 347.333 49.5064L347.184 49.6583ZM346.14 79.5747C346.14 76.0819 346.438 72.4373 346.587 68.9445C346.587 66.6666 348.376 64.6924 350.762 64.3887C351.358 64.085 351.954 63.7813 352.551 63.4775C352.998 63.7813 353.445 64.085 354.041 64.3887C356.278 64.9962 357.769 67.1222 357.619 69.4001C357.47 72.8929 357.172 76.5375 357.023 80.0303C353.445 79.8784 349.867 79.5747 346.289 79.5747H346.14ZM366.266 50.8732C366.415 48.5953 367.757 46.6211 369.397 46.3174C369.844 46.0136 370.292 45.7099 370.59 45.558C370.888 45.8618 371.186 46.1655 371.484 46.4692C372.975 47.0767 374.019 49.2027 373.87 51.4806C373.572 54.9734 373.273 58.618 372.975 62.1108C370.441 61.959 368.055 61.6552 365.521 61.5034C365.819 58.0106 365.968 54.5178 366.266 50.8732ZM364.03 80.4859C364.328 76.9931 364.477 73.5003 364.776 69.8557C364.925 67.5778 366.117 65.6036 367.757 65.2999C368.204 64.9961 368.503 64.6924 368.95 64.5406C369.248 64.8443 369.546 65.148 369.844 65.4517C371.335 66.0592 372.23 68.1852 372.081 70.4631C371.782 73.9559 371.484 77.6005 371.186 81.0933C368.801 80.9415 366.415 80.6377 364.03 80.4859Z" fill="#07132B"/>
<path d="M552.026 28.0941L550.982 27.0311L552.622 25.2088C552.92 24.9051 552.92 24.6013 552.622 24.2976L552.324 23.9939C552.324 23.9939 552.026 23.842 551.877 23.842C551.728 23.842 551.579 23.842 551.43 23.9939L549.79 25.8162L548.746 24.7532C548.746 24.7532 548.448 24.6013 548.299 24.6013C548.15 24.6013 548.001 24.6013 547.852 24.7532L547.553 25.0569C547.255 25.3606 547.255 25.6644 547.553 25.9681L548.597 27.0311L547.404 28.246C544.274 30.6757 535.925 37.0539 524.893 42.369C524.594 42.0653 524.296 42.0653 523.998 42.369L522.507 44.0394C522.507 44.0394 522.358 44.3432 522.358 44.495V44.7987L515.202 52.3918C514.904 52.2399 514.606 52.3918 514.308 52.3918L512.817 54.0622C512.817 54.0622 512.668 54.3659 512.668 54.5178C509.984 56.1883 503.872 59.0736 499.995 60.5922L498.505 59.0736C498.206 58.7699 497.908 58.7699 497.61 59.0736L494.777 62.1108C494.777 62.1108 494.628 62.4145 494.628 62.5664C494.628 62.7182 494.628 62.8701 494.777 63.022L495.97 64.085L490.901 69.5519L489.709 68.4889C489.41 68.1852 489.112 68.1852 488.814 68.4889L469.433 89.2938C469.135 89.5975 469.135 89.9012 469.433 90.2049L470.626 91.268L416.359 149.734C416.061 150.038 416.061 150.342 416.359 150.645L435.144 168.868C435.144 168.868 435.144 168.868 435.442 168.868C435.442 168.868 435.591 168.868 435.74 168.868C435.889 168.868 436.038 168.868 436.187 168.717L490.454 110.25L491.647 111.313C491.647 111.313 491.945 111.465 492.094 111.465C492.243 111.465 492.392 111.465 492.541 111.313L511.922 90.5087C512.22 90.2049 512.22 89.9012 511.922 89.5975L510.729 88.5345L515.798 83.0675L516.991 84.1305C516.991 84.1305 516.991 84.1305 517.289 84.1305C517.587 84.1305 517.737 84.1305 518.035 83.9787L520.867 80.9415C520.867 80.9415 521.016 80.6377 521.016 80.4859C521.016 80.334 521.016 80.1822 520.867 80.0303L519.526 78.8154C520.718 74.8671 523.253 68.3371 524.744 65.6036C524.893 65.6036 525.042 65.6036 525.191 65.4517L526.682 63.7813C526.98 63.4775 526.98 63.1738 526.682 62.8701L533.838 55.1252C533.838 55.2771 534.136 55.429 534.285 55.429C534.434 55.429 534.583 55.429 534.732 55.2771L536.223 53.6066C536.223 53.6066 536.372 53.3029 536.372 53.1511C536.372 52.9992 536.372 52.8473 536.223 52.6955H536.074C540.397 42.0653 545.764 33.5611 548.597 29.4609L550.088 27.7904L551.131 28.8534C551.131 28.8534 551.43 29.0053 551.579 29.0053C551.728 29.0053 551.877 29.0053 552.026 28.8534L552.324 28.5497C552.622 28.246 552.622 27.9423 552.324 27.6385L552.026 28.0941Z" fill="#07132B"/>
<path d="M497.163 96.5831C500.592 92.9385 500.443 87.1678 496.865 83.675C493.287 80.1822 487.621 80.3341 484.192 83.9787C480.763 87.6233 480.913 93.394 484.491 96.8868C488.069 100.38 493.734 100.228 497.163 96.5831Z" fill="white"/>
<path d="M494.777 94.3052C496.865 92.0273 496.865 88.3826 494.628 86.1047C492.392 83.9787 488.814 83.9787 486.578 86.2566C484.491 88.5345 484.491 92.1791 486.727 94.457C488.963 96.5831 492.541 96.5831 494.777 94.3052Z" stroke="#07132B" stroke-width="0.5" stroke-linecap="round" stroke-linejoin="round"/>
<path d="M496.716 83.6749L494.479 86.2565" stroke="#07132B" stroke-width="0.5" stroke-linecap="round" stroke-linejoin="round"/>
<path d="M486.727 94.6089L484.491 97.0386" stroke="#07132B" stroke-width="0.5" stroke-linecap="round" stroke-linejoin="round"/>
<path d="M497.163 96.5831L494.778 94.3052" stroke="#07132B" stroke-width="0.5" stroke-linecap="round" stroke-linejoin="round"/>
<path d="M486.578 86.4085L484.192 84.1306" stroke="#07132B" stroke-width="0.5" stroke-linecap="round" stroke-linejoin="round"/>
<path d="M499.399 88.3826L496.119 89.1419" stroke="#07132B" stroke-width="0.5" stroke-linecap="round" stroke-linejoin="round"/>
<path d="M485.087 91.5717L481.956 92.331" stroke="#07132B" stroke-width="0.5" stroke-linecap="round" stroke-linejoin="round"/>
<path d="M499.25 92.6347L496.119 91.8754" stroke="#07132B" stroke-width="0.5" stroke-linecap="round" stroke-linejoin="round"/>
<path d="M485.087 88.9901L481.956 88.0789" stroke="#07132B" stroke-width="0.5" stroke-linecap="round" stroke-linejoin="round"/>
<path d="M494.33 98.7091L492.989 95.6719" stroke="#07132B" stroke-width="0.5" stroke-linecap="round" stroke-linejoin="round"/>
<path d="M488.367 85.0417L487.025 82.0045" stroke="#07132B" stroke-width="0.5" stroke-linecap="round" stroke-linejoin="round"/>
<path d="M489.56 99.4684L489.857 96.1275" stroke="#07132B" stroke-width="0.5" stroke-linecap="round" stroke-linejoin="round"/>
<path d="M491.348 84.5861L491.795 81.397" stroke="#07132B" stroke-width="0.5" stroke-linecap="round" stroke-linejoin="round"/>
<path d="M491.051 92.331L488.963 82.1564" stroke="#07132B" stroke-width="0.5" stroke-linecap="round" stroke-linejoin="round"/>
<path d="M489.261 90.9643L493.585 89.4457" stroke="#07132B" stroke-width="0.5" stroke-linecap="round" stroke-linejoin="round"/>
<path d="M208.088 114.806L206.448 113.288L207.044 112.68L205.106 110.858L203.317 112.68C193.776 109.036 183.34 102.202 179.016 99.1647C179.016 99.1647 178.867 99.1647 178.718 99.0129C178.718 99.0129 178.569 99.0129 178.42 98.861L179.016 98.2536L177.078 96.4313L176.333 97.3424C167.537 92.7866 142.49 70.9187 130.265 59.2255C128.327 57.4032 126.687 55.7327 125.495 54.5178C125.197 54.2141 125.047 54.0623 124.749 53.7585C124.749 53.7585 124.749 53.7585 124.749 53.6067L121.469 50.2658L119.68 48.5953L118.04 47.0767L116.401 48.899L114.761 47.3804L113.866 48.2916L107.306 42.0653L106.859 42.5209L113.419 48.7472L112.524 49.6583L114.164 51.1769L112.524 52.9992L114.164 54.5178L116.251 56.492L119.382 59.5292C119.382 59.5292 119.382 59.5292 119.531 59.5292C119.531 59.5292 119.531 59.5292 119.68 59.6811C121.022 60.7441 122.811 62.4146 125.047 64.5406C137.272 76.2338 160.231 100.38 165.599 108.884L164.704 109.795L166.642 111.617L167.238 110.858C167.238 110.858 167.238 111.01 167.388 111.162C167.388 111.162 167.388 111.314 167.537 111.465C170.667 115.717 178.122 125.74 182.296 135.307L180.507 137.282L182.445 139.104L183.041 138.497L184.681 140.015L188.259 148.519L196.459 167.806L205.404 158.086L200.633 148.367C198.248 143.66 199.143 137.889 202.721 134.093C206.15 130.448 211.218 129.081 215.989 130.752L227.021 134.7L235.967 124.981L207.939 114.958L208.088 114.806ZM172.307 105.391L173.351 104.328C180.954 111.162 191.987 118.755 195.415 121.033L190.198 126.651C187.663 123.159 179.463 112.528 172.307 105.239V105.391Z" fill="#07132B"/>
<path d="M473.906 350.949C448.71 383.143 418.893 411.541 385.946 435.231C403.538 438.876 422.024 442.672 440.063 443.28C442.747 437.054 440.809 428.397 441.554 421.564C445.579 421.867 449.754 422.019 453.779 422.323C474.8 423.082 471.669 425.968 470.775 404.707C470.775 404.707 470.775 404.555 470.775 404.404C470.328 397.722 469.88 391.04 469.135 384.358C479.124 383.599 490.454 384.662 499.995 381.928C499.548 364.161 494.33 345.786 490.603 328.625C485.236 336.218 479.72 343.811 474.055 351.101L473.906 350.949Z" fill="#07132B"/>
<path d="M565.295 169.02C565.593 169.02 549.194 133.941 522.507 137.585C522.806 138.345 523.104 139.104 523.253 139.863C502.381 147.76 481.36 155.505 460.339 163.25C460.637 163.857 460.786 164.465 461.085 165.224C464.663 163.857 468.241 162.642 471.819 161.275C472.564 160.972 473.309 161.275 473.608 162.187C473.906 162.946 473.608 163.857 472.713 164.009C469.135 165.224 465.557 166.591 461.979 167.805C462.277 168.717 462.575 169.628 462.874 170.539C466.899 169.172 470.924 167.805 474.949 166.287C475.695 165.983 476.44 166.439 476.738 167.198C477.037 167.957 476.738 168.868 475.844 169.02C471.819 170.387 467.793 171.754 463.619 173.121C464.066 174.639 464.663 176.31 465.11 177.828C469.135 176.461 473.309 175.095 477.335 173.88C478.08 173.576 478.975 174.184 479.124 174.943C479.422 175.854 479.124 176.765 478.229 176.917C474.204 178.284 470.03 179.499 466.004 180.865C466.75 183.143 467.346 185.421 468.092 187.699C472.117 186.484 476.291 185.269 480.316 183.903C481.062 183.599 481.956 184.358 482.255 185.573C482.553 186.788 482.255 187.851 481.509 188.003C477.335 189.218 473.309 190.433 469.135 191.648C469.582 193.166 470.03 194.685 470.328 196.203C474.502 194.988 478.527 193.925 482.702 192.711C485.087 191.951 487.622 193.622 488.367 196.203C489.112 198.785 487.622 201.367 485.087 202.126C480.913 203.189 476.738 204.252 472.713 205.315C473.16 206.834 473.459 208.352 473.906 209.871C478.08 208.808 482.255 207.745 486.429 206.834C488.814 206.226 491.349 207.897 491.945 210.478C492.541 213.06 491.051 215.641 488.516 216.249C484.342 217.16 480.167 218.071 475.993 219.134C476.291 220.653 476.589 222.171 476.888 223.69C481.062 222.779 485.236 221.868 489.411 220.957C491.945 220.349 494.33 222.171 494.778 224.753C495.225 227.335 493.734 229.916 491.2 230.372C487.025 231.131 482.851 232.042 478.677 232.802C479.124 235.231 479.571 237.661 480.018 239.939C483.298 239.332 486.727 238.724 490.007 238.117C493.138 237.509 496.269 239.787 496.716 243.28C497.312 246.621 495.076 249.81 491.796 250.266C488.516 250.721 485.087 251.329 481.807 251.784C481.956 252.847 482.106 253.91 482.255 254.973C485.982 254.518 489.709 253.91 493.436 253.455C495.97 253.151 498.356 254.973 498.803 257.707C499.101 260.44 497.312 262.87 494.778 263.326C491.051 263.781 487.323 264.237 483.596 264.692C483.895 267.729 484.193 270.767 484.491 273.804C488.367 273.348 492.094 273.045 495.97 272.589C497.461 272.437 498.803 273.652 498.952 275.171C498.952 276.689 498.058 278.208 496.567 278.208C492.69 278.512 488.963 278.815 485.087 279.271C485.087 280.03 485.087 280.789 485.236 281.397C489.112 281.093 492.84 280.789 496.716 280.486C498.207 280.486 499.548 281.549 499.548 283.067C499.548 284.586 498.505 285.953 497.014 286.105C493.138 286.408 489.262 286.712 485.534 286.864C485.534 287.927 485.534 289.142 485.684 290.205C489.858 289.901 493.883 289.749 498.058 289.445C499.101 289.445 499.996 290.205 499.996 291.268C499.996 292.331 499.25 293.242 498.207 293.394C494.032 293.698 490.007 293.849 485.833 294.153C485.833 294.912 485.833 295.672 485.833 296.583C490.007 296.431 494.032 296.127 498.207 295.975C499.25 295.975 500.145 296.735 500.145 297.798C500.145 298.861 499.399 299.772 498.356 299.924C494.181 300.076 490.156 300.228 485.982 300.379C485.982 300.987 485.982 301.746 485.982 302.354C489.858 302.354 493.883 302.05 497.759 301.898C498.356 301.898 498.952 302.354 498.952 303.113C498.952 303.72 498.505 304.328 497.908 304.328C494.032 304.328 490.007 304.631 486.131 304.783C486.131 305.391 486.131 306.15 486.131 306.758C489.709 306.758 493.287 306.606 496.865 306.454C497.461 306.454 497.908 306.909 498.058 307.517C498.058 308.124 497.61 308.732 497.014 308.732C493.436 308.732 489.858 308.884 486.28 309.035C486.28 309.491 486.28 310.098 486.28 310.554C489.858 310.554 493.436 310.554 497.014 310.402C497.61 310.402 498.058 310.858 498.058 311.617C498.058 312.224 497.61 312.832 497.014 312.832C493.436 312.832 489.858 312.832 486.28 312.984C486.28 313.591 486.28 314.047 486.28 314.654C498.952 314.654 511.475 314.351 524.147 314.199C523.7 314.654 543.827 289.142 533.092 240.395C531.9 240.546 530.707 240.85 529.514 241.002C529.216 239.028 528.918 236.902 528.62 234.928C529.962 234.624 531.303 234.472 532.645 234.168C532.198 231.587 531.751 229.157 531.303 226.575C529.962 226.879 528.62 227.031 527.278 227.335C526.533 222.779 525.638 218.223 524.744 213.819C525.042 213.819 525.489 213.667 525.787 213.515C526.682 213.364 527.576 213.06 528.471 212.908C528.471 212.908 528.62 212.908 528.769 212.908C528.173 209.871 527.427 206.682 526.831 203.644C532.049 199.848 537.267 196.051 542.336 192.103C543.081 191.496 543.827 190.888 544.721 190.281C546.063 189.37 547.256 188.307 548.597 187.395C548.001 184.814 547.256 182.232 546.659 179.802C550.834 178.588 554.859 177.525 559.033 176.31C560.226 174.639 561.568 172.969 562.76 171.298C563.357 170.387 564.102 169.628 564.698 168.717L565.295 169.02ZM501.337 152.164C504.319 151.101 507.152 150.038 510.133 148.975C511.177 148.671 512.37 148.823 513.264 149.43C513.562 149.582 513.861 149.886 514.159 150.038C510.432 151.405 506.704 152.771 502.977 154.138C502.381 153.531 501.785 152.771 501.337 152.316V152.164ZM505.661 157.479C509.239 156.264 512.668 155.049 516.246 153.682C516.842 153.531 517.439 153.682 518.035 154.138C518.333 154.442 518.631 154.594 518.929 154.897C520.122 155.96 519.824 157.935 518.631 158.39C515.5 159.605 512.37 160.972 509.239 162.187C508.046 160.516 507.003 158.846 505.81 157.479H505.661ZM511.624 165.983C515.351 164.768 519.228 163.553 522.955 162.187C523.7 161.883 524.595 162.187 525.191 163.098C526.085 164.313 525.638 166.135 524.446 166.591C520.868 167.654 517.439 168.717 513.861 169.78C513.115 168.413 512.37 167.046 511.624 165.831V165.983ZM515.65 173.424C519.526 172.209 523.402 170.995 527.278 169.78C528.322 169.476 529.664 169.78 530.409 170.995C530.409 170.995 530.409 170.995 530.409 171.146C531.9 173.121 531.154 175.854 529.216 176.461C525.638 177.525 522.06 178.588 518.482 179.651C517.588 177.373 516.544 175.398 515.5 173.424H515.65ZM483.894 160.972C483.447 160.364 482.851 159.757 482.255 159.149C484.491 158.39 486.727 157.479 488.963 156.72C490.305 156.264 491.796 156.72 492.691 157.783C489.709 158.846 486.727 159.909 483.745 160.972H483.894ZM487.323 167.198C486.876 166.287 486.28 165.224 485.833 164.313C488.814 163.25 491.796 162.187 494.778 161.275C495.374 161.124 495.97 161.275 496.418 161.731C497.163 162.642 496.865 164.161 495.821 164.465C492.989 165.376 490.305 166.287 487.473 167.35L487.323 167.198ZM491.349 175.55C490.603 173.88 489.709 172.209 488.963 170.387C492.094 169.324 495.225 168.261 498.207 167.35C499.25 167.046 500.592 167.35 501.188 168.565C502.083 170.235 501.486 172.209 499.847 172.817C497.014 173.728 494.181 174.639 491.349 175.55ZM495.523 185.877C494.629 183.447 493.734 181.169 492.84 178.739C496.119 177.676 499.548 176.613 502.828 175.55C504.17 175.095 505.661 175.854 506.406 177.069C506.555 177.373 506.704 177.676 506.854 177.828C507.897 179.802 507.152 182.232 505.214 182.84C501.934 183.751 498.803 184.662 495.523 185.725V185.877ZM500.145 198.633C499.25 195.9 498.356 193.318 497.461 190.584C500.89 189.673 504.319 188.61 507.748 187.699C509.388 187.244 511.326 188.307 511.922 190.129C511.922 190.433 512.071 190.736 512.221 191.04C512.966 193.166 511.922 195.596 509.984 196.051C506.704 196.963 503.425 197.722 500.145 198.633ZM504.021 213.06C503.275 209.871 502.381 206.682 501.487 203.493C505.065 202.581 508.643 201.67 512.37 200.759C514.159 200.304 516.097 201.518 516.842 203.493C516.991 204.1 517.289 204.707 517.439 205.315C518.184 207.745 516.991 210.174 514.755 210.782C511.177 211.541 507.599 212.452 504.021 213.212V213.06ZM518.184 261.959C518.333 263.477 517.439 264.844 515.948 264.996C514.01 265.3 511.922 265.452 509.984 265.755C509.835 263.933 509.537 262.111 509.388 260.288C511.326 259.985 513.413 259.833 515.351 259.529C516.693 259.377 518.035 260.44 518.184 261.959ZM508.046 232.194C507.599 229.764 507.152 227.183 506.704 224.753C508.792 224.297 510.879 223.842 512.966 223.538C514.606 223.234 516.097 224.297 516.544 226.12C516.544 226.575 516.693 227.031 516.842 227.487C516.991 229.157 516.097 230.827 514.457 231.131C512.37 231.587 510.283 231.89 508.195 232.346L508.046 232.194ZM509.835 246.773C509.388 243.432 508.792 240.243 508.344 236.902C510.879 236.446 513.413 235.991 515.948 235.535C516.693 235.535 517.439 235.535 518.035 235.839C518.482 238.724 518.929 241.61 519.377 244.495C518.78 244.95 518.184 245.406 517.439 245.406C514.904 245.862 512.37 246.165 509.835 246.621V246.773ZM506.108 276.537C505.959 274.715 505.81 272.893 505.661 271.07C509.239 270.767 512.817 270.311 516.395 269.855C517.737 269.855 519.078 270.767 519.228 272.437C519.228 273.956 518.333 275.322 516.991 275.474C513.413 275.778 509.835 276.082 506.257 276.537H506.108ZM506.406 280.03C509.835 279.726 513.264 279.423 516.693 279.119C518.035 279.119 519.078 280.182 519.078 281.701C519.078 282.915 518.184 283.827 517.14 283.827C513.711 284.13 510.283 284.434 506.704 284.586C506.704 283.067 506.555 281.549 506.406 280.03ZM507.003 288.231C510.432 287.927 513.711 287.775 517.14 287.471C518.184 287.471 519.078 288.382 519.078 289.597C519.078 290.66 518.333 291.42 517.289 291.572C513.861 291.723 510.581 292.027 507.152 292.179C507.152 290.812 507.152 289.445 506.854 288.231H507.003ZM517.588 298.405C514.308 298.557 510.879 298.709 507.599 298.861C507.599 297.95 507.599 296.887 507.599 295.975C510.879 295.824 514.308 295.672 517.588 295.368C518.482 295.368 519.228 296.279 518.929 297.19C518.929 297.798 518.333 298.253 517.737 298.405H517.588ZM524.744 294.153C525.638 294.153 526.384 294.912 526.384 295.824C526.384 296.735 525.787 297.646 524.893 297.646C523.998 297.646 523.253 296.887 523.253 295.975C523.253 295.064 523.849 294.153 524.744 294.153ZM527.725 271.83C527.875 273.5 526.831 275.019 525.34 275.171C523.849 275.171 522.507 274.108 522.358 272.437C522.209 270.767 523.253 269.248 524.744 269.096C526.235 268.944 527.576 270.159 527.725 271.83ZM534.285 190.433C530.707 191.344 527.278 192.255 523.7 193.166C522.806 190.281 521.762 187.547 520.718 184.966C524.446 183.903 528.173 182.84 531.751 181.777C533.242 181.321 534.881 182.232 535.776 183.903C535.925 184.206 536.074 184.51 536.223 184.966C537.267 187.244 536.223 189.825 534.136 190.281L534.285 190.433Z" fill="#07132B"/>
<path opacity="0.1" d="M533.838 240.698C530.409 241.306 526.831 241.913 523.402 242.369C523.7 244.647 523.998 246.773 524.296 249.051C518.78 251.177 513.413 253.151 507.897 255.277C508.493 259.529 508.941 263.933 509.388 268.185C501.188 270.311 492.988 272.285 484.789 274.108C488.665 273.652 492.392 273.348 496.268 272.893C497.759 272.741 499.101 273.956 499.25 275.474C499.25 276.993 498.356 278.512 496.865 278.512C492.988 278.815 489.261 279.271 485.385 279.575C485.385 280.334 485.385 281.093 485.534 281.701C489.41 281.397 493.138 281.093 497.014 280.789C498.505 280.789 499.846 281.852 499.846 283.371C499.846 284.89 498.803 286.256 497.312 286.408C493.436 286.712 489.56 287.016 485.832 287.168C485.832 288.231 485.832 289.445 485.982 290.509C490.156 290.205 494.181 290.053 498.356 289.749C499.399 289.749 500.294 290.508 500.294 291.572C500.294 292.635 499.548 293.546 498.505 293.698C494.33 294.001 490.305 294.153 486.131 294.457C486.131 295.216 486.131 295.975 486.131 296.887C490.305 296.735 494.33 296.431 498.505 296.279C499.548 296.279 500.443 297.038 500.443 298.102C500.443 299.165 499.697 300.076 498.654 300.228C494.479 300.379 490.454 300.531 486.28 300.683C486.28 301.291 486.28 302.05 486.28 302.657C490.156 302.657 494.181 302.354 498.057 302.202C498.654 302.202 499.25 302.657 499.25 303.417C499.25 304.024 498.803 304.631 498.206 304.631C494.33 304.631 490.305 304.935 486.429 305.087C486.429 305.695 486.429 306.454 486.429 307.061C490.007 307.061 493.585 306.909 497.163 306.758C497.759 306.758 498.206 307.213 498.356 307.821C498.356 308.428 497.908 309.035 497.312 309.035C493.734 309.035 490.156 309.187 486.578 309.339C486.578 309.795 486.578 310.402 486.578 310.858C490.156 310.858 493.734 310.858 497.312 310.706C497.908 310.706 498.356 311.161 498.356 311.921C498.356 312.528 497.908 313.136 497.312 313.136C493.734 313.136 490.156 313.136 486.578 313.288C486.578 313.895 486.578 314.351 486.578 314.958C499.25 314.958 511.773 314.654 524.445 314.502C523.998 314.958 544.125 289.445 533.39 240.698H533.838ZM509.984 265.603C509.835 263.781 509.537 261.959 509.388 260.136C511.326 259.833 513.413 259.681 515.351 259.377C516.693 259.225 518.035 260.288 518.184 261.807C518.333 263.326 517.438 264.692 515.948 264.844C514.009 265.148 511.922 265.3 509.984 265.603ZM506.108 276.537C505.959 274.715 505.81 272.893 505.661 271.07C509.239 270.767 512.817 270.311 516.395 269.856C517.737 269.856 519.078 270.767 519.227 272.437C519.227 273.956 518.333 275.322 516.991 275.474C513.413 275.778 509.835 276.082 506.257 276.537H506.108ZM522.358 272.285C522.209 270.615 523.253 269.096 524.744 268.944C526.234 268.792 527.576 270.007 527.725 271.678C527.874 273.348 526.831 274.867 525.34 275.019C523.849 275.019 522.507 273.956 522.358 272.285ZM506.853 284.738C506.853 283.219 506.704 281.701 506.555 280.182C509.984 279.878 513.413 279.575 516.842 279.271C518.184 279.271 519.227 280.334 519.227 281.852C519.227 283.067 518.333 283.979 517.289 283.979C513.86 284.282 510.431 284.586 506.853 284.738ZM507.301 292.331C507.301 290.964 507.301 289.597 507.002 288.382C510.431 288.079 513.711 287.927 517.14 287.623C518.184 287.623 519.078 288.534 519.078 289.749C519.078 290.812 518.333 291.572 517.289 291.723C513.86 291.875 510.58 292.179 507.152 292.331H507.301ZM524.744 294.153C525.638 294.153 526.383 294.912 526.383 295.824C526.383 296.735 525.787 297.646 524.893 297.646C523.998 297.646 523.253 296.887 523.253 295.975C523.253 295.064 523.849 294.153 524.744 294.153ZM507.599 298.861C507.599 297.95 507.599 296.887 507.599 295.975C510.879 295.824 514.308 295.672 517.587 295.368C518.482 295.368 519.227 296.279 518.929 297.19C518.929 297.798 518.333 298.253 517.737 298.405C514.457 298.557 511.028 298.709 507.748 298.861H507.599Z" fill="white"/>
<path d="M182.743 164.768L181.401 171.146L172.158 172.665L170.965 178.284L161.871 179.347L161.126 182.84L152.032 183.599L151.435 186.788L142.49 187.244L141.447 192.711H132.502L131.756 196.355H122.96C122.96 196.203 121.917 201.063 121.917 201.063L113.121 200.607L112.524 203.796L103.728 203.037L102.237 210.63L97.1686 209.567L92.0997 208.504L87.0308 207.441L85.0927 206.985L80.0238 232.042L90.1616 234.168L92.0997 234.624L97.1686 235.687L95.6777 243.28L104.026 246.165L103.43 249.354L111.63 252.392L110.586 257.251L118.786 260.592L118.04 264.237L126.24 267.881L125.196 273.348L133.247 277.449L132.651 280.638L140.701 285.042L139.956 288.534L147.857 293.242L146.665 298.861L154.566 304.024L153.224 310.402L160.977 316.021L191.986 162.339L182.743 164.465V164.768ZM100.15 221.564L99.4048 225.36L92.696 223.994L93.4414 220.197L100.15 221.564Z" fill="#07132B"/>
<g opacity="0.3">
<path d="M155.551 225.724L151.923 243.723L154.406 244.242L158.033 226.243L155.551 225.724Z" fill="white"/>
<path d="M142.741 222.933L139.113 240.933L141.596 241.452L145.223 223.452L142.741 222.933Z" fill="white"/>
<path d="M152.399 224.929L148.771 242.929L151.254 243.448L154.881 225.448L152.399 224.929Z" fill="white"/>
<path d="M146.038 223.758L142.411 241.758L144.894 242.277L148.521 224.277L146.038 223.758Z" fill="white"/>
<path d="M149.071 224.252L145.444 242.252L147.926 242.771L151.554 224.771L149.071 224.252Z" fill="white"/>
<path d="M162.06 227.046L158.433 245.046L160.916 245.565L164.543 227.565L162.06 227.046Z" fill="white"/>
<path d="M168.54 228.365L164.912 246.365L167.395 246.884L171.022 228.884L168.54 228.365Z" fill="white"/>
<path d="M158.879 226.4L155.251 244.4L157.734 244.919L161.361 226.919L158.879 226.4Z" fill="white"/>
<path d="M171.722 229.011L168.094 247.011L170.577 247.53L174.204 229.53L171.722 229.011Z" fill="white"/>
<path d="M101.593 214.344L97.9661 232.344L99.7185 232.711L103.346 214.711L101.593 214.344Z" fill="white"/>
<path d="M165.358 227.719L161.731 245.719L164.213 246.238L167.841 228.239L165.358 227.719Z" fill="white"/>
<path d="M139.559 222.287L135.931 240.287L138.414 240.806L142.041 222.806L139.559 222.287Z" fill="white"/>
<path d="M120.09 218.174L116.463 236.174L118.945 236.693L122.573 218.693L120.09 218.174Z" fill="white"/>
<path d="M136.231 221.611L132.604 239.61L135.086 240.129L138.713 222.13L136.231 221.611Z" fill="white"/>
<path d="M110.429 216.209L106.801 234.208L109.284 234.728L112.911 216.728L110.429 216.209Z" fill="white"/>
<path d="M174.966 229.633L171.339 247.633L174.552 248.305L178.179 230.305L174.966 229.633Z" fill="white"/>
<path d="M103.949 214.738L100.322 232.737L102.804 233.256L106.432 215.257L103.949 214.738Z" fill="white"/>
<path d="M113.61 216.855L109.983 234.854L112.466 235.374L116.093 217.374L113.61 216.855Z" fill="white"/>
<path d="M107.101 215.532L103.473 233.532L105.956 234.051L109.583 216.051L107.101 215.532Z" fill="white"/>
<path d="M133.079 220.816L129.452 238.816L131.935 239.335L135.562 221.335L133.079 220.816Z" fill="white"/>
<path d="M129.751 220.291L126.124 238.291L128.607 238.81L132.234 220.81L129.751 220.291Z" fill="white"/>
<path d="M123.418 218.851L119.791 236.85L122.273 237.369L125.9 219.37L123.418 218.851Z" fill="white"/>
<path d="M116.908 217.68L113.281 235.68L115.763 236.199L119.391 218.199L116.908 217.68Z" fill="white"/>
<path d="M126.569 219.645L122.942 237.645L125.425 238.164L129.052 220.164L126.569 219.645Z" fill="white"/>
</g>
<path d="M142.49 378.739L138.614 379.802L141 382.839L136.974 385.877L134.142 386.332L135.036 387.547L133.396 388.914L172.606 441.002L174.245 439.635L175.289 441.154L176.482 438.572L176.184 438.268L180.209 435.231L182.743 438.572L184.83 435.079L183.191 432.801L199.739 419.893L200.783 421.412L201.975 418.83L201.677 418.527L225.232 400.152L186.023 348.064L162.468 366.439L159.635 366.894L160.53 368.109L143.981 381.017L142.49 379.043V378.739ZM199.59 366.287L211.368 382.08L186.172 401.67C181.849 405.011 175.736 404.1 172.456 399.848C169.177 395.444 170.071 389.218 174.245 385.877L199.441 366.287H199.59Z" fill="#07132B"/>
<path d="M263.531 54.8394C263.531 54.3838 263.531 54.0801 263.381 53.6245C262.636 51.1947 260.251 49.828 257.865 50.5873C256.673 50.891 255.778 51.8022 255.182 52.8652C252.498 50.2836 248.771 49.3724 245.044 50.4354C242.957 51.0429 241.168 52.4096 239.826 54.0801C236.099 51.4984 231.477 50.4354 226.856 51.954C218.954 54.3838 214.482 62.8879 216.867 71.0884C216.867 71.0884 216.867 71.2403 216.867 71.3921C216.271 71.3921 215.525 71.3921 214.929 71.6958C211.202 72.7589 209.264 76.7072 210.307 80.5037C210.605 81.4149 211.053 82.326 211.649 83.0854C227.601 71.9996 244.895 62.5842 263.531 54.9912V54.8394Z" fill="white" stroke="#07132B" stroke-linecap="round" stroke-linejoin="round"/>
<path d="M166.924 124.088C166.924 123.784 166.625 123.632 166.476 123.48C165.284 122.265 163.197 122.417 162.153 123.48C161.557 124.088 161.258 124.999 161.258 125.758C158.873 125.151 156.04 125.758 154.251 127.884C153.208 129.099 152.612 130.466 152.313 131.984C149.183 131.681 146.052 132.744 143.666 135.325C139.641 139.577 139.939 146.411 144.114 150.511C144.114 150.511 144.114 150.511 144.263 150.511C143.816 150.815 143.517 150.967 143.219 151.422C141.43 153.397 141.43 156.586 143.517 158.408C143.965 158.864 144.561 159.167 145.306 159.471C151.121 147.018 158.426 135.173 167.073 123.936L166.924 124.088Z" fill="white" stroke="#07132B" stroke-linecap="round" stroke-linejoin="round"/>
<path d="M124.285 216.722C123.987 216.57 123.54 216.419 123.242 216.267C120.856 215.659 118.471 217.178 117.875 219.608C117.576 220.823 117.875 222.037 118.471 223.1C115.042 224.163 112.209 227.049 111.315 230.845C110.868 233.123 111.017 235.249 111.762 237.223C107.737 239.198 104.457 242.842 103.413 247.702C101.475 255.902 106.544 264.103 114.595 266.077C114.595 266.077 114.744 266.077 114.893 266.077C114.595 266.684 114.297 267.292 114.147 267.899C113.253 271.696 115.638 275.492 119.365 276.403C120.409 276.707 121.304 276.707 122.198 276.403C120.856 256.813 121.453 236.768 124.136 216.57L124.285 216.722Z" fill="white" stroke="#07132B" stroke-linecap="round" stroke-linejoin="round"/>
<path d="M134.87 336.084C134.572 336.084 134.274 336.084 134.125 336.084C132.485 336.54 131.59 338.362 132.038 340.033C132.336 340.944 132.932 341.551 133.529 341.855C131.739 343.677 131.143 346.411 131.889 349.144C132.336 350.663 133.23 351.878 134.423 352.789C132.634 355.371 131.889 358.863 132.932 362.052C134.572 367.671 140.535 370.86 146.052 369.19C146.052 369.19 146.052 369.19 146.201 369.19C146.201 369.645 146.201 370.101 146.35 370.557C147.095 373.138 149.779 374.657 152.462 373.898C153.059 373.746 153.655 373.29 154.251 372.986C146.648 361.597 140.088 349.296 134.87 336.084Z" fill="white" stroke="#07132B" stroke-linecap="round" stroke-linejoin="round"/>
<path d="M192.268 420.519C191.97 420.671 191.671 420.974 191.373 421.278C189.733 423.1 189.733 425.986 191.522 427.656C192.417 428.567 193.61 428.871 194.802 428.871C194.057 432.516 194.951 436.312 197.784 439.046C199.424 440.564 201.362 441.475 203.449 441.779C203.002 446.335 204.642 451.043 208.071 454.383C214.183 460.154 223.576 459.85 229.39 453.624C229.39 453.624 229.39 453.624 229.539 453.472C229.837 454.08 230.284 454.535 230.732 454.991C233.564 457.724 237.888 457.573 240.571 454.687C241.317 453.928 241.764 453.169 242.062 452.257C224.619 443.753 207.922 433.123 192.268 420.67V420.519Z" fill="white" stroke="#07132B" stroke-linecap="round" stroke-linejoin="round"/>
<path d="M299.161 472.91C299.161 473.214 299.012 473.366 298.863 473.67C298.416 475.34 299.46 477.011 301.249 477.466C302.143 477.618 302.889 477.466 303.634 477.011C304.379 479.44 306.318 481.415 309.001 482.174C310.492 482.478 311.983 482.326 313.325 481.87C314.666 484.755 317.201 487.033 320.481 487.793C326.146 489.159 331.811 485.515 333.153 479.744C333.153 479.744 333.153 479.744 333.153 479.592C333.6 479.744 334.047 480.048 334.495 480.048C337.029 480.655 339.713 478.985 340.309 476.403C340.458 475.644 340.458 475.036 340.309 474.429C326.891 475.492 313.026 475.036 299.161 473.062V472.91Z" fill="white" stroke="#07132B" stroke-linecap="round" stroke-linejoin="round"/>
<path d="M399.496 462.432C399.496 462.888 399.496 463.191 399.645 463.647C400.39 466.077 402.775 467.443 405.161 466.684C406.354 466.38 407.248 465.469 407.844 464.406C410.528 466.988 414.255 467.899 417.982 466.836C420.069 466.229 421.858 464.862 423.2 463.191C426.927 465.773 431.549 466.836 436.17 465.317C444.072 462.888 448.545 454.383 446.159 446.183C446.159 446.183 446.159 446.031 446.159 445.879C446.755 445.879 447.501 445.879 448.097 445.576C451.824 444.513 453.762 440.564 452.719 436.768C452.421 435.856 451.973 434.945 451.377 434.186C435.425 445.272 418.131 454.687 399.496 462.28V462.432Z" fill="white" stroke="#07132B" stroke-linecap="round" stroke-linejoin="round"/>
<path d="M495.954 393.184C495.954 393.488 496.252 393.639 496.401 393.791C497.593 395.006 499.681 394.854 500.724 393.791C501.321 393.184 501.619 392.273 501.619 391.513C504.004 392.121 506.837 391.513 508.626 389.387C509.669 388.172 510.266 386.806 510.564 385.287C513.695 385.591 516.825 384.528 519.211 381.946C523.236 377.694 522.938 370.86 518.763 366.76C518.763 366.76 518.763 366.76 518.614 366.76C519.062 366.456 519.36 366.305 519.658 365.849C521.447 363.875 521.447 360.686 519.36 358.863C518.913 358.408 518.316 358.104 517.571 357.8C511.757 370.253 504.451 382.098 495.804 393.336L495.954 393.184Z" fill="white" stroke="#07132B" stroke-linecap="round" stroke-linejoin="round"/>
<path d="M538.741 300.549C539.039 300.701 539.486 300.853 539.785 301.005C542.17 301.612 544.555 300.094 545.152 297.664C545.45 296.449 545.152 295.234 544.555 294.171C547.984 293.108 550.817 290.223 551.711 286.426C552.159 284.148 552.01 282.022 551.264 280.048C555.289 278.074 558.569 274.429 559.613 269.57C561.551 261.369 556.482 253.169 548.431 251.195C548.431 251.195 548.282 251.195 548.133 251.195C548.432 250.587 548.73 249.98 548.879 249.372C549.773 245.576 547.388 241.779 543.661 240.868C542.617 240.564 541.723 240.564 540.828 240.868C542.17 260.458 541.574 280.504 538.89 300.701L538.741 300.549Z" fill="white" stroke="#07132B" stroke-linecap="round" stroke-linejoin="round"/>
<path d="M470.758 96.7528C471.056 96.6009 471.355 96.2972 471.653 95.9935C473.293 94.1712 473.293 91.2858 471.504 89.6154C470.609 88.7042 469.416 88.4005 468.224 88.4005C468.969 84.7558 468.075 80.9593 465.242 78.2259C463.602 76.7073 461.664 75.7961 459.577 75.4924C460.024 70.9366 458.384 66.2289 454.955 62.888C448.843 57.1173 439.45 57.421 433.636 63.6473C433.636 63.6473 433.636 63.6473 433.487 63.7991C433.189 63.1917 432.742 62.7361 432.294 62.2805C429.462 59.5471 425.138 59.6989 422.455 62.5843C421.709 63.3436 421.262 64.1029 420.964 65.014C438.407 73.5182 455.104 84.1484 470.758 96.6009V96.7528Z" fill="white" stroke="#07132B" stroke-linecap="round" stroke-linejoin="round"/>
<path d="M450.052 395.917C517.996 326.708 517.996 214.498 450.052 145.289C382.108 76.0795 271.948 76.0795 204.004 145.289C136.06 214.498 136.06 326.708 204.004 395.917C271.948 465.126 382.108 465.126 450.052 395.917Z" fill="#3AF2AE"/>
<path d="M351.955 111.465C351.955 111.465 353.147 107.821 350.166 103.872C347.184 99.924 345.097 99.924 341.519 99.3165C337.941 98.7091 335.555 98.1016 330.635 97.7979C325.865 97.4942 321.541 97.4942 317.665 97.4942C313.789 97.4942 311.702 97.7979 309.614 97.1905C307.527 96.5831 307.825 95.3682 304.546 95.3682C301.266 95.3682 303.353 95.3682 302.906 95.3682C294.706 96.583 286.506 98.4054 278.307 100.835C213.604 120.121 168.133 174.335 156.206 237.509C157.101 244.191 160.381 257.707 163.064 267.122C164.555 272.589 165.897 276.689 166.493 276.993C168.133 278.056 164.704 263.933 163.81 259.225C162.915 254.669 161.722 250.417 162.915 251.936C164.108 253.455 170.071 267.274 170.369 273.045C170.668 278.815 167.984 280.638 171.562 285.042C175.14 289.294 184.234 298.861 185.725 297.646C187.216 296.431 186.62 292.179 188.707 294.609C190.794 297.038 190.794 301.291 194.67 302.202C198.546 303.113 200.037 303.113 201.528 304.935C203.019 306.757 206.001 312.528 208.982 314.199C211.964 315.869 214.051 316.325 216.735 316.021C219.418 315.717 220.611 313.895 222.102 315.414C223.593 316.932 222.4 319.969 223.593 322.399C224.785 324.829 227.767 326.044 227.767 328.17C227.767 330.296 219.716 339.863 224.487 350.189C229.258 360.668 242.825 370.691 242.825 370.691L256.988 377.069L263.249 388.762L265.336 398.937C265.336 398.937 272.791 419.438 279.201 425.208C285.463 430.979 293.961 438.42 298.731 440.243C303.502 442.065 308.124 442.369 304.397 439.635C300.818 436.902 299.328 435.079 297.837 433.864C296.346 432.65 296.942 430.524 295.153 429.309C293.364 428.094 291.575 429.005 292.47 426.575C293.364 424.145 293.961 424.449 295.451 422.93C296.942 421.412 297.837 418.982 297.837 418.982C297.837 418.982 296.346 415.034 296.644 413.515C296.942 411.997 298.433 414.73 300.52 411.693C302.608 408.656 304.695 404.1 304.695 404.1L306.186 400.759L307.676 395.596L313.938 394.077L320.2 391.344L324.374 385.877L325.865 380.106V369.324L327.057 367.198C327.057 367.198 336.152 362.946 337.046 357.023C337.941 351.253 336.45 348.519 336.45 348.519L330.188 346.697L319.901 343.963L312.745 342.445L307.378 340.622L301.713 338.496L299.029 336.067V331.511L295.153 326.651L292.172 325.133L287.401 323.31L282.928 322.703L279.052 320.88L274.281 316.021L268.616 312.376L261.46 309.947L258.777 310.25L253.708 310.554L247.744 308.428C247.744 308.428 245.955 306.606 244.763 306.302C243.57 305.998 242.079 305.998 242.079 305.998L238.799 310.554C238.799 310.554 239.097 305.694 236.414 306.302C233.73 306.909 228.363 310.554 228.363 310.554L227.767 315.11C227.767 315.11 223.593 311.161 222.4 311.161C221.207 311.161 219.716 314.806 216.138 312.984C212.56 311.161 211.368 308.124 211.069 306.606C210.771 305.087 211.666 300.228 211.069 298.101C210.473 295.975 207.193 295.975 207.193 295.975C207.193 295.975 205.404 295.975 204.212 295.672C203.019 295.368 200.932 294.761 200.932 294.761C200.932 294.761 203.019 284.282 201.23 281.852C199.441 279.423 197.354 279.726 196.757 281.549C196.161 283.371 194.968 285.497 193.179 286.712C191.39 287.927 189.899 289.445 188.11 288.534C186.321 287.623 180.954 282.46 180.954 274.715C180.954 266.97 185.725 258.162 185.725 258.162C185.725 258.162 191.092 253.606 195.117 253.91C199.143 254.214 199.292 255.125 200.783 253.606C202.273 252.088 205.553 252.392 206.746 252.999C207.939 253.606 211.219 255.429 211.517 257.555C211.815 259.681 212.113 264.844 214.2 267.122C216.287 269.248 217.48 264.085 217.48 264.085C217.48 264.085 214.498 258.314 214.498 255.581C214.498 252.847 214.2 251.632 214.797 250.721C215.393 249.81 229.556 242.521 230.749 238.42C231.941 234.472 231.941 232.65 231.941 229.916C231.941 227.183 240.29 223.234 242.526 222.323C244.614 221.412 242.825 216.856 247.297 213.819C251.77 210.782 266.231 205.922 262.653 207.441C259.075 208.96 258.478 211.693 265.038 208.96C271.598 206.226 280.692 205.922 274.132 203.189C267.573 200.455 260.267 201.063 260.566 198.937C260.864 196.811 264.74 192.559 270.554 191.951C275.921 191.344 278.903 188.914 278.754 190.888C278.754 190.888 278.754 191.192 278.754 191.344C278.158 194.077 274.58 197.722 276.667 198.633C278.754 199.544 290.233 201.367 290.83 198.633C291.426 195.9 283.674 195.596 285.165 191.04C286.655 186.484 289.339 184.358 287.848 182.232C286.357 180.106 281.587 178.588 281.587 178.588C281.587 178.588 274.729 172.209 274.43 170.995C274.132 169.78 272.641 164.313 271.747 163.098C270.852 161.883 269.958 164.92 266.082 164.313C262.206 163.705 263.398 160.364 262.206 158.542C261.013 156.72 256.242 153.682 251.919 155.201C247.744 156.72 247.446 157.631 245.657 161.275C243.868 164.92 246.552 166.439 245.061 168.868C243.57 171.298 239.694 173.121 238.799 175.55C237.905 177.98 239.097 180.41 237.308 182.84C235.519 185.269 230.451 186.181 230.451 181.928C230.451 177.676 231.345 175.854 229.258 174.943C227.171 174.032 224.487 174.335 221.804 171.298C219.12 168.261 219.418 162.035 219.418 162.035C219.418 162.035 228.811 154.138 231.494 152.771C234.178 151.556 238.054 153.682 240.141 153.379C242.228 153.075 245.21 152.164 244.912 149.43C244.614 146.697 242.825 145.178 246.701 142.445C250.577 139.711 252.962 134.548 253.559 132.878C254.155 131.359 258.628 127.411 262.653 131.966C266.529 136.522 265.336 140.774 265.336 140.774C265.336 140.774 255.646 141.382 256.689 144.115C257.584 146.849 263.249 146.545 263.845 148.975C264.442 151.405 262.653 153.834 268.616 153.531C274.58 153.227 277.263 152.316 275.772 149.279C274.281 146.241 272.791 141.686 274.58 142.597C276.369 143.508 277.859 146.545 281.736 144.115C285.612 141.686 283.525 136.219 280.841 133.941C278.158 131.815 275.772 129.385 274.58 125.74C273.387 122.096 271.598 121.184 268.318 120.881C265.038 120.577 260.566 119.97 257.435 121.488C254.453 123.007 253.26 123.31 252.664 124.525C252.068 125.74 250.875 127.259 249.981 127.563C249.086 127.866 245.806 129.081 245.806 129.081L241.632 126.651C241.632 126.651 240.439 128.17 238.054 128.474C235.668 128.777 235.37 124.525 235.37 124.525L250.726 116.629C250.726 116.629 256.391 116.325 258.478 117.236C260.566 118.147 266.529 118.755 269.362 117.54C272.045 116.325 271.747 117.236 273.834 115.414C275.921 113.591 280.096 111.162 280.096 111.162C280.096 111.162 282.779 109.036 285.761 106.91C288.743 104.783 291.724 103.872 295.75 103.265C299.626 102.657 301.415 103.265 298.433 104.176C295.451 105.087 292.172 106.606 290.681 108.428C289.19 110.25 286.208 111.465 289.488 112.073C292.768 112.68 296.346 112.073 300.073 115.11C303.651 118.147 304.844 118.147 302.757 122.399C300.669 126.651 297.986 132.574 300.073 134.7C302.16 136.826 301.266 134.093 300.968 140.774C300.669 147.456 301.266 150.342 303.651 154.897C306.036 159.453 310.211 158.542 311.702 160.061C313.193 161.579 315.28 162.187 317.367 161.275C319.454 160.364 322.138 152.771 322.138 152.771L329.89 142.9L341.668 138.041C341.668 138.041 348.526 135.611 353.147 133.485C357.62 131.359 360.303 129.84 357.918 124.981C355.533 120.121 353.147 112.984 353.147 112.984L351.955 111.465Z" fill="white"/>
<path d="M494.033 220.957C484.044 186.332 464.663 157.175 439.467 135.459C437.38 135.004 434.697 134.093 431.566 132.878C424.112 129.84 415.912 127.714 417.105 134.396C418.297 141.078 420.385 144.875 417.999 147.304C415.614 149.734 414.421 156.112 419.192 160.516C423.963 164.92 427.839 168.109 428.882 165.376C429.777 162.642 433.355 164.465 434.846 167.502C436.337 170.539 434.548 174.487 437.529 173.576C440.511 172.665 444.984 169.628 440.511 164.313C436.039 159.149 433.057 155.505 433.355 151.405C433.653 147.456 436.337 141.23 436.933 147.152C437.529 153.075 439.617 155.657 442.896 160.061C446.176 164.313 449.754 167.046 448.562 171.45C447.369 175.702 443.493 177.828 441.406 177.828C439.318 177.828 436.337 176.917 433.653 176.31C430.97 175.702 429.777 176.31 428.882 177.525C427.988 178.739 426.199 182.384 425.603 185.118C425.006 187.851 423.814 191.799 419.937 192.711C416.061 193.622 409.949 194.533 413.378 197.266C416.658 200 421.13 196.659 421.726 203.948C422.323 211.237 419.341 212.452 413.378 211.845C407.414 211.237 405.327 213.364 406.52 219.134C407.712 224.905 409.203 229.005 411.29 230.22C413.378 231.435 419.639 231.435 416.658 235.991C413.676 240.546 408.011 242.369 406.371 246.773C404.88 251.025 402.494 256.036 400.705 257.555C398.916 259.073 389.524 272.893 389.226 282.004C388.928 291.268 391.909 307.061 400.705 315.717C409.352 324.221 414.869 331.663 421.726 328.018C428.584 324.373 434.697 321.944 437.082 325.588C439.467 329.233 440.064 329.233 441.555 330.144C443.046 331.055 443.344 335.307 442.151 340.319C440.958 345.178 443.642 352.012 444.238 356.568C444.835 361.123 432.46 368.261 429.777 376.158C427.093 384.054 426.199 391.192 423.814 395.748C421.428 400.303 415.167 405.011 418.148 407.441C421.13 409.871 430.821 406.226 436.188 401.974C441.555 397.722 452.14 384.51 454.525 382.08C456.91 379.65 464.514 373.576 469.881 365.527C475.248 357.631 479.869 346.849 479.869 346.849C479.869 346.849 487.771 336.218 492.84 324.981C503.127 292.331 504.319 256.34 494.182 220.805L494.033 220.957Z" fill="white"/>
<path d="M407.563 187.699C408.756 189.521 412.93 190.736 416.21 189.521C419.49 188.307 422.77 186.484 421.875 184.054C420.981 181.625 416.806 180.714 416.806 180.714C416.806 180.714 410.545 178.284 409.054 173.424C407.563 168.565 404.283 161.731 401.003 165.528C397.723 169.172 403.09 172.513 403.09 173.728C403.09 174.943 398.32 173.121 397.127 176.765C395.934 180.41 396.829 184.054 399.214 184.358C401.6 184.662 404.283 184.966 405.178 182.536C406.072 180.106 404.879 177.069 406.668 178.284C408.457 179.499 410.545 179.195 409.65 181.625C408.756 184.054 406.37 185.877 407.563 187.699Z" fill="white"/>
<path d="M450.052 395.917C517.996 326.708 517.996 214.498 450.052 145.289C382.108 76.0795 271.948 76.0795 204.004 145.289C136.06 214.498 136.06 326.708 204.004 395.917C271.948 465.126 382.108 465.126 450.052 395.917Z" stroke="#07132B" stroke-linecap="round" stroke-linejoin="round"/>
<path d="M364.179 172.817C364.179 172.817 368.801 172.817 373.423 173.576C380.131 174.791 382.07 177.676 383.113 178.132C384.306 178.588 388.48 181.017 388.48 182.232C388.48 183.447 384.008 185.269 381.324 186.029C378.491 186.788 374.615 187.244 366.565 187.395H310.956C310.956 187.395 297.986 186.788 286.059 182.992C273.983 179.195 270.256 176.613 269.958 175.095C269.66 173.576 275.325 172.969 275.325 172.969L268.318 146.241H274.729L292.619 167.805L306.185 172.513L364.179 172.817Z" fill="white" stroke="#07132B" stroke-miterlimit="10"/>
<path d="M297.091 180.865C304.247 184.206 322.883 182.536 322.883 182.536H388.331C387.735 183.751 383.858 185.421 381.175 186.181C378.342 186.94 374.466 187.395 366.416 187.547H310.807C310.807 187.547 297.837 186.94 285.91 183.143C273.834 179.347 270.107 176.765 269.809 175.247C269.51 173.728 275.176 173.121 275.176 173.121L268.169 146.393H274.579L292.469 167.957L306.036 172.665H286.506C286.506 172.665 289.786 177.525 296.942 180.865H297.091Z" fill="#07132B"/>
<path d="M377.895 176.765L378.79 178.588L376.852 178.132V176.765H377.895Z" fill="#07132B"/>
<path d="M379.684 176.765L380.877 178.284C379.983 178.436 379.535 178.739 379.535 178.739H379.386L378.492 176.613H379.684V176.765Z" fill="#07132B"/>
<path d="M380.132 176.765H381.026C382.07 177.525 382.666 177.98 383.113 178.132C382.368 178.132 381.771 178.132 381.175 178.132L380.132 176.613V176.765Z" fill="#07132B"/>
<path d="M331.679 188.307L335.555 188.914C337.046 189.066 338.537 189.218 340.028 189.218H344.053C344.799 189.218 345.395 188.458 345.395 187.699V182.84C345.395 182.08 344.799 181.473 344.053 181.473H338.537C338.09 181.473 337.493 181.473 337.046 181.473L331.53 182.08C330.934 182.08 330.635 182.536 330.635 183.143V187.244C330.635 187.851 331.083 188.307 331.53 188.307H331.679Z" fill="white" stroke="#07132B" stroke-miterlimit="10"/>
<path d="M363.285 179.499C363.583 179.499 363.732 179.347 363.732 179.043V178.588C363.732 178.284 363.583 178.132 363.285 178.132C362.987 178.132 362.838 178.284 362.838 178.588V179.043C362.838 179.347 362.987 179.499 363.285 179.499Z" fill="#07132B"/>
<path d="M361.645 179.499C361.943 179.499 362.092 179.347 362.092 179.043V178.588C362.092 178.284 361.943 178.132 361.645 178.132C361.347 178.132 361.198 178.284 361.198 178.588V179.043C361.198 179.347 361.347 179.499 361.645 179.499Z" fill="#07132B"/>
<path d="M360.005 179.499C360.303 179.499 360.452 179.347 360.452 179.043V178.588C360.452 178.284 360.303 178.132 360.005 178.132C359.707 178.132 359.558 178.284 359.558 178.588V179.043C359.558 179.347 359.707 179.499 360.005 179.499Z" fill="#07132B"/>
<path d="M358.365 179.499C358.663 179.499 358.812 179.347 358.812 179.043V178.588C358.812 178.284 358.663 178.132 358.365 178.132C358.067 178.132 357.918 178.284 357.918 178.588V179.043C357.918 179.347 358.067 179.499 358.365 179.499Z" fill="#07132B"/>
<path d="M356.725 179.499C357.023 179.499 357.172 179.347 357.172 179.043V178.588C357.172 178.284 357.023 178.132 356.725 178.132C356.427 178.132 356.278 178.284 356.278 178.588V179.043C356.278 179.347 356.427 179.499 356.725 179.499Z" fill="#07132B"/>
<path d="M355.085 179.499C355.383 179.499 355.532 179.347 355.532 179.043V178.588C355.532 178.284 355.383 178.132 355.085 178.132C354.787 178.132 354.638 178.284 354.638 178.588V179.043C354.638 179.347 354.787 179.499 355.085 179.499Z" fill="#07132B"/>
<path d="M353.296 179.499C353.594 179.499 353.743 179.347 353.743 179.043V178.588C353.743 178.284 353.594 178.132 353.296 178.132C352.998 178.132 352.849 178.284 352.849 178.588V179.043C352.849 179.347 352.998 179.499 353.296 179.499Z" fill="#07132B"/>
<path d="M351.656 179.499C351.954 179.499 352.103 179.347 352.103 179.043V178.588C352.103 178.284 351.954 178.132 351.656 178.132C351.358 178.132 351.209 178.284 351.209 178.588V179.043C351.209 179.347 351.358 179.499 351.656 179.499Z" fill="#07132B"/>
<path d="M350.016 179.499C350.314 179.499 350.464 179.347 350.464 179.043V178.588C350.464 178.284 350.314 178.132 350.016 178.132C349.718 178.132 349.569 178.284 349.569 178.588V179.043C349.569 179.347 349.718 179.499 350.016 179.499Z" fill="#07132B"/>
<path d="M346.737 179.499C347.035 179.499 347.184 179.347 347.184 179.043V178.588C347.184 178.284 347.035 178.132 346.737 178.132C346.438 178.132 346.289 178.284 346.289 178.588V179.043C346.289 179.347 346.438 179.499 346.737 179.499Z" fill="#07132B"/>
<path d="M345.096 179.499C345.395 179.499 345.544 179.347 345.544 179.043V178.588C345.544 178.284 345.395 178.132 345.096 178.132C344.798 178.132 344.649 178.284 344.649 178.588V179.043C344.649 179.347 344.798 179.499 345.096 179.499Z" fill="#07132B"/>
<path d="M343.457 179.499C343.755 179.499 343.904 179.347 343.904 179.043V178.588C343.904 178.284 343.755 178.132 343.457 178.132C343.158 178.132 343.009 178.284 343.009 178.588V179.043C343.009 179.347 343.158 179.499 343.457 179.499Z" fill="#07132B"/>
<path d="M341.667 179.499C341.966 179.499 342.115 179.347 342.115 179.043V178.588C342.115 178.284 341.966 178.132 341.667 178.132C341.369 178.132 341.22 178.284 341.22 178.588V179.043C341.22 179.347 341.369 179.499 341.667 179.499Z" fill="#07132B"/>
<path d="M338.388 179.499C338.686 179.499 338.835 179.347 338.835 179.043V178.588C338.835 178.284 338.686 178.132 338.388 178.132C338.09 178.132 337.94 178.284 337.94 178.588V179.043C337.94 179.347 338.09 179.499 338.388 179.499Z" fill="#07132B"/>
<path d="M335.108 179.499C335.406 179.499 335.555 179.347 335.555 179.043V178.588C335.555 178.284 335.406 178.132 335.108 178.132C334.81 178.132 334.661 178.284 334.661 178.588V179.043C334.661 179.347 334.81 179.499 335.108 179.499Z" fill="#07132B"/>
<path d="M333.468 179.499C333.766 179.499 333.915 179.347 333.915 179.043V178.588C333.915 178.284 333.766 178.132 333.468 178.132C333.17 178.132 333.021 178.284 333.021 178.588V179.043C333.021 179.347 333.17 179.499 333.468 179.499Z" fill="#07132B"/>
<path d="M331.828 179.499C332.126 179.499 332.275 179.347 332.275 179.043V178.588C332.275 178.284 332.126 178.132 331.828 178.132C331.53 178.132 331.381 178.284 331.381 178.588V179.043C331.381 179.347 331.53 179.499 331.828 179.499Z" fill="#07132B"/>
<path d="M330.188 179.499C330.486 179.499 330.635 179.347 330.635 179.043V178.588C330.635 178.284 330.486 178.132 330.188 178.132C329.89 178.132 329.741 178.284 329.741 178.588V179.043C329.741 179.347 329.89 179.499 330.188 179.499Z" fill="#07132B"/>
<path d="M328.399 179.499C328.697 179.499 328.846 179.347 328.846 179.043V178.588C328.846 178.284 328.697 178.132 328.399 178.132C328.101 178.132 327.952 178.284 327.952 178.588V179.043C327.952 179.347 328.101 179.499 328.399 179.499Z" fill="#07132B"/>
<path d="M326.759 179.499C327.057 179.499 327.206 179.347 327.206 179.043V178.588C327.206 178.284 327.057 178.132 326.759 178.132C326.461 178.132 326.312 178.284 326.312 178.588V179.043C326.312 179.347 326.461 179.499 326.759 179.499Z" fill="#07132B"/>
<path d="M325.119 179.499C325.418 179.499 325.567 179.347 325.567 179.043V178.588C325.567 178.284 325.418 178.132 325.119 178.132C324.821 178.132 324.672 178.284 324.672 178.588V179.043C324.672 179.347 324.821 179.499 325.119 179.499Z" fill="#07132B"/>
<path d="M323.479 179.499C323.777 179.499 323.926 179.347 323.926 179.043V178.588C323.926 178.284 323.777 178.132 323.479 178.132C323.181 178.132 323.032 178.284 323.032 178.588V179.043C323.032 179.347 323.181 179.499 323.479 179.499Z" fill="#07132B"/>
<path d="M321.839 179.499C322.137 179.499 322.286 179.347 322.286 179.043V178.588C322.286 178.284 322.137 178.132 321.839 178.132C321.541 178.132 321.392 178.284 321.392 178.588V179.043C321.392 179.347 321.541 179.499 321.839 179.499Z" fill="#07132B"/>
<path d="M320.199 179.499C320.498 179.499 320.647 179.347 320.647 179.043V178.588C320.647 178.284 320.498 178.132 320.199 178.132C319.901 178.132 319.752 178.284 319.752 178.588V179.043C319.752 179.347 319.901 179.499 320.199 179.499Z" fill="#07132B"/>
<path d="M318.559 179.499C318.857 179.499 319.007 179.347 319.007 179.043V178.588C319.007 178.284 318.857 178.132 318.559 178.132C318.261 178.132 318.112 178.284 318.112 178.588V179.043C318.112 179.347 318.261 179.499 318.559 179.499Z" fill="#07132B"/>
<path d="M316.771 179.499C317.069 179.499 317.218 179.347 317.218 179.043V178.588C317.218 178.284 317.069 178.132 316.771 178.132C316.472 178.132 316.323 178.284 316.323 178.588V179.043C316.323 179.347 316.472 179.499 316.771 179.499Z" fill="#07132B"/>
<path d="M307.676 181.321C307.229 181.169 310.956 180.258 310.956 180.258L303.502 176.917L301.265 172.513H301.862L306.185 176.917L333.17 181.777C333.17 182.08 331.679 185.725 330.933 187.699H314.385L317.068 183.295H314.683C314.683 183.295 312.149 182.991 311.552 182.688C310.956 182.384 314.534 181.777 314.534 181.777C310.658 182.08 308.272 181.777 307.825 181.625L307.676 181.321Z" fill="#07132B"/>
<path d="M265.634 172.817C265.634 172.817 267.721 172.209 269.958 172.817C272.194 173.424 284.568 177.069 284.568 177.069C284.568 177.069 284.866 177.525 283.375 178.436C281.885 179.347 280.245 179.651 279.797 181.017C274.878 179.195 272.045 177.676 270.852 176.613C271.15 176.31 271.598 176.006 272.045 175.702C268.616 174.184 265.783 172.817 265.783 172.817H265.634Z" fill="#07132B"/>
</svg>
