<svg width="234" height="190" viewBox="0 0 234 190" fill="none" xmlns="http://www.w3.org/2000/svg">
<path d="M90.3108 174.013C91.2053 167.939 87.4781 154.575 87.4781 154.575C87.4781 154.575 79.5767 159.738 79.1294 160.194C73.9114 164.75 66.3081 176.747 69.2898 184.036C71.377 189.351 77.6386 190.87 82.2602 188.288C87.0309 185.707 89.5653 179.177 90.3108 174.013Z" fill="#3AF2AE"/>
<path d="M127.135 159.131C126.538 153.208 119.979 142.275 119.382 141.363C125.495 137.719 131.458 133.467 137.123 128.759C140.403 126.177 143.683 123.292 146.963 120.558C145.621 122.077 144.578 123.444 144.429 123.596C140.552 129.366 136.378 143.034 141.149 149.26C144.578 153.816 150.839 153.664 154.715 149.868C158.741 146.071 159.337 139.237 158.741 133.922C158.144 128.607 152.777 119.04 151.286 116.61C152.479 115.547 153.821 114.484 155.014 113.269C160.828 107.954 166.642 102.639 172.606 97.6276C174.693 95.8053 176.78 94.1348 178.867 92.4644C177.674 93.8311 176.78 94.8941 176.631 95.1979C172.755 100.969 168.58 114.636 173.351 120.862C176.78 125.418 183.042 125.266 186.918 121.47C190.943 117.673 191.539 110.839 190.943 105.524C190.347 100.513 185.427 91.7051 183.787 88.6679C186.023 86.9974 188.11 85.327 190.347 83.8083C191.838 82.7453 193.328 81.8342 194.819 80.923C196.31 80.0118 197.95 79.1007 199.441 78.1895C202.423 76.519 205.553 74.8486 208.535 73.33C210.622 72.267 212.56 71.2039 214.498 70.2928C212.411 71.9632 208.386 75.456 208.088 75.9116C203.317 81.0749 197.205 93.8311 200.932 100.817C203.615 105.828 209.877 106.587 214.349 103.55C218.822 100.361 220.462 93.6792 220.76 88.516C220.909 82.7453 216.437 71.2039 215.84 69.8372C219.12 68.1667 222.4 66.6481 225.382 65.1295C228.065 63.7628 230.749 62.6998 233.283 61.4849L232.09 56.7772C229.407 57.9921 226.574 59.5107 223.443 60.8775C220.164 62.5479 216.586 64.3703 212.858 66.3444C212.262 65.5851 208.982 61.0293 205.255 57.2328C208.386 52.2214 210.622 40.8319 210.92 39.4652C214.498 39.9207 218.076 40.3763 221.356 40.9838C223.593 41.2875 225.829 41.7431 227.916 42.0468L226.574 37.0354C225.083 36.8836 223.593 36.5798 221.953 36.428C218.226 35.9724 214.349 35.5168 210.175 35.0612C210.175 33.5426 209.43 21.242 206.746 16.0787C204.361 11.371 200.037 6.20779 194.67 5.29663C189.452 4.38547 184.085 7.87825 183.787 13.6489C183.34 21.5457 194.223 30.3536 200.634 32.9352C201.081 33.0871 205.255 34.3019 208.088 34.9094C206.448 34.7575 204.808 34.6057 203.168 34.4538C199.739 34.1501 196.459 33.8464 192.732 33.6945C190.943 33.6945 189.154 33.6945 187.365 33.5426C185.576 33.5426 183.638 33.5426 181.849 33.5426C177.525 33.5426 173.202 33.9982 168.729 34.4538C169.028 31.4166 169.773 20.6345 168.133 15.6231C166.493 10.6117 162.915 4.84105 157.846 3.01873C152.777 1.34827 146.963 3.92989 145.77 9.54872C144.13 17.2936 153.523 27.7719 159.635 31.2647C159.933 31.4166 164.555 33.5426 167.089 34.6056C164.406 34.9094 161.871 35.2131 159.188 35.5168C151.585 36.5798 143.832 37.9466 136.08 39.1614C133.694 39.617 131.309 39.9207 128.924 40.2245C128.924 39.1614 130.266 26.4052 128.327 20.7864C126.687 15.775 123.109 10.0043 118.041 8.18199C112.972 6.51153 107.157 9.09315 105.965 14.712C104.325 22.4568 113.717 32.9352 119.83 36.428C120.277 36.7317 126.837 39.617 128.626 40.3763C123.408 41.1356 118.19 41.8949 113.121 42.5024C105.965 43.2617 98.9577 43.5654 92.2489 43.4135C92.2489 42.958 93.5907 29.5943 91.6526 23.8236C90.0126 18.8122 86.4346 13.0415 81.3657 11.2192C76.2969 9.54873 70.4825 12.1304 69.2899 17.7492C67.6499 25.494 77.0423 35.9724 83.1547 39.4652C83.602 39.7689 90.7581 42.958 92.0998 43.4135C91.6526 43.4135 91.2053 43.4135 90.9071 43.4135C83.602 43.1098 76.595 41.8949 70.1844 40.5282C66.4573 39.7689 62.8792 38.7059 59.4503 37.6428C59.8975 35.2131 62.1338 23.9754 60.9411 18.6603C59.7484 13.4971 56.9158 7.27082 51.996 4.99292C47.0762 2.71501 41.1129 4.68921 39.3238 10.1562C36.7894 17.5973 45.1381 29.1387 50.6543 33.2389C50.9524 33.3908 54.2323 35.5168 56.7667 36.8835C55.2759 36.428 53.636 35.8205 52.1451 35.3649C46.629 33.3908 41.5601 31.4166 37.2366 29.4424C34.7022 28.3794 32.4659 27.3164 30.5278 26.2533C29.7824 23.5199 26.6516 12.8896 23.2227 8.78942C19.9428 4.68919 14.5758 0.588975 9.05963 0.892696C3.69258 1.19642 -0.779962 5.75221 0.114547 11.371C1.30722 19.1159 13.8303 25.494 20.6882 26.5571C21.2846 26.5571 30.6769 27.0126 30.6769 27.0126C30.6769 27.0126 30.6769 27.0127 30.6769 26.8608C32.615 27.9238 34.8513 28.9868 37.0876 30.0498C41.411 32.024 46.3308 34.3019 51.847 36.2761C57.3631 38.4022 63.4756 40.3763 70.0353 42.0468C76.595 43.7173 83.602 45.084 91.0562 45.5396C91.0562 45.5396 91.2053 45.5396 91.3544 45.5396C89.1181 46.147 83.0057 47.8175 82.5584 47.9693C76.1478 50.7028 65.2646 59.6626 65.8609 67.5593C66.3082 73.1781 71.6752 76.6709 76.8932 75.7598C82.2602 74.8486 86.5837 69.5335 88.82 64.8258C91.5035 59.5107 91.9507 46.6026 92.0998 45.6914C99.1068 45.9952 106.412 45.6914 113.717 45.2359C117.891 44.9321 122.066 44.3247 126.389 43.8691C124.451 44.4766 122.811 44.9321 122.513 44.9321C116.102 47.6656 105.219 56.6254 105.816 64.5221C106.263 70.1409 111.63 73.6337 116.848 72.7226C122.215 71.8114 126.538 66.4963 128.775 61.7886C131.16 57.081 131.756 46.147 131.905 43.1098C133.545 42.958 135.185 42.6542 136.825 42.5024C144.578 41.4394 152.33 40.2245 159.933 39.3133C162.617 39.0096 165.3 38.8577 167.984 38.554C166.344 39.0096 164.853 39.4652 164.704 39.617C158.293 42.3505 147.41 51.3103 148.007 59.207C148.454 64.8258 153.821 68.3186 159.039 67.4074C164.406 66.4963 168.729 61.1812 170.966 56.4735C173.202 51.9177 173.947 41.8949 174.096 38.4021C176.78 38.4021 179.613 38.0984 182.147 38.0984C183.936 38.0984 185.725 38.0984 187.514 38.0984C189.303 38.0984 191.092 38.2503 192.881 38.4021C196.31 38.7059 199.739 39.0096 203.019 39.4652C205.255 39.7689 207.491 40.0726 209.728 40.2245C207.044 40.5282 201.826 41.1356 201.379 41.2875C196.906 42.3505 190.048 45.9952 185.874 50.551C185.278 50.7028 184.532 50.8547 183.936 51.1584C179.016 53.4363 176.482 59.3589 179.314 64.2184C183.191 71.0521 197.055 72.267 203.913 70.9002C204.361 70.9002 208.535 69.3816 211.219 68.4705C209.728 69.2298 208.237 69.9891 206.746 70.9002C203.764 72.5707 200.783 74.2411 197.652 76.0635C196.161 76.9746 194.67 78.0376 193.03 78.9488C191.539 79.86 190.049 81.0749 188.409 82.1379C184.831 84.7195 181.402 87.453 177.973 90.1865C176.631 87.453 171.413 78.0377 167.239 74.8486C163.213 71.6595 157.101 68.6223 151.734 70.1409C146.516 71.5077 143.236 76.9746 145.174 82.2897C148.007 89.579 161.573 93.0718 168.431 92.6162C168.878 92.6162 173.798 91.7051 176.482 91.2495C174.395 92.92 172.456 94.5904 170.369 96.4127C164.555 101.576 158.89 107.043 153.075 112.51C151.286 114.18 149.497 115.851 147.708 117.369C147.261 116.458 141.298 105.069 136.676 101.424C132.651 98.2351 126.538 95.1979 121.171 96.7165C115.953 98.0832 112.674 103.55 114.612 108.865C117.444 116.155 131.011 119.647 137.869 119.192C138.316 119.192 145.472 117.977 147.261 117.521C143.385 121.166 139.509 124.659 135.483 128C129.967 132.555 124.302 136.808 118.488 140.604C118.19 140.148 112.226 128.303 107.456 124.659C103.43 121.47 97.3178 118.432 91.9507 119.951C86.7328 121.318 83.4529 126.785 85.391 132.1C88.2236 139.389 101.79 142.882 108.648 142.426C109.245 142.426 116.848 141.06 118.19 140.756C117.891 140.908 117.444 141.211 117.146 141.515C110.885 145.312 104.474 148.349 98.2123 150.779C94.6343 152.145 91.0562 153.36 87.6273 154.423C86.7328 152.145 82.4093 141.515 78.5331 137.719C74.806 134.074 69.1408 130.429 63.6246 131.341C58.4067 132.252 54.3814 137.263 55.8722 142.73C57.8103 150.323 70.9298 155.183 77.9368 155.638C78.384 155.638 82.1111 155.486 84.9438 155.183C83.3038 155.638 81.813 156.094 80.3221 156.549C74.6569 158.068 69.4389 159.131 64.6682 160.042C61.9847 160.498 59.5994 160.953 57.3631 161.257C55.2759 159.435 46.9272 152.297 41.8583 150.779C36.9385 149.26 30.2297 148.804 25.7571 152.145C21.4337 155.334 20.241 161.713 23.9681 165.965C29.1861 171.887 43.0509 169.913 49.3125 167.028C49.9088 166.724 57.9594 161.864 57.8103 161.713C60.0466 161.409 62.2829 161.105 64.9664 160.65C69.7371 159.89 74.9551 158.979 80.7694 157.612C86.4346 156.246 92.6962 154.575 98.9577 152.145C105.368 149.868 111.928 146.982 118.339 143.186C118.339 143.186 118.339 143.186 118.488 143.186C116.997 144.856 112.823 149.716 112.524 150.171C108.648 155.942 104.474 169.609 109.245 175.836C112.674 180.391 118.935 180.24 122.811 176.443C126.837 172.647 127.433 165.813 126.837 160.498L127.135 159.131Z" fill="#3AF2AE"/>
<path d="M57.8105 37.7947C57.8105 37.7947 48.4182 37.7947 47.8218 37.7947C40.9639 38.7059 28.1426 44.4766 26.6518 52.2215C25.6082 57.8403 29.7826 62.5479 35.1496 63.0035C40.6658 63.4591 46.0328 59.5107 49.6108 55.5624C53.6361 51.0066 57.8105 37.7947 57.8105 37.7947Z" fill="#3AF2AE"/>
</svg>
