<svg width="46" height="46" viewBox="0 0 46 46" fill="none" xmlns="http://www.w3.org/2000/svg">
<g clip-path="url(#clip0_1587_99)">
<circle cx="23" cy="23" r="23" fill="#5CFFE9"/>
<path d="M19 30H16V20H19V30ZM30 30H27V24.658C27 23.266 26.504 22.573 25.521 22.573C24.742 22.573 24.248 22.961 24 23.738V30H21C21 30 21.04 21 21 20H23.368L23.551 22H23.613C24.228 21 25.211 20.322 26.559 20.322C27.584 20.322 28.413 20.607 29.046 21.323C29.683 22.04 30 23.002 30 24.353V30Z" fill="#07132B"/>
<path d="M17.5 19C18.356 19 19.05 18.3284 19.05 17.5C19.05 16.6716 18.356 16 17.5 16C16.6439 16 15.95 16.6716 15.95 17.5C15.95 18.3284 16.6439 19 17.5 19Z" fill="#07132B"/>
</g>
<defs>
<clipPath id="clip0_1587_99">
<rect width="46" height="46" fill="white"/>
</clipPath>
</defs>
</svg>
