<svg width="486" height="444" viewBox="0 0 486 444" fill="none" xmlns="http://www.w3.org/2000/svg">
<path d="M200.692 30.2202C200.692 29.7646 200.096 29.309 199.648 29.4609C199.052 29.4609 198.605 29.9165 198.754 30.5239C199.052 34.0167 199.35 37.6613 199.648 41.1541C200.245 41.1541 200.99 41.1541 201.586 41.0022C201.288 37.5095 200.99 33.8648 200.692 30.372V30.2202Z" fill="#07132B"/>
<path d="M296.702 29.7646C296.106 29.7646 295.659 30.0683 295.659 30.5239C295.361 34.0167 295.063 37.6613 294.764 41.1541C295.361 41.1541 296.106 41.1541 296.702 41.306C297.001 37.8132 297.299 34.1685 297.597 30.6758C297.597 30.2202 297.299 29.7646 296.702 29.6127V29.7646Z" fill="#07132B"/>
<path d="M333.228 86.864C333.824 82.1563 334.57 77.4487 335.166 72.741C335.166 72.741 335.464 72.741 335.613 72.741C335.613 72.2854 335.763 71.8299 335.912 71.3743C335.763 71.3743 335.613 71.3743 335.464 71.3743C336.359 65.148 337.253 59.0736 337.999 52.8473C338.297 52.8473 338.595 52.8473 339.042 52.9992C339.042 52.5436 339.191 52.088 339.341 51.6325C339.042 51.6325 338.595 51.6325 338.297 51.4806C339.341 43.8876 340.384 36.2946 341.428 28.7016C342.024 28.7016 342.62 28.8534 343.217 29.0053C343.217 28.5497 343.366 28.0941 343.515 27.6386C343.068 27.6386 342.62 27.6385 342.173 27.4867C342.322 26.5755 342.471 25.6644 342.62 24.7532C342.62 24.7532 342.769 24.7532 342.919 24.7532C342.919 24.6013 342.919 24.2976 342.919 24.1458C342.919 24.1458 342.77 24.1458 342.62 24.1458C343.068 23.3865 343.217 22.6272 342.919 21.716C342.62 20.9567 341.875 20.3493 341.13 19.8937C340.831 19.7418 340.533 19.59 340.235 19.2862C340.086 19.2862 339.937 18.9825 339.639 18.8307C339.639 18.8307 339.639 18.8307 339.639 18.6788H339.788C339.788 18.6788 339.788 18.6788 339.788 18.5269C339.937 18.5269 340.086 18.5269 340.086 18.2232C340.086 18.0714 340.086 17.9195 339.788 17.9195C339.788 17.9195 339.788 17.9195 339.788 17.7676H339.937C339.937 17.7676 339.937 17.7676 339.937 17.6158H339.788C339.788 17.6158 339.788 17.6158 339.788 17.7676C339.788 17.7676 339.788 17.7676 339.788 17.9195C339.639 17.9195 339.49 17.9195 339.49 18.2232C339.49 18.3751 339.49 18.5269 339.788 18.5269H339.639C339.639 18.5269 339.639 18.5269 339.639 18.6788C339.639 18.6788 339.639 18.6788 339.639 18.8307C339.639 18.8307 339.341 18.8307 339.191 18.8307C338.744 18.8307 338.446 19.1344 337.999 19.1344C337.104 19.1344 336.359 19.7418 335.912 20.1974C335.315 20.8048 335.166 21.716 335.464 22.4753C335.464 22.4753 335.315 22.4753 335.166 22.4753C335.166 22.6272 335.166 22.9309 335.166 23.0827C335.166 23.0827 335.315 23.0827 335.464 23.0827C335.464 23.9939 335.166 24.9051 335.017 25.8162C334.57 25.8162 334.123 25.8162 333.824 25.6644C333.824 26.12 333.824 26.5755 333.675 27.0311C334.272 27.0311 334.868 27.183 335.464 27.3348C334.123 34.776 332.632 42.369 331.29 49.8101C330.992 49.8101 330.545 49.8101 330.246 49.6583C330.246 50.1139 330.246 50.5694 330.097 51.025C330.395 51.025 330.694 51.025 331.141 51.1769C329.948 57.2513 328.905 63.4775 327.861 69.552C327.712 69.552 327.563 69.552 327.414 69.552C327.414 70.0075 327.414 70.4631 327.265 70.9187C327.265 70.9187 327.563 70.9187 327.712 70.9187C326.817 75.6264 326.072 80.334 325.177 85.0417C319.81 84.1305 314.294 83.3712 308.778 82.7638C309.076 79.271 309.375 75.7782 309.673 72.2854C309.673 72.2854 309.822 72.2854 309.971 72.2854C309.971 71.9817 309.971 71.5261 309.971 71.2224H309.673C310.12 66.6666 310.567 62.1108 310.865 57.4031C311.164 57.4031 311.313 57.4031 311.611 57.4031C311.611 57.0994 311.611 56.6438 311.611 56.3401C311.313 56.3401 311.164 56.3401 310.865 56.3401C311.313 50.7213 311.909 45.1025 312.356 39.4836C312.803 39.4836 313.251 39.4836 313.698 39.4836C313.698 39.1799 313.698 38.7243 313.698 38.4206C313.4 38.4206 313.102 38.4206 312.803 38.4206C312.803 37.8132 312.953 37.0539 313.102 36.4464C313.102 36.4464 313.102 36.4464 313.251 36.4464C313.251 36.2946 313.251 36.1427 313.251 35.9909C313.251 35.9909 313.251 35.9909 313.102 35.9909C313.4 35.3834 313.549 34.776 313.102 34.1685C312.803 33.5611 312.356 33.1055 311.76 32.9537C311.462 32.9537 311.313 32.6499 311.164 32.6499C311.164 32.6499 310.865 32.4981 310.716 32.3462C310.716 32.1944 310.716 32.1944 310.716 32.0425C310.716 32.0425 311.014 32.0425 311.014 31.8906C311.014 31.8906 311.014 31.7388 310.865 31.5869C310.865 31.5869 310.865 31.4351 310.865 31.2832C310.865 31.2832 310.865 31.4351 310.865 31.5869C310.865 31.5869 310.567 31.5869 310.567 31.7388C310.567 31.7388 310.567 31.8906 310.716 32.0425C310.716 32.0425 310.567 32.0425 310.418 32.0425C310.12 32.0425 309.822 32.1944 309.524 32.3462C308.927 32.3462 308.331 32.8018 308.033 33.2574C307.585 33.713 307.585 34.4723 307.735 35.0797C307.735 35.0797 307.735 35.0797 307.586 35.0797C307.586 35.2316 307.586 35.3834 307.586 35.5353C307.586 35.5353 307.585 35.5353 307.735 35.5353C307.735 36.1427 307.735 36.902 307.586 37.5095C307.287 37.5095 306.989 37.5095 306.691 37.5095C306.691 37.8132 306.691 38.2688 306.691 38.5725C307.138 38.5725 307.585 38.5725 308.033 38.5725C307.287 44.1913 306.542 49.8101 305.796 55.429C305.498 55.429 305.349 55.429 305.051 55.429C305.051 55.7327 305.051 56.1883 305.051 56.492C305.349 56.492 305.498 56.492 305.796 56.492C305.2 61.0478 304.604 65.6036 303.858 70.1594H303.56C303.56 70.4631 303.56 70.9187 303.56 71.2224C303.56 71.2224 303.709 71.2224 303.858 71.2224C303.411 74.7152 302.964 78.208 302.517 81.5489C299.684 81.2452 296.851 80.9415 293.87 80.6377C295.062 67.2741 296.255 53.9104 297.448 40.5467C293.273 40.0911 289.099 39.7874 285.074 39.4836C285.372 39.4836 285.819 39.4836 286.117 39.4836C286.415 35.839 286.565 32.3462 286.863 28.7016C286.863 28.246 286.415 27.7904 285.968 27.7904C285.372 27.7904 284.925 28.0941 284.925 28.7016C284.626 32.3462 284.477 35.839 284.179 39.4836C284.477 39.4836 284.626 39.4836 284.925 39.4836C284.477 39.4836 283.881 39.4836 283.434 39.4836C281.943 39.4836 280.303 39.3318 278.812 39.1799L279.11 33.8648C279.259 33.8648 279.558 33.8648 279.707 33.8648C279.707 33.4092 279.707 32.9537 279.707 32.4981C279.558 32.4981 279.408 32.4981 279.11 32.4981C280.005 30.8276 280.005 29.0053 279.11 27.3348C278.365 25.8162 276.874 24.6013 275.234 23.9939C274.936 23.9939 274.638 23.6902 274.34 23.5383C273.892 23.2346 273.296 23.0827 272.849 22.779C272.551 22.6272 272.252 22.4753 272.103 22.3234C272.103 22.3234 272.103 22.0197 272.103 21.8679C272.252 21.8679 272.402 21.8679 272.402 21.5641C272.402 21.4123 272.401 21.2604 272.103 21.2604C272.103 21.2604 272.103 21.2604 272.103 21.1086C272.401 21.1086 272.849 20.8048 272.849 20.5011C272.849 20.1974 272.551 19.8937 272.252 19.7418C272.252 19.7418 272.252 19.4381 272.252 19.2862C272.401 19.2862 272.551 19.2862 272.551 18.9825C272.551 18.8307 272.551 18.6788 272.252 18.6788C272.252 18.3751 272.252 18.2232 272.252 17.9195C272.252 17.9195 272.103 17.9195 271.954 17.9195C271.954 18.2232 271.954 18.3751 271.954 18.6788C271.805 18.6788 271.656 18.6788 271.656 18.9825C271.656 19.1344 271.656 19.2862 271.954 19.2862C271.954 19.2862 271.954 19.59 271.954 19.7418C271.507 19.7418 271.209 20.0455 271.209 20.3493C271.209 20.653 271.507 20.9567 271.805 21.1086C271.805 21.1086 271.805 21.1086 271.805 21.2604C271.656 21.2604 271.507 21.2604 271.507 21.5641C271.507 21.716 271.507 21.8679 271.805 21.8679C271.805 22.0197 271.805 22.1716 271.805 22.3234C271.358 22.4753 270.911 22.779 270.612 22.9309C270.165 23.0827 269.867 23.2346 269.42 23.3865C269.122 23.3865 268.823 23.5383 268.525 23.6902C267.482 23.9939 266.587 24.4495 265.693 25.0569C265.693 22.9309 265.395 20.9567 264.202 18.9825C262.413 15.9453 259.282 13.5156 255.406 12.3007C254.809 12.1488 254.213 11.8451 253.617 11.6932C252.722 11.3895 251.977 10.9339 251.231 10.6302C250.337 10.1746 249.592 9.71905 248.697 9.41533V8.50417C248.995 8.50417 249.293 8.20045 249.293 7.74487C249.293 7.44115 248.995 7.13743 248.697 6.98557C248.697 6.98557 248.697 6.68185 248.697 6.52999C249.442 6.52999 250.039 5.92255 250.039 5.16325C250.039 4.40394 249.442 3.94836 248.697 3.7965C248.697 3.49278 248.697 3.34092 248.697 3.0372C248.995 3.0372 249.293 2.73348 249.293 2.2779C249.293 1.97418 248.995 1.67046 248.697 1.5186C248.697 1.06302 248.697 0.455581 248.697 0C248.548 0 248.399 0 248.25 0C248.25 0.455581 248.25 1.06302 248.25 1.5186C247.952 1.5186 247.653 1.82232 247.653 2.2779C247.653 2.73348 247.952 2.88534 248.25 3.0372C248.25 3.34092 248.25 3.49278 248.25 3.7965C247.504 3.7965 246.908 4.40394 246.908 5.16325C246.908 5.92255 247.504 6.37813 248.25 6.52999C248.25 6.52999 248.25 6.83371 248.25 6.98557C247.952 6.98557 247.653 7.28929 247.653 7.74487C247.653 8.04859 247.952 8.35231 248.25 8.50417C248.25 8.80789 248.25 9.11161 248.25 9.41533C247.653 9.71905 247.057 10.0228 246.61 10.3265C245.864 10.6302 245.268 11.0858 244.523 11.3895C244.224 11.3895 244.075 11.5414 243.777 11.6932C243.032 11.997 242.435 12.3007 241.69 12.6044C238.112 13.8193 235.279 16.0972 233.639 18.9825C232.596 20.653 232.149 22.6272 232.149 24.4495C231.552 24.1458 231.105 23.842 230.509 23.6902C230.211 23.6902 229.912 23.5383 229.465 23.3865C229.018 23.2346 228.422 22.9309 227.974 22.779C227.676 22.779 227.378 22.4753 227.08 22.3234C227.08 22.3234 227.08 22.0197 227.08 21.8679C227.229 21.8679 227.378 21.716 227.378 21.5641C227.378 21.4123 227.378 21.2604 227.08 21.2604C227.08 21.2604 227.08 21.2604 227.08 21.1086C227.378 21.1086 227.676 20.8048 227.676 20.3493C227.676 20.0455 227.378 19.7418 226.931 19.7418C226.931 19.7418 226.931 19.4381 226.931 19.2862C227.08 19.2862 227.229 19.1344 227.229 18.9825C227.229 18.8307 227.229 18.6788 226.931 18.6788C226.931 18.3751 226.931 18.2232 226.931 17.9195C226.931 17.9195 226.782 17.9195 226.632 17.9195C226.632 18.2232 226.632 18.3751 226.632 18.6788C226.483 18.6788 226.334 18.8307 226.334 18.9825C226.334 19.1344 226.334 19.2862 226.632 19.2862C226.632 19.2862 226.632 19.59 226.632 19.7418C226.334 19.7418 226.036 20.0455 226.036 20.5011C226.036 20.8048 226.334 21.1086 226.782 21.1086C226.782 21.1086 226.782 21.1086 226.782 21.2604C226.632 21.2604 226.483 21.4123 226.483 21.5641C226.483 21.716 226.483 21.8679 226.782 21.8679C226.782 22.0197 226.782 22.1716 226.782 22.3234C226.334 22.4753 226.036 22.779 225.589 22.9309C225.142 23.0827 224.843 23.3865 224.396 23.5383C224.098 23.5383 223.8 23.842 223.502 23.842C221.713 24.4495 220.222 25.6644 219.327 27.3348C218.433 29.0053 218.433 30.8276 219.327 32.4981C219.178 32.4981 219.029 32.4981 218.88 32.4981C218.88 32.9537 218.88 33.4092 218.88 33.8648C219.029 33.8648 219.327 33.8648 219.476 33.8648C219.476 35.6871 219.626 37.3576 219.775 39.1799C217.986 39.1799 216.346 39.3318 214.557 39.4836C214.109 39.4836 213.513 39.4836 213.066 39.4836C213.364 39.4836 213.513 39.4836 213.811 39.4836C213.662 35.839 213.364 32.3462 213.215 28.7016C213.215 28.246 212.768 27.7904 212.171 27.7904C211.575 27.7904 211.128 28.246 211.277 28.7016C211.575 32.3462 211.724 35.839 212.022 39.4836C212.32 39.4836 212.768 39.4836 213.066 39.4836C208.891 39.7874 204.717 40.0911 200.692 40.3948C201.884 53.7585 202.928 67.1222 204.121 80.4859C204.568 80.4859 205.015 80.4859 205.462 80.4859C202.779 80.7896 200.095 80.9415 197.412 81.2452C196.965 77.7524 196.517 74.2596 196.07 70.9187C196.07 70.9187 196.219 70.9187 196.368 70.9187C196.368 70.615 196.368 70.1594 196.368 69.8557H196.07C195.474 65.2999 194.877 60.7441 194.281 56.1883C194.579 56.1883 194.728 56.1883 195.027 56.1883C195.027 55.8845 195.027 55.429 195.027 55.1252C194.728 55.1252 194.579 55.1252 194.281 55.1252C193.536 49.5064 192.939 43.8876 192.194 38.2688C192.641 38.2688 193.088 38.2688 193.536 38.2688C193.536 37.965 193.536 37.5095 193.536 37.2057C193.237 37.2057 192.939 37.2057 192.641 37.2057C192.641 36.5983 192.641 35.839 192.492 35.2316C192.492 35.2316 192.492 35.2316 192.641 35.2316C192.641 35.0797 192.641 34.9278 192.641 34.776C192.641 34.776 192.641 34.776 192.492 34.776C192.641 34.1685 192.492 33.5611 192.194 32.9537C191.896 32.4981 191.299 32.1944 190.703 32.0425C190.405 32.0425 190.107 31.8906 189.809 31.7388C189.809 31.7388 189.659 31.7388 189.51 31.7388C189.51 31.7388 189.659 31.7388 189.659 31.4351C189.659 31.4351 189.659 31.2832 189.361 31.2832C189.361 31.2832 189.361 31.1313 189.361 30.9795C189.361 30.9795 189.361 31.1313 189.361 31.2832C189.361 31.2832 189.212 31.2832 189.212 31.5869C189.212 31.5869 189.212 31.7388 189.51 31.7388C189.51 31.7388 189.51 31.7388 189.51 31.8906C189.51 31.8906 189.212 32.0425 189.063 32.1944C188.914 32.1944 188.616 32.4981 188.318 32.4981C187.721 32.8018 187.274 33.2574 186.976 33.713C186.678 34.3204 186.678 34.9278 186.976 35.5353C186.976 35.5353 186.976 35.5353 186.827 35.5353C186.827 35.6871 186.827 35.839 186.827 35.9909C186.827 35.9909 186.827 35.9909 186.976 35.9909C186.976 36.5983 186.976 37.3576 187.125 37.965C186.827 37.965 186.529 37.965 186.231 37.965C186.231 38.2688 186.231 38.7243 186.231 39.0281C186.678 39.0281 187.125 39.0281 187.572 39.0281C188.02 44.6469 188.467 50.2657 188.914 55.8845C188.616 55.8845 188.467 55.8845 188.169 55.8845C188.169 56.1883 188.169 56.6438 188.169 56.9476C188.467 56.9476 188.616 56.9476 188.914 56.9476C189.212 61.5034 189.659 66.211 189.958 70.7668H189.659C189.659 71.0706 189.659 71.5261 189.659 71.8299C189.659 71.8299 189.809 71.8299 189.958 71.8299C190.256 75.3226 190.554 78.8154 190.852 82.3082C185.336 82.9156 179.969 83.675 174.453 84.4343C173.707 79.7266 172.813 75.0189 172.067 70.3113C172.067 70.3113 172.366 70.3113 172.515 70.3113C172.515 69.8557 172.515 69.4001 172.366 68.9445C172.217 68.9445 172.067 68.9445 171.918 68.9445C170.875 62.8701 169.831 56.6438 168.788 50.5694C169.086 50.5694 169.384 50.5694 169.831 50.4176C169.831 49.962 169.831 49.5064 169.682 49.0508C169.384 49.0508 168.937 49.0508 168.639 49.2027C167.297 41.6097 165.955 34.1685 164.613 26.5755C165.21 26.5755 165.806 26.4237 166.402 26.2718C166.402 25.8162 166.402 25.3606 166.253 24.9051C165.806 24.9051 165.359 24.9051 164.911 25.0569C164.911 24.1458 164.613 23.2346 164.464 22.3234C164.464 22.3234 164.613 22.3234 164.762 22.3234C164.762 22.1716 164.762 21.8679 164.762 21.716C164.762 21.716 164.613 21.716 164.464 21.716C164.762 20.9567 164.464 20.0455 164.017 19.4381C163.57 18.8307 162.824 18.3751 161.93 18.2232C161.482 18.2232 161.035 18.0714 160.737 17.9195C160.737 17.9195 160.439 17.9195 160.29 17.9195C160.29 17.9195 160.29 17.9195 160.29 17.7676C160.29 17.7676 160.29 17.7676 160.29 17.6158C160.29 17.6158 160.29 17.6158 160.141 17.6158C160.29 17.6158 160.439 17.4639 160.439 17.3121C160.439 17.1602 160.29 17.0083 160.141 17.0083C160.141 17.0083 160.141 17.0083 160.141 16.8565C160.141 16.8565 160.141 16.8565 160.141 16.7046C160.141 16.7046 160.141 16.7046 159.992 16.7046C159.992 16.7046 159.992 16.7046 159.992 16.8565C159.992 16.8565 159.992 16.8565 160.141 16.8565C160.141 16.8565 160.141 16.8565 160.141 17.0083C159.992 17.0083 159.843 17.1602 159.843 17.3121C159.843 17.4639 159.992 17.6158 160.141 17.6158C160.141 17.6158 160.141 17.6158 160.141 17.7676C160.141 17.7676 160.141 17.7676 160.29 17.7676C160.29 17.7676 160.29 17.7676 160.29 17.9195C160.141 17.9195 159.992 18.2232 159.693 18.2232C159.395 18.3751 159.097 18.6788 158.799 18.8307C157.904 19.2862 157.308 19.8937 157.01 20.653C156.712 21.4123 156.712 22.3234 157.308 23.0827C157.308 23.0827 157.159 23.0827 157.01 23.0827C157.01 23.2346 157.01 23.5383 157.01 23.6902C157.01 23.6902 157.159 23.6902 157.308 23.6902C157.308 24.6013 157.606 25.5125 157.755 26.4237C157.308 26.4237 156.861 26.4237 156.414 26.5755C156.414 27.0311 156.563 27.4867 156.712 27.9423C157.308 27.9423 157.904 27.7904 158.501 27.6386C159.395 35.2316 160.439 42.8246 161.482 50.4176C161.184 50.4176 160.737 50.4176 160.439 50.5694C160.439 51.025 160.588 51.4806 160.737 51.9362C161.035 51.9362 161.333 51.9362 161.781 51.7843C162.526 58.0106 163.421 64.085 164.166 70.3113C164.017 70.3113 163.868 70.3113 163.719 70.3113C163.719 70.7668 163.868 71.2224 164.017 71.678C164.017 71.678 164.315 71.678 164.464 71.678C165.06 76.3857 165.657 81.0933 166.253 85.801C165.21 85.9529 164.166 86.1047 163.122 86.2566C163.868 90.3568 163.122 111.465 163.719 115.566C220.371 105.847 278.216 105.998 334.719 116.477C335.464 112.377 337.701 91.268 338.297 87.3196C337.104 87.1677 336.061 86.864 334.868 86.7122L333.228 86.864ZM202.481 51.1769C202.332 48.899 203.226 46.9248 204.866 46.1655C205.164 45.8618 205.462 45.558 205.91 45.2543C206.357 45.558 206.804 45.8618 207.102 46.0136C208.742 46.4692 210.084 48.2915 210.233 50.5694C210.531 54.0622 210.68 57.7069 210.979 61.1996C208.444 61.3515 205.91 61.5034 203.524 61.8071C203.226 58.3143 202.928 54.6697 202.63 51.1769H202.481ZM204.866 80.9415C204.568 77.4487 204.27 73.804 203.972 70.3113C203.823 68.0334 204.717 66.0592 206.208 65.2999C206.506 64.9961 206.804 64.6924 207.102 64.3887C207.55 64.6924 207.848 64.9962 208.295 65.148C209.935 65.6036 211.128 67.4259 211.277 69.7038C211.575 73.1966 211.724 76.8412 212.022 80.334C209.637 80.4859 207.251 80.6377 204.866 80.9415ZM231.254 34.0167C232.149 34.0167 233.043 34.6241 233.043 35.5353C233.043 37.6613 233.043 39.6355 233.192 41.7615C232 41.7615 230.956 41.7615 229.763 41.7615C229.763 39.6355 229.763 37.6613 229.614 35.5353C229.614 34.6241 230.36 34.0167 231.254 33.8648V34.0167ZM226.185 34.1685C227.08 34.1685 227.974 34.776 227.974 35.6871C227.974 37.8132 227.974 39.7874 228.123 41.9134C226.931 41.9134 225.887 41.9134 224.694 41.9134C224.694 39.7874 224.545 37.8132 224.396 35.6871C224.396 34.776 225.142 34.1685 226.036 34.0167L226.185 34.1685ZM221.265 34.3204C222.16 34.3204 223.054 34.9278 223.054 35.839C223.054 37.965 223.204 39.9392 223.353 42.0653C222.16 42.0653 221.116 42.0653 219.924 42.2171C219.924 40.0911 219.775 38.1169 219.625 35.9909C219.625 35.0797 220.371 34.3204 221.265 34.3204ZM217.836 50.1139C217.836 47.836 219.327 45.7099 221.564 45.1025C222.011 44.7988 222.607 44.495 223.054 44.1913C223.651 44.495 224.247 44.7988 224.843 45.1025C227.229 45.5581 229.018 47.3804 229.018 49.8101C229.018 53.3029 229.316 56.9476 229.316 60.4403C225.589 60.4403 221.862 60.7441 218.135 60.8959C217.986 57.4031 217.687 53.7585 217.538 50.2657L217.836 50.1139ZM219.327 79.8784C219.178 76.3857 218.88 72.741 218.731 69.2482C218.731 66.9703 220.073 64.9961 222.309 64.2368C222.756 63.9331 223.204 63.6294 223.8 63.3257C224.396 63.6294 224.993 63.9331 225.589 64.2368C227.974 64.6924 229.614 66.6666 229.763 68.9445C229.763 72.4373 230.061 76.0819 230.061 79.5747C226.483 79.5747 222.905 79.8784 219.327 80.0303V79.8784ZM237.814 79.271C237.814 72.5892 237.516 65.9073 237.516 59.2255C237.516 54.9734 240.497 51.1769 244.821 50.1139C245.715 49.5064 246.759 49.0508 247.653 48.4434C248.697 49.0508 249.89 49.6583 250.933 50.2657C255.406 51.3287 258.537 55.1252 258.388 59.3773C258.388 66.0592 258.089 72.741 257.94 79.4229C251.231 79.271 244.523 79.271 237.814 79.4229V79.271ZM263.605 41.7615C263.605 39.6355 263.605 37.6613 263.755 35.5353C263.755 34.6241 264.5 34.0167 265.544 34.0167C266.438 34.0167 267.184 34.776 267.184 35.6871C267.184 37.8132 267.034 39.7874 266.885 41.9134C265.693 41.9134 264.649 41.9134 263.456 41.9134L263.605 41.7615ZM275.532 34.4723C276.427 34.4723 277.172 35.2316 277.172 36.1427C277.172 38.2688 277.023 40.2429 276.874 42.369C275.681 42.369 274.638 42.369 273.445 42.2171C273.445 40.0911 273.594 38.1169 273.743 35.9909C273.743 35.0797 274.638 34.4723 275.532 34.4723ZM270.612 34.3204C271.507 34.3204 272.252 35.0797 272.252 35.9909C272.252 38.1169 272.103 40.0911 271.954 42.2171C270.762 42.2171 269.718 42.2171 268.525 42.2171C268.525 40.0911 268.674 38.1169 268.823 35.9909C268.823 35.0797 269.718 34.4723 270.612 34.4723V34.3204ZM267.184 49.6583C267.184 47.3804 268.973 45.4062 271.507 45.1025C272.103 44.7988 272.7 44.495 273.296 44.1913C273.743 44.495 274.34 44.7988 274.787 45.1025C277.172 45.7099 278.663 47.836 278.514 50.1139C278.365 53.6066 278.067 57.2513 277.918 60.7441C274.19 60.5922 270.463 60.2885 266.885 60.1366C266.885 56.6438 267.184 52.9992 267.333 49.5064L267.184 49.6583ZM266.14 79.5747C266.14 76.0819 266.438 72.4373 266.587 68.9445C266.587 66.6666 268.376 64.6924 270.762 64.3887C271.358 64.085 271.954 63.7813 272.551 63.4775C272.998 63.7813 273.445 64.085 274.041 64.3887C276.278 64.9962 277.769 67.1222 277.619 69.4001C277.47 72.8929 277.172 76.5375 277.023 80.0303C273.445 79.8784 269.867 79.5747 266.289 79.5747H266.14ZM286.266 50.8732C286.415 48.5953 287.757 46.6211 289.397 46.3174C289.844 46.0136 290.292 45.7099 290.59 45.558C290.888 45.8618 291.186 46.1655 291.484 46.4692C292.975 47.0767 294.019 49.2027 293.87 51.4806C293.572 54.9734 293.273 58.618 292.975 62.1108C290.441 61.959 288.055 61.6552 285.521 61.5034C285.819 58.0106 285.968 54.5178 286.266 50.8732ZM284.03 80.4859C284.328 76.9931 284.477 73.5003 284.776 69.8557C284.925 67.5778 286.117 65.6036 287.757 65.2999C288.204 64.9961 288.503 64.6924 288.95 64.5406C289.248 64.8443 289.546 65.148 289.844 65.4517C291.335 66.0592 292.23 68.1852 292.081 70.4631C291.782 73.9559 291.484 77.6005 291.186 81.0933C288.801 80.9415 286.415 80.6377 284.03 80.4859Z" fill="#07132B"/>
<path d="M472.026 28.0941L470.982 27.0311L472.622 25.2088C472.92 24.9051 472.92 24.6013 472.622 24.2976L472.324 23.9939C472.324 23.9939 472.026 23.842 471.877 23.842C471.728 23.842 471.579 23.842 471.43 23.9939L469.79 25.8162L468.746 24.7532C468.746 24.7532 468.448 24.6013 468.299 24.6013C468.15 24.6013 468.001 24.6013 467.852 24.7532L467.553 25.0569C467.255 25.3606 467.255 25.6644 467.553 25.9681L468.597 27.0311L467.404 28.246C464.274 30.6757 455.925 37.0539 444.893 42.369C444.594 42.0653 444.296 42.0653 443.998 42.369L442.507 44.0394C442.507 44.0394 442.358 44.3432 442.358 44.495V44.7987L435.202 52.3918C434.904 52.2399 434.606 52.3918 434.308 52.3918L432.817 54.0622C432.817 54.0622 432.668 54.3659 432.668 54.5178C429.984 56.1883 423.872 59.0736 419.995 60.5922L418.505 59.0736C418.206 58.7699 417.908 58.7699 417.61 59.0736L414.777 62.1108C414.777 62.1108 414.628 62.4145 414.628 62.5664C414.628 62.7182 414.628 62.8701 414.777 63.022L415.97 64.085L410.901 69.5519L409.709 68.4889C409.41 68.1852 409.112 68.1852 408.814 68.4889L389.433 89.2938C389.135 89.5975 389.135 89.9012 389.433 90.2049L390.626 91.268L336.359 149.734C336.061 150.038 336.061 150.342 336.359 150.645L355.144 168.868C355.144 168.868 355.144 168.868 355.442 168.868C355.442 168.868 355.591 168.868 355.74 168.868C355.889 168.868 356.038 168.868 356.187 168.717L410.454 110.25L411.647 111.313C411.647 111.313 411.945 111.465 412.094 111.465C412.243 111.465 412.392 111.465 412.541 111.313L431.922 90.5087C432.22 90.2049 432.22 89.9012 431.922 89.5975L430.729 88.5345L435.798 83.0675L436.991 84.1305C436.991 84.1305 436.991 84.1305 437.289 84.1305C437.587 84.1305 437.737 84.1305 438.035 83.9787L440.867 80.9415C440.867 80.9415 441.016 80.6377 441.016 80.4859C441.016 80.334 441.016 80.1822 440.867 80.0303L439.526 78.8154C440.718 74.8671 443.253 68.3371 444.744 65.6036C444.893 65.6036 445.042 65.6036 445.191 65.4517L446.682 63.7813C446.98 63.4775 446.98 63.1738 446.682 62.8701L453.838 55.1252C453.838 55.2771 454.136 55.429 454.285 55.429C454.434 55.429 454.583 55.429 454.732 55.2771L456.223 53.6066C456.223 53.6066 456.372 53.3029 456.372 53.1511C456.372 52.9992 456.372 52.8473 456.223 52.6955H456.074C460.397 42.0653 465.764 33.5611 468.597 29.4609L470.088 27.7904L471.131 28.8534C471.131 28.8534 471.43 29.0053 471.579 29.0053C471.728 29.0053 471.877 29.0053 472.026 28.8534L472.324 28.5497C472.622 28.246 472.622 27.9423 472.324 27.6385L472.026 28.0941Z" fill="#07132B"/>
<path d="M417.163 96.5831C420.592 92.9385 420.443 87.1678 416.865 83.675C413.287 80.1822 407.621 80.3341 404.192 83.9787C400.763 87.6233 400.913 93.394 404.491 96.8868C408.069 100.38 413.734 100.228 417.163 96.5831Z" fill="white"/>
<path d="M414.777 94.3052C416.865 92.0273 416.865 88.3826 414.628 86.1047C412.392 83.9787 408.814 83.9787 406.578 86.2566C404.491 88.5345 404.491 92.1791 406.727 94.457C408.963 96.5831 412.541 96.5831 414.777 94.3052Z" stroke="#07132B" stroke-width="0.5" stroke-linecap="round" stroke-linejoin="round"/>
<path d="M416.716 83.6749L414.479 86.2565" stroke="#07132B" stroke-width="0.5" stroke-linecap="round" stroke-linejoin="round"/>
<path d="M406.727 94.6089L404.491 97.0386" stroke="#07132B" stroke-width="0.5" stroke-linecap="round" stroke-linejoin="round"/>
<path d="M417.163 96.5831L414.778 94.3052" stroke="#07132B" stroke-width="0.5" stroke-linecap="round" stroke-linejoin="round"/>
<path d="M406.578 86.4085L404.192 84.1306" stroke="#07132B" stroke-width="0.5" stroke-linecap="round" stroke-linejoin="round"/>
<path d="M419.399 88.3826L416.119 89.1419" stroke="#07132B" stroke-width="0.5" stroke-linecap="round" stroke-linejoin="round"/>
<path d="M405.087 91.5717L401.956 92.331" stroke="#07132B" stroke-width="0.5" stroke-linecap="round" stroke-linejoin="round"/>
<path d="M419.25 92.6347L416.119 91.8754" stroke="#07132B" stroke-width="0.5" stroke-linecap="round" stroke-linejoin="round"/>
<path d="M405.087 88.9901L401.956 88.0789" stroke="#07132B" stroke-width="0.5" stroke-linecap="round" stroke-linejoin="round"/>
<path d="M414.33 98.7091L412.989 95.6719" stroke="#07132B" stroke-width="0.5" stroke-linecap="round" stroke-linejoin="round"/>
<path d="M408.367 85.0417L407.025 82.0045" stroke="#07132B" stroke-width="0.5" stroke-linecap="round" stroke-linejoin="round"/>
<path d="M409.56 99.4684L409.857 96.1275" stroke="#07132B" stroke-width="0.5" stroke-linecap="round" stroke-linejoin="round"/>
<path d="M411.348 84.5861L411.795 81.397" stroke="#07132B" stroke-width="0.5" stroke-linecap="round" stroke-linejoin="round"/>
<path d="M411.051 92.331L408.963 82.1564" stroke="#07132B" stroke-width="0.5" stroke-linecap="round" stroke-linejoin="round"/>
<path d="M409.261 90.9643L413.585 89.4457" stroke="#07132B" stroke-width="0.5" stroke-linecap="round" stroke-linejoin="round"/>
<path d="M128.088 114.806L126.448 113.288L127.044 112.68L125.106 110.858L123.317 112.68C113.776 109.036 103.34 102.202 99.0161 99.1647C99.0161 99.1647 98.8671 99.1647 98.718 99.0129C98.718 99.0129 98.5689 99.0129 98.4198 98.861L99.0161 98.2536L97.078 96.4313L96.3326 97.3424C87.5366 92.7866 62.4904 70.9187 50.2654 59.2255C48.3273 57.4032 46.6874 55.7327 45.4947 54.5178C45.1966 54.2141 45.0475 54.0623 44.7493 53.7585C44.7493 53.7585 44.7493 53.7585 44.7493 53.6067L41.4694 50.2658L39.6804 48.5953L38.0405 47.0767L36.4006 48.899L34.7606 47.3804L33.8661 48.2916L27.3064 42.0653L26.8591 42.5209L33.4189 48.7472L32.5243 49.6583L34.1643 51.1769L32.5243 52.9992L34.1643 54.5178L36.2515 56.492L39.3823 59.5292C39.3823 59.5292 39.3822 59.5292 39.5313 59.5292C39.5313 59.5292 39.5313 59.5292 39.6804 59.6811C41.0222 60.7441 42.8112 62.4146 45.0475 64.5406C57.2724 76.2338 80.2315 100.38 85.5985 108.884L84.704 109.795L86.6421 111.617L87.2384 110.858C87.2384 110.858 87.2384 111.01 87.3875 111.162C87.3875 111.162 87.3875 111.314 87.5366 111.465C90.6674 115.717 98.1216 125.74 102.296 135.307L100.507 137.282L102.445 139.104L103.041 138.497L104.681 140.015L108.259 148.519L116.459 167.806L125.404 158.086L120.633 148.367C118.248 143.66 119.143 137.889 122.721 134.093C126.15 130.448 131.218 129.081 135.989 130.752L147.021 134.7L155.967 124.981L127.939 114.958L128.088 114.806ZM92.3073 105.391L93.3509 104.328C100.954 111.162 111.987 118.755 115.415 121.033L110.198 126.651C107.663 123.159 99.4634 112.528 92.3073 105.239V105.391Z" fill="#07132B"/>
<path d="M393.906 350.949C368.71 383.143 338.893 411.541 305.946 435.231C323.538 438.876 342.024 442.672 360.063 443.28C362.747 437.054 360.809 428.397 361.554 421.564C365.579 421.867 369.754 422.019 373.779 422.323C394.8 423.082 391.669 425.968 390.775 404.707C390.775 404.707 390.775 404.555 390.775 404.404C390.328 397.722 389.88 391.04 389.135 384.358C399.124 383.599 410.454 384.662 419.995 381.928C419.548 364.161 414.33 345.786 410.603 328.625C405.236 336.218 399.72 343.811 394.055 351.101L393.906 350.949Z" fill="#07132B"/>
<path d="M485.295 169.02C485.593 169.02 469.194 133.941 442.507 137.585C442.806 138.345 443.104 139.104 443.253 139.863C422.381 147.76 401.36 155.505 380.339 163.25C380.637 163.857 380.786 164.465 381.085 165.224C384.663 163.857 388.241 162.642 391.819 161.275C392.564 160.972 393.309 161.275 393.608 162.187C393.906 162.946 393.608 163.857 392.713 164.009C389.135 165.224 385.557 166.591 381.979 167.805C382.277 168.717 382.575 169.628 382.874 170.539C386.899 169.172 390.924 167.805 394.949 166.287C395.695 165.983 396.44 166.439 396.738 167.198C397.037 167.957 396.738 168.868 395.844 169.02C391.819 170.387 387.793 171.754 383.619 173.121C384.066 174.639 384.663 176.31 385.11 177.828C389.135 176.461 393.309 175.095 397.335 173.88C398.08 173.576 398.975 174.184 399.124 174.943C399.422 175.854 399.124 176.765 398.229 176.917C394.204 178.284 390.03 179.499 386.004 180.865C386.75 183.143 387.346 185.421 388.092 187.699C392.117 186.484 396.291 185.269 400.316 183.903C401.062 183.599 401.956 184.358 402.255 185.573C402.553 186.788 402.255 187.851 401.509 188.003C397.335 189.218 393.309 190.433 389.135 191.648C389.582 193.166 390.03 194.685 390.328 196.203C394.502 194.988 398.527 193.925 402.702 192.711C405.087 191.951 407.622 193.622 408.367 196.203C409.112 198.785 407.622 201.367 405.087 202.126C400.913 203.189 396.738 204.252 392.713 205.315C393.16 206.834 393.459 208.352 393.906 209.871C398.08 208.808 402.255 207.745 406.429 206.834C408.814 206.226 411.349 207.897 411.945 210.478C412.541 213.06 411.051 215.641 408.516 216.249C404.342 217.16 400.167 218.071 395.993 219.134C396.291 220.653 396.589 222.171 396.888 223.69C401.062 222.779 405.236 221.868 409.411 220.957C411.945 220.349 414.33 222.171 414.778 224.753C415.225 227.335 413.734 229.916 411.2 230.372C407.025 231.131 402.851 232.042 398.677 232.802C399.124 235.231 399.571 237.661 400.018 239.939C403.298 239.332 406.727 238.724 410.007 238.117C413.138 237.509 416.269 239.787 416.716 243.28C417.312 246.621 415.076 249.81 411.796 250.266C408.516 250.721 405.087 251.329 401.807 251.784C401.956 252.847 402.106 253.91 402.255 254.973C405.982 254.518 409.709 253.91 413.436 253.455C415.97 253.151 418.356 254.973 418.803 257.707C419.101 260.44 417.312 262.87 414.778 263.326C411.051 263.781 407.323 264.237 403.596 264.692C403.895 267.729 404.193 270.767 404.491 273.804C408.367 273.348 412.094 273.045 415.97 272.589C417.461 272.437 418.803 273.652 418.952 275.171C418.952 276.689 418.058 278.208 416.567 278.208C412.69 278.512 408.963 278.815 405.087 279.271C405.087 280.03 405.087 280.789 405.236 281.397C409.112 281.093 412.84 280.789 416.716 280.486C418.207 280.486 419.548 281.549 419.548 283.067C419.548 284.586 418.505 285.953 417.014 286.105C413.138 286.408 409.262 286.712 405.534 286.864C405.534 287.927 405.534 289.142 405.684 290.205C409.858 289.901 413.883 289.749 418.058 289.445C419.101 289.445 419.996 290.205 419.996 291.268C419.996 292.331 419.25 293.242 418.207 293.394C414.032 293.698 410.007 293.849 405.833 294.153C405.833 294.912 405.833 295.672 405.833 296.583C410.007 296.431 414.032 296.127 418.207 295.975C419.25 295.975 420.145 296.735 420.145 297.798C420.145 298.861 419.399 299.772 418.356 299.924C414.181 300.076 410.156 300.228 405.982 300.379C405.982 300.987 405.982 301.746 405.982 302.354C409.858 302.354 413.883 302.05 417.759 301.898C418.356 301.898 418.952 302.354 418.952 303.113C418.952 303.72 418.505 304.328 417.908 304.328C414.032 304.328 410.007 304.631 406.131 304.783C406.131 305.391 406.131 306.15 406.131 306.758C409.709 306.758 413.287 306.606 416.865 306.454C417.461 306.454 417.908 306.909 418.058 307.517C418.058 308.124 417.61 308.732 417.014 308.732C413.436 308.732 409.858 308.884 406.28 309.035C406.28 309.491 406.28 310.098 406.28 310.554C409.858 310.554 413.436 310.554 417.014 310.402C417.61 310.402 418.058 310.858 418.058 311.617C418.058 312.224 417.61 312.832 417.014 312.832C413.436 312.832 409.858 312.832 406.28 312.984C406.28 313.591 406.28 314.047 406.28 314.654C418.952 314.654 431.475 314.351 444.147 314.199C443.7 314.654 463.827 289.142 453.092 240.395C451.9 240.546 450.707 240.85 449.514 241.002C449.216 239.028 448.918 236.902 448.62 234.928C449.962 234.624 451.303 234.472 452.645 234.168C452.198 231.587 451.751 229.157 451.303 226.575C449.962 226.879 448.62 227.031 447.278 227.335C446.533 222.779 445.638 218.223 444.744 213.819C445.042 213.819 445.489 213.667 445.787 213.515C446.682 213.364 447.576 213.06 448.471 212.908C448.471 212.908 448.62 212.908 448.769 212.908C448.173 209.871 447.427 206.682 446.831 203.644C452.049 199.848 457.267 196.051 462.336 192.103C463.081 191.496 463.827 190.888 464.721 190.281C466.063 189.37 467.256 188.307 468.597 187.395C468.001 184.814 467.256 182.232 466.659 179.802C470.834 178.588 474.859 177.525 479.033 176.31C480.226 174.639 481.568 172.969 482.76 171.298C483.357 170.387 484.102 169.628 484.698 168.717L485.295 169.02ZM421.337 152.164C424.319 151.101 427.152 150.038 430.133 148.975C431.177 148.671 432.37 148.823 433.264 149.43C433.562 149.582 433.861 149.886 434.159 150.038C430.432 151.405 426.704 152.771 422.977 154.138C422.381 153.531 421.785 152.771 421.337 152.316V152.164ZM425.661 157.479C429.239 156.264 432.668 155.049 436.246 153.682C436.842 153.531 437.439 153.682 438.035 154.138C438.333 154.442 438.631 154.594 438.929 154.897C440.122 155.96 439.824 157.935 438.631 158.39C435.5 159.605 432.37 160.972 429.239 162.187C428.046 160.516 427.003 158.846 425.81 157.479H425.661ZM431.624 165.983C435.351 164.768 439.228 163.553 442.955 162.187C443.7 161.883 444.595 162.187 445.191 163.098C446.085 164.313 445.638 166.135 444.446 166.591C440.868 167.654 437.439 168.717 433.861 169.78C433.115 168.413 432.37 167.046 431.624 165.831V165.983ZM435.65 173.424C439.526 172.209 443.402 170.995 447.278 169.78C448.322 169.476 449.664 169.78 450.409 170.995C450.409 170.995 450.409 170.995 450.409 171.146C451.9 173.121 451.154 175.854 449.216 176.461C445.638 177.525 442.06 178.588 438.482 179.651C437.588 177.373 436.544 175.398 435.5 173.424H435.65ZM403.894 160.972C403.447 160.364 402.851 159.757 402.255 159.149C404.491 158.39 406.727 157.479 408.963 156.72C410.305 156.264 411.796 156.72 412.691 157.783C409.709 158.846 406.727 159.909 403.745 160.972H403.894ZM407.323 167.198C406.876 166.287 406.28 165.224 405.833 164.313C408.814 163.25 411.796 162.187 414.778 161.275C415.374 161.124 415.97 161.275 416.418 161.731C417.163 162.642 416.865 164.161 415.821 164.465C412.989 165.376 410.305 166.287 407.473 167.35L407.323 167.198ZM411.349 175.55C410.603 173.88 409.709 172.209 408.963 170.387C412.094 169.324 415.225 168.261 418.207 167.35C419.25 167.046 420.592 167.35 421.188 168.565C422.083 170.235 421.486 172.209 419.847 172.817C417.014 173.728 414.181 174.639 411.349 175.55ZM415.523 185.877C414.629 183.447 413.734 181.169 412.84 178.739C416.119 177.676 419.548 176.613 422.828 175.55C424.17 175.095 425.661 175.854 426.406 177.069C426.555 177.373 426.704 177.676 426.854 177.828C427.897 179.802 427.152 182.232 425.214 182.84C421.934 183.751 418.803 184.662 415.523 185.725V185.877ZM420.145 198.633C419.25 195.9 418.356 193.318 417.461 190.584C420.89 189.673 424.319 188.61 427.748 187.699C429.388 187.244 431.326 188.307 431.922 190.129C431.922 190.433 432.071 190.736 432.221 191.04C432.966 193.166 431.922 195.596 429.984 196.051C426.704 196.963 423.425 197.722 420.145 198.633ZM424.021 213.06C423.275 209.871 422.381 206.682 421.487 203.493C425.065 202.581 428.643 201.67 432.37 200.759C434.159 200.304 436.097 201.518 436.842 203.493C436.991 204.1 437.289 204.707 437.439 205.315C438.184 207.745 436.991 210.174 434.755 210.782C431.177 211.541 427.599 212.452 424.021 213.212V213.06ZM438.184 261.959C438.333 263.477 437.439 264.844 435.948 264.996C434.01 265.3 431.922 265.452 429.984 265.755C429.835 263.933 429.537 262.111 429.388 260.288C431.326 259.985 433.413 259.833 435.351 259.529C436.693 259.377 438.035 260.44 438.184 261.959ZM428.046 232.194C427.599 229.764 427.152 227.183 426.704 224.753C428.792 224.297 430.879 223.842 432.966 223.538C434.606 223.234 436.097 224.297 436.544 226.12C436.544 226.575 436.693 227.031 436.842 227.487C436.991 229.157 436.097 230.827 434.457 231.131C432.37 231.587 430.283 231.89 428.195 232.346L428.046 232.194ZM429.835 246.773C429.388 243.432 428.792 240.243 428.344 236.902C430.879 236.446 433.413 235.991 435.948 235.535C436.693 235.535 437.439 235.535 438.035 235.839C438.482 238.724 438.929 241.61 439.377 244.495C438.78 244.95 438.184 245.406 437.439 245.406C434.904 245.862 432.37 246.165 429.835 246.621V246.773ZM426.108 276.537C425.959 274.715 425.81 272.893 425.661 271.07C429.239 270.767 432.817 270.311 436.395 269.855C437.737 269.855 439.078 270.767 439.228 272.437C439.228 273.956 438.333 275.322 436.991 275.474C433.413 275.778 429.835 276.082 426.257 276.537H426.108ZM426.406 280.03C429.835 279.726 433.264 279.423 436.693 279.119C438.035 279.119 439.078 280.182 439.078 281.701C439.078 282.915 438.184 283.827 437.14 283.827C433.711 284.13 430.283 284.434 426.704 284.586C426.704 283.067 426.555 281.549 426.406 280.03ZM427.003 288.231C430.432 287.927 433.711 287.775 437.14 287.471C438.184 287.471 439.078 288.382 439.078 289.597C439.078 290.66 438.333 291.42 437.289 291.572C433.861 291.723 430.581 292.027 427.152 292.179C427.152 290.812 427.152 289.445 426.854 288.231H427.003ZM437.588 298.405C434.308 298.557 430.879 298.709 427.599 298.861C427.599 297.95 427.599 296.887 427.599 295.975C430.879 295.824 434.308 295.672 437.588 295.368C438.482 295.368 439.228 296.279 438.929 297.19C438.929 297.798 438.333 298.253 437.737 298.405H437.588ZM444.744 294.153C445.638 294.153 446.384 294.912 446.384 295.824C446.384 296.735 445.787 297.646 444.893 297.646C443.998 297.646 443.253 296.887 443.253 295.975C443.253 295.064 443.849 294.153 444.744 294.153ZM447.725 271.83C447.875 273.5 446.831 275.019 445.34 275.171C443.849 275.171 442.507 274.108 442.358 272.437C442.209 270.767 443.253 269.248 444.744 269.096C446.235 268.944 447.576 270.159 447.725 271.83ZM454.285 190.433C450.707 191.344 447.278 192.255 443.7 193.166C442.806 190.281 441.762 187.547 440.718 184.966C444.446 183.903 448.173 182.84 451.751 181.777C453.242 181.321 454.881 182.232 455.776 183.903C455.925 184.206 456.074 184.51 456.223 184.966C457.267 187.244 456.223 189.825 454.136 190.281L454.285 190.433Z" fill="#07132B"/>
<path opacity="0.1" d="M453.838 240.698C450.409 241.306 446.831 241.913 443.402 242.369C443.7 244.647 443.998 246.773 444.296 249.051C438.78 251.177 433.413 253.151 427.897 255.277C428.493 259.529 428.941 263.933 429.388 268.185C421.188 270.311 412.988 272.285 404.789 274.108C408.665 273.652 412.392 273.348 416.268 272.893C417.759 272.741 419.101 273.956 419.25 275.474C419.25 276.993 418.356 278.512 416.865 278.512C412.988 278.815 409.261 279.271 405.385 279.575C405.385 280.334 405.385 281.093 405.534 281.701C409.41 281.397 413.138 281.093 417.014 280.789C418.505 280.789 419.846 281.852 419.846 283.371C419.846 284.89 418.803 286.256 417.312 286.408C413.436 286.712 409.56 287.016 405.832 287.168C405.832 288.231 405.832 289.445 405.982 290.509C410.156 290.205 414.181 290.053 418.356 289.749C419.399 289.749 420.294 290.508 420.294 291.572C420.294 292.635 419.548 293.546 418.505 293.698C414.33 294.001 410.305 294.153 406.131 294.457C406.131 295.216 406.131 295.975 406.131 296.887C410.305 296.735 414.33 296.431 418.505 296.279C419.548 296.279 420.443 297.038 420.443 298.102C420.443 299.165 419.697 300.076 418.654 300.228C414.479 300.379 410.454 300.531 406.28 300.683C406.28 301.291 406.28 302.05 406.28 302.657C410.156 302.657 414.181 302.354 418.057 302.202C418.654 302.202 419.25 302.657 419.25 303.417C419.25 304.024 418.803 304.631 418.206 304.631C414.33 304.631 410.305 304.935 406.429 305.087C406.429 305.695 406.429 306.454 406.429 307.061C410.007 307.061 413.585 306.909 417.163 306.758C417.759 306.758 418.206 307.213 418.356 307.821C418.356 308.428 417.908 309.035 417.312 309.035C413.734 309.035 410.156 309.187 406.578 309.339C406.578 309.795 406.578 310.402 406.578 310.858C410.156 310.858 413.734 310.858 417.312 310.706C417.908 310.706 418.356 311.161 418.356 311.921C418.356 312.528 417.908 313.136 417.312 313.136C413.734 313.136 410.156 313.136 406.578 313.288C406.578 313.895 406.578 314.351 406.578 314.958C419.25 314.958 431.773 314.654 444.445 314.502C443.998 314.958 464.125 289.445 453.39 240.698H453.838ZM429.984 265.603C429.835 263.781 429.537 261.959 429.388 260.136C431.326 259.833 433.413 259.681 435.351 259.377C436.693 259.225 438.035 260.288 438.184 261.807C438.333 263.326 437.438 264.692 435.948 264.844C434.009 265.148 431.922 265.3 429.984 265.603ZM426.108 276.537C425.959 274.715 425.81 272.893 425.661 271.07C429.239 270.767 432.817 270.311 436.395 269.856C437.737 269.856 439.078 270.767 439.227 272.437C439.227 273.956 438.333 275.322 436.991 275.474C433.413 275.778 429.835 276.082 426.257 276.537H426.108ZM442.358 272.285C442.209 270.615 443.253 269.096 444.744 268.944C446.234 268.792 447.576 270.007 447.725 271.678C447.874 273.348 446.831 274.867 445.34 275.019C443.849 275.019 442.507 273.956 442.358 272.285ZM426.853 284.738C426.853 283.219 426.704 281.701 426.555 280.182C429.984 279.878 433.413 279.575 436.842 279.271C438.184 279.271 439.227 280.334 439.227 281.852C439.227 283.067 438.333 283.979 437.289 283.979C433.86 284.282 430.431 284.586 426.853 284.738ZM427.301 292.331C427.301 290.964 427.301 289.597 427.002 288.382C430.431 288.079 433.711 287.927 437.14 287.623C438.184 287.623 439.078 288.534 439.078 289.749C439.078 290.812 438.333 291.572 437.289 291.723C433.86 291.875 430.58 292.179 427.152 292.331H427.301ZM444.744 294.153C445.638 294.153 446.383 294.912 446.383 295.824C446.383 296.735 445.787 297.646 444.893 297.646C443.998 297.646 443.253 296.887 443.253 295.975C443.253 295.064 443.849 294.153 444.744 294.153ZM427.599 298.861C427.599 297.95 427.599 296.887 427.599 295.975C430.879 295.824 434.308 295.672 437.587 295.368C438.482 295.368 439.227 296.279 438.929 297.19C438.929 297.798 438.333 298.253 437.737 298.405C434.457 298.557 431.028 298.709 427.748 298.861H427.599Z" fill="white"/>
<path d="M102.743 164.768L101.401 171.146L92.1582 172.665L90.9655 178.284L81.8713 179.347L81.1259 182.84L72.0317 183.599L71.4354 186.788L62.4903 187.244L61.4467 192.711H52.5016L51.7562 196.355H42.9602C42.9602 196.203 41.9166 201.063 41.9166 201.063L33.1206 200.607L32.5243 203.796L23.7283 203.037L22.2374 210.63L17.1686 209.567L12.0997 208.504L7.03078 207.441L5.09269 206.985L0.0238037 232.042L10.1616 234.168L12.0997 234.624L17.1686 235.687L15.6777 243.28L24.0264 246.165L23.4301 249.354L31.6298 252.392L30.5862 257.251L38.7858 260.592L38.0404 264.237L46.2401 267.881L45.1965 273.348L53.2471 277.449L52.6507 280.638L60.7013 285.042L59.9559 288.534L67.8574 293.242L66.6647 298.861L74.5662 304.024L73.2244 310.402L80.9768 316.021L111.986 162.339L102.743 164.465V164.768ZM20.1502 221.564L19.4048 225.36L12.696 223.994L13.4414 220.197L20.1502 221.564Z" fill="#07132B"/>
<g opacity="0.3">
<path d="M75.5506 225.724L71.9233 243.723L74.406 244.242L78.0333 226.243L75.5506 225.724Z" fill="white"/>
<path d="M62.7406 222.933L59.1133 240.933L61.596 241.452L65.2233 223.452L62.7406 222.933Z" fill="white"/>
<path d="M72.3985 224.929L68.7712 242.929L71.2539 243.448L74.8812 225.448L72.3985 224.929Z" fill="white"/>
<path d="M66.0382 223.758L62.4109 241.758L64.8936 242.277L68.5209 224.277L66.0382 223.758Z" fill="white"/>
<path d="M69.0709 224.252L65.4436 242.252L67.9263 242.771L71.5536 224.771L69.0709 224.252Z" fill="white"/>
<path d="M82.0602 227.046L78.4329 245.046L80.9155 245.565L84.5428 227.565L82.0602 227.046Z" fill="white"/>
<path d="M88.5397 228.365L84.9124 246.365L87.395 246.884L91.0223 228.884L88.5397 228.365Z" fill="white"/>
<path d="M78.8785 226.4L75.2512 244.4L77.7339 244.919L81.3612 226.919L78.8785 226.4Z" fill="white"/>
<path d="M91.7215 229.011L88.0942 247.011L90.5769 247.53L94.2042 229.53L91.7215 229.011Z" fill="white"/>
<path d="M21.5934 214.344L17.9661 232.344L19.7185 232.711L23.3458 214.711L21.5934 214.344Z" fill="white"/>
<path d="M85.358 227.719L81.7307 245.719L84.2134 246.238L87.8407 228.239L85.358 227.719Z" fill="white"/>
<path d="M59.5587 222.287L55.9314 240.287L58.4141 240.806L62.0414 222.806L59.5587 222.287Z" fill="white"/>
<path d="M40.0899 218.174L36.4626 236.174L38.9453 236.693L42.5726 218.693L40.0899 218.174Z" fill="white"/>
<path d="M56.2308 221.611L52.6035 239.61L55.0862 240.129L58.7135 222.13L56.2308 221.611Z" fill="white"/>
<path d="M30.4286 216.209L26.8013 234.208L29.2839 234.728L32.9112 216.728L30.4286 216.209Z" fill="white"/>
<path d="M94.9662 229.633L91.3389 247.633L94.5517 248.305L98.179 230.305L94.9662 229.633Z" fill="white"/>
<path d="M23.9491 214.738L20.3218 232.737L22.8044 233.256L26.4317 215.257L23.9491 214.738Z" fill="white"/>
<path d="M33.6104 216.855L29.9832 234.854L32.4658 235.374L36.0931 217.374L33.6104 216.855Z" fill="white"/>
<path d="M27.1007 215.532L23.4734 233.532L25.9561 234.051L29.5834 216.051L27.1007 215.532Z" fill="white"/>
<path d="M53.0792 220.816L49.4519 238.816L51.9346 239.335L55.5619 221.335L53.0792 220.816Z" fill="white"/>
<path d="M49.7513 220.291L46.124 238.291L48.6067 238.81L52.234 220.81L49.7513 220.291Z" fill="white"/>
<path d="M43.4178 218.851L39.7905 236.85L42.2732 237.369L45.9005 219.37L43.4178 218.851Z" fill="white"/>
<path d="M36.9081 217.68L33.2808 235.68L35.7635 236.199L39.3908 218.199L36.9081 217.68Z" fill="white"/>
<path d="M46.5694 219.645L42.9421 237.645L45.4248 238.164L49.0521 220.164L46.5694 219.645Z" fill="white"/>
</g>
<path d="M62.4904 378.739L58.6142 379.802L60.9996 382.839L56.9743 385.877L54.1417 386.332L55.0362 387.547L53.3962 388.914L92.6055 441.002L94.2455 439.635L95.2891 441.154L96.4817 438.572L96.1836 438.268L100.209 435.231L102.743 438.572L104.83 435.079L103.191 432.801L119.739 419.893L120.783 421.412L121.975 418.83L121.677 418.527L145.232 400.152L106.023 348.064L82.4678 366.439L79.6352 366.894L80.5297 368.109L63.9813 381.017L62.4904 379.043V378.739ZM119.59 366.287L131.368 382.08L106.172 401.67C101.849 405.011 95.7363 404.1 92.4564 399.848C89.1766 395.444 90.0711 389.218 94.2455 385.877L119.441 366.287H119.59Z" fill="#07132B"/>
</svg>
