<svg width="124" height="45" viewBox="0 0 124 45" fill="none" xmlns="http://www.w3.org/2000/svg">
<path d="M99.1794 27.8169C99.1794 27.8169 103.801 27.8169 108.423 28.5762C115.131 29.791 117.07 32.6764 118.113 33.132C119.306 33.5875 123.48 36.0173 123.48 37.2322C123.48 38.4471 119.008 40.2694 116.324 41.0287C113.491 41.788 109.615 42.2436 101.565 42.3954H45.9561C45.9561 42.3954 32.9857 41.788 21.059 37.9915C8.9831 34.195 5.25598 31.6134 4.95781 30.0948C4.65964 28.5762 10.3248 27.9687 10.3248 27.9687L3.31787 1.24133H9.72852L27.6187 22.8055L41.1854 27.5131L99.1794 27.8169Z" fill="white" stroke="#07132B" stroke-miterlimit="10"/>
<path d="M32.0911 35.8654C39.2472 39.2064 57.8828 37.5359 57.8828 37.5359H123.331C122.735 38.7508 118.858 40.4212 116.175 41.1805C113.342 41.9398 109.466 42.3954 101.416 42.5473H45.8069C45.8069 42.5473 32.8366 41.9398 20.9098 38.1433C8.83391 34.3468 5.10679 31.7652 4.80862 30.2466C4.51045 28.728 10.1757 28.1206 10.1757 28.1206L3.1687 1.39319H9.57933L27.4695 22.9573L41.0362 27.665H21.5061C21.5061 27.665 24.786 32.5245 31.942 35.8654H32.0911Z" fill="#07132B"/>
<path d="M112.895 31.7652L113.79 33.5875L111.852 33.1319V31.7652H112.895Z" fill="#07132B"/>
<path d="M114.684 31.7652L115.877 33.2838C114.983 33.4357 114.535 33.7394 114.535 33.7394H114.386L113.492 31.6133H114.684V31.7652Z" fill="#07132B"/>
<path d="M115.132 31.7652H116.026C117.07 32.5245 117.666 32.9801 118.113 33.1319C117.368 33.1319 116.771 33.1319 116.175 33.1319L115.132 31.6133V31.7652Z" fill="#07132B"/>
<path d="M66.6791 43.3066L70.5553 43.914C72.0461 44.0659 73.537 44.2178 75.0278 44.2178H79.0531C79.7985 44.2178 80.3949 43.4585 80.3949 42.6992V37.8396C80.3949 37.0803 79.7985 36.4729 79.0531 36.4729H73.537C73.0897 36.4729 72.4934 36.4729 72.0461 36.4729L66.53 37.0803C65.9337 37.0803 65.6355 37.5359 65.6355 38.1433V42.2436C65.6355 42.851 66.0828 43.3066 66.53 43.3066H66.6791Z" fill="white" stroke="#07132B" stroke-miterlimit="10"/>
<path d="M98.2849 34.4987C98.5831 34.4987 98.7322 34.3468 98.7322 34.0431V33.5875C98.7322 33.2838 98.5831 33.132 98.2849 33.132C97.9867 33.132 97.8376 33.2838 97.8376 33.5875V34.0431C97.8376 34.3468 97.9867 34.4987 98.2849 34.4987Z" fill="#07132B"/>
<path d="M96.645 34.4987C96.9432 34.4987 97.0923 34.3468 97.0923 34.0431V33.5875C97.0923 33.2838 96.9432 33.132 96.645 33.132C96.3468 33.132 96.1978 33.2838 96.1978 33.5875V34.0431C96.1978 34.3468 96.3468 34.4987 96.645 34.4987Z" fill="#07132B"/>
<path d="M95.0049 34.4987C95.3031 34.4987 95.4521 34.3468 95.4521 34.0431V33.5875C95.4521 33.2838 95.3031 33.132 95.0049 33.132C94.7067 33.132 94.5576 33.2838 94.5576 33.5875V34.0431C94.5576 34.3468 94.7067 34.4987 95.0049 34.4987Z" fill="#07132B"/>
<path d="M93.365 34.4987C93.6632 34.4987 93.8122 34.3468 93.8122 34.0431V33.5875C93.8122 33.2838 93.6632 33.132 93.365 33.132C93.0668 33.132 92.9177 33.2838 92.9177 33.5875V34.0431C92.9177 34.3468 93.0668 34.4987 93.365 34.4987Z" fill="#07132B"/>
<path d="M91.7251 34.4987C92.0232 34.4987 92.1723 34.3468 92.1723 34.0431V33.5875C92.1723 33.2838 92.0232 33.132 91.7251 33.132C91.4269 33.132 91.2778 33.2838 91.2778 33.5875V34.0431C91.2778 34.3468 91.4269 34.4987 91.7251 34.4987Z" fill="#07132B"/>
<path d="M90.0852 34.4987C90.3833 34.4987 90.5325 34.3468 90.5325 34.0431V33.5875C90.5325 33.2838 90.3833 33.132 90.0852 33.132C89.787 33.132 89.6379 33.2838 89.6379 33.5875V34.0431C89.6379 34.3468 89.787 34.4987 90.0852 34.4987Z" fill="#07132B"/>
<path d="M88.2962 34.4987C88.5943 34.4987 88.7434 34.3468 88.7434 34.0431V33.5875C88.7434 33.2838 88.5943 33.132 88.2962 33.132C87.998 33.132 87.8489 33.2838 87.8489 33.5875V34.0431C87.8489 34.3468 87.998 34.4987 88.2962 34.4987Z" fill="#07132B"/>
<path d="M86.656 34.4987C86.9542 34.4987 87.1033 34.3468 87.1033 34.0431V33.5875C87.1033 33.2838 86.9542 33.132 86.656 33.132C86.3579 33.132 86.2087 33.2838 86.2087 33.5875V34.0431C86.2087 34.3468 86.3579 34.4987 86.656 34.4987Z" fill="#07132B"/>
<path d="M85.0163 34.4987C85.3145 34.4987 85.4636 34.3468 85.4636 34.0431V33.5875C85.4636 33.2838 85.3145 33.132 85.0163 33.132C84.7182 33.132 84.5691 33.2838 84.5691 33.5875V34.0431C84.5691 34.3468 84.7182 34.4987 85.0163 34.4987Z" fill="#07132B"/>
<path d="M81.7366 34.4987C82.0347 34.4987 82.1838 34.3468 82.1838 34.0431V33.5875C82.1838 33.2838 82.0347 33.132 81.7366 33.132C81.4384 33.132 81.2893 33.2838 81.2893 33.5875V34.0431C81.2893 34.3468 81.4384 34.4987 81.7366 34.4987Z" fill="#07132B"/>
<path d="M80.0964 34.4987C80.3946 34.4987 80.5437 34.3468 80.5437 34.0431V33.5875C80.5437 33.2838 80.3946 33.132 80.0964 33.132C79.7983 33.132 79.6492 33.2838 79.6492 33.5875V34.0431C79.6492 34.3468 79.7983 34.4987 80.0964 34.4987Z" fill="#07132B"/>
<path d="M78.4565 34.4987C78.7547 34.4987 78.9038 34.3468 78.9038 34.0431V33.5875C78.9038 33.2838 78.7547 33.132 78.4565 33.132C78.1584 33.132 78.0093 33.2838 78.0093 33.5875V34.0431C78.0093 34.3468 78.1584 34.4987 78.4565 34.4987Z" fill="#07132B"/>
<path d="M76.6675 34.4987C76.9656 34.4987 77.1147 34.3468 77.1147 34.0431V33.5875C77.1147 33.2838 76.9656 33.132 76.6675 33.132C76.3693 33.132 76.2202 33.2838 76.2202 33.5875V34.0431C76.2202 34.3468 76.3693 34.4987 76.6675 34.4987Z" fill="#07132B"/>
<path d="M73.3877 34.4987C73.6859 34.4987 73.8349 34.3468 73.8349 34.0431V33.5875C73.8349 33.2838 73.6859 33.132 73.3877 33.132C73.0895 33.132 72.9404 33.2838 72.9404 33.5875V34.0431C72.9404 34.3468 73.0895 34.4987 73.3877 34.4987Z" fill="#07132B"/>
<path d="M70.1079 34.4987C70.4061 34.4987 70.5552 34.3468 70.5552 34.0431V33.5875C70.5552 33.2838 70.4061 33.132 70.1079 33.132C69.8097 33.132 69.6606 33.2838 69.6606 33.5875V34.0431C69.6606 34.3468 69.8097 34.4987 70.1079 34.4987Z" fill="#07132B"/>
<path d="M68.4677 34.4987C68.7659 34.4987 68.915 34.3468 68.915 34.0431V33.5875C68.915 33.2838 68.7659 33.132 68.4677 33.132C68.1696 33.132 68.0205 33.2838 68.0205 33.5875V34.0431C68.0205 34.3468 68.1696 34.4987 68.4677 34.4987Z" fill="#07132B"/>
<path d="M66.8281 34.4987C67.1263 34.4987 67.2754 34.3468 67.2754 34.0431V33.5875C67.2754 33.2838 67.1263 33.132 66.8281 33.132C66.5299 33.132 66.3809 33.2838 66.3809 33.5875V34.0431C66.3809 34.3468 66.5299 34.4987 66.8281 34.4987Z" fill="#07132B"/>
<path d="M65.188 34.4987C65.4862 34.4987 65.6352 34.3468 65.6352 34.0431V33.5875C65.6352 33.2838 65.4862 33.132 65.188 33.132C64.8898 33.132 64.7407 33.2838 64.7407 33.5875V34.0431C64.7407 34.3468 64.8898 34.4987 65.188 34.4987Z" fill="#07132B"/>
<path d="M63.3992 34.4987C63.6973 34.4987 63.8464 34.3468 63.8464 34.0431V33.5875C63.8464 33.2838 63.6973 33.132 63.3992 33.132C63.101 33.132 62.9519 33.2838 62.9519 33.5875V34.0431C62.9519 34.3468 63.101 34.4987 63.3992 34.4987Z" fill="#07132B"/>
<path d="M61.759 34.4987C62.0572 34.4987 62.2063 34.3468 62.2063 34.0431V33.5875C62.2063 33.2838 62.0572 33.132 61.759 33.132C61.4608 33.132 61.3118 33.2838 61.3118 33.5875V34.0431C61.3118 34.3468 61.4608 34.4987 61.759 34.4987Z" fill="#07132B"/>
<path d="M60.1194 34.4987C60.4175 34.4987 60.5666 34.3468 60.5666 34.0431V33.5875C60.5666 33.2838 60.4175 33.132 60.1194 33.132C59.8212 33.132 59.6721 33.2838 59.6721 33.5875V34.0431C59.6721 34.3468 59.8212 34.4987 60.1194 34.4987Z" fill="#07132B"/>
<path d="M58.4792 34.4987C58.7774 34.4987 58.9265 34.3468 58.9265 34.0431V33.5875C58.9265 33.2838 58.7774 33.132 58.4792 33.132C58.1811 33.132 58.032 33.2838 58.032 33.5875V34.0431C58.032 34.3468 58.1811 34.4987 58.4792 34.4987Z" fill="#07132B"/>
<path d="M56.8391 34.4987C57.1373 34.4987 57.2863 34.3468 57.2863 34.0431V33.5875C57.2863 33.2838 57.1373 33.132 56.8391 33.132C56.5409 33.132 56.3918 33.2838 56.3918 33.5875V34.0431C56.3918 34.3468 56.5409 34.4987 56.8391 34.4987Z" fill="#07132B"/>
<path d="M55.1995 34.4987C55.4976 34.4987 55.6467 34.3468 55.6467 34.0431V33.5875C55.6467 33.2838 55.4976 33.132 55.1995 33.132C54.9013 33.132 54.7522 33.2838 54.7522 33.5875V34.0431C54.7522 34.3468 54.9013 34.4987 55.1995 34.4987Z" fill="#07132B"/>
<path d="M53.5593 34.4987C53.8575 34.4987 54.0066 34.3468 54.0066 34.0431V33.5875C54.0066 33.2838 53.8575 33.132 53.5593 33.132C53.2611 33.132 53.1121 33.2838 53.1121 33.5875V34.0431C53.1121 34.3468 53.2611 34.4987 53.5593 34.4987Z" fill="#07132B"/>
<path d="M51.7705 34.4987C52.0687 34.4987 52.2178 34.3468 52.2178 34.0431V33.5875C52.2178 33.2838 52.0687 33.132 51.7705 33.132C51.4723 33.132 51.3232 33.2838 51.3232 33.5875V34.0431C51.3232 34.3468 51.4723 34.4987 51.7705 34.4987Z" fill="#07132B"/>
<path d="M42.676 36.321C42.2288 36.1691 45.9559 35.258 45.9559 35.258L38.5017 31.9171L36.2654 27.5131H36.8617L41.1852 31.9171L68.1695 36.7766C68.1695 37.0803 66.6787 40.7249 65.9332 42.6991H49.3848L52.0683 38.2952H49.683C49.683 38.2952 47.1486 37.9915 46.5522 37.6878C45.9559 37.384 49.5339 36.7766 49.5339 36.7766C45.6577 37.0803 43.2724 36.7766 42.8251 36.6247L42.676 36.321Z" fill="#07132B"/>
<path d="M0.634277 27.8168C0.634277 27.8168 2.72148 27.2094 4.95775 27.8168C7.19402 28.4243 19.5681 32.0689 19.5681 32.0689C19.5681 32.0689 19.8662 32.5245 18.3754 33.4357C16.8845 34.3468 15.2446 34.6506 14.7973 36.0173C9.87753 34.195 7.04492 32.6764 5.85224 31.6134C6.15041 31.3096 6.59767 31.0059 7.04493 30.7022C3.61598 29.1836 0.783371 27.8168 0.783371 27.8168H0.634277Z" fill="#07132B"/>
</svg>
