<svg width="494" height="503" viewBox="0 0 494 503" fill="none" xmlns="http://www.w3.org/2000/svg">
<path d="M370.052 376.917C437.996 307.708 437.996 195.498 370.052 126.289C302.108 57.0795 191.948 57.0795 124.004 126.289C56.06 195.498 56.06 307.708 124.004 376.917C191.948 446.126 302.108 446.126 370.052 376.917Z" fill="#3AF2AE"/>
<path d="M271.955 92.4653C271.955 92.4653 273.147 88.8207 270.166 84.8723C267.184 80.924 265.097 80.924 261.519 80.3165C257.941 79.7091 255.555 79.1016 250.635 78.7979C245.865 78.4942 241.541 78.4942 237.665 78.4942C233.789 78.4942 231.702 78.7979 229.614 78.1905C227.527 77.5831 227.825 76.3682 224.546 76.3682C221.266 76.3682 223.353 76.3682 222.906 76.3682C214.706 77.583 206.506 79.4054 198.307 81.8351C133.604 101.121 88.1331 155.335 76.2063 218.509C77.1008 225.191 80.3807 238.707 83.0642 248.122C84.5551 253.589 85.8968 257.689 86.4931 257.993C88.1331 259.056 84.7041 244.933 83.8096 240.225C82.9151 235.669 81.7224 231.417 82.9151 232.936C84.1078 234.455 90.0712 248.274 90.3693 254.045C90.6675 259.815 87.984 261.638 91.562 266.042C95.1401 270.294 104.234 279.861 105.725 278.646C107.216 277.431 106.62 273.179 108.707 275.609C110.794 278.038 110.794 282.291 114.67 283.202C118.546 284.113 120.037 284.113 121.528 285.935C123.019 287.757 126.001 293.528 128.982 295.199C131.964 296.869 134.051 297.325 136.735 297.021C139.418 296.717 140.611 294.895 142.102 296.414C143.593 297.932 142.4 300.969 143.593 303.399C144.785 305.829 147.767 307.044 147.767 309.17C147.767 311.296 139.716 320.863 144.487 331.189C149.258 341.668 162.825 351.691 162.825 351.691L176.988 358.069L183.249 369.762L185.336 379.937C185.336 379.937 192.791 400.438 199.201 406.208C205.463 411.979 213.961 419.42 218.731 421.243C223.502 423.065 228.124 423.369 224.397 420.635C220.818 417.902 219.328 416.079 217.837 414.864C216.346 413.65 216.942 411.524 215.153 410.309C213.364 409.094 211.575 410.005 212.47 407.575C213.364 405.145 213.961 405.449 215.451 403.93C216.942 402.412 217.837 399.982 217.837 399.982C217.837 399.982 216.346 396.034 216.644 394.515C216.942 392.997 218.433 395.73 220.52 392.693C222.608 389.656 224.695 385.1 224.695 385.1L226.186 381.759L227.676 376.596L233.938 375.077L240.2 372.344L244.374 366.877L245.865 361.106V350.324L247.057 348.198C247.057 348.198 256.152 343.946 257.046 338.023C257.941 332.253 256.45 329.519 256.45 329.519L250.188 327.697L239.901 324.963L232.745 323.445L227.378 321.622L221.713 319.496L219.029 317.067V312.511L215.153 307.651L212.172 306.133L207.401 304.31L202.928 303.703L199.052 301.88L194.281 297.021L188.616 293.376L181.46 290.947L178.777 291.25L173.708 291.554L167.744 289.428C167.744 289.428 165.955 287.606 164.763 287.302C163.57 286.998 162.079 286.998 162.079 286.998L158.799 291.554C158.799 291.554 159.097 286.694 156.414 287.302C153.73 287.909 148.363 291.554 148.363 291.554L147.767 296.11C147.767 296.11 143.593 292.161 142.4 292.161C141.207 292.161 139.716 295.806 136.138 293.984C132.56 292.161 131.368 289.124 131.069 287.606C130.771 286.087 131.666 281.228 131.069 279.101C130.473 276.975 127.193 276.975 127.193 276.975C127.193 276.975 125.404 276.975 124.212 276.672C123.019 276.368 120.932 275.761 120.932 275.761C120.932 275.761 123.019 265.282 121.23 262.852C119.441 260.423 117.354 260.726 116.757 262.549C116.161 264.371 114.968 266.497 113.179 267.712C111.39 268.927 109.899 270.445 108.11 269.534C106.321 268.623 100.954 263.46 100.954 255.715C100.954 247.97 105.725 239.162 105.725 239.162C105.725 239.162 111.092 234.606 115.117 234.91C119.143 235.214 119.292 236.125 120.783 234.606C122.273 233.088 125.553 233.392 126.746 233.999C127.939 234.606 131.219 236.429 131.517 238.555C131.815 240.681 132.113 245.844 134.2 248.122C136.287 250.248 137.48 245.085 137.48 245.085C137.48 245.085 134.498 239.314 134.498 236.581C134.498 233.847 134.2 232.632 134.797 231.721C135.393 230.81 149.556 223.521 150.749 219.42C151.941 215.472 151.941 213.65 151.941 210.916C151.941 208.183 160.29 204.234 162.526 203.323C164.614 202.412 162.825 197.856 167.297 194.819C171.77 191.782 186.231 186.922 182.653 188.441C179.075 189.96 178.478 192.693 185.038 189.96C191.598 187.226 200.692 186.922 194.132 184.189C187.573 181.455 180.267 182.063 180.566 179.937C180.864 177.811 184.74 173.559 190.554 172.951C195.921 172.344 198.903 169.914 198.754 171.888C198.754 171.888 198.754 172.192 198.754 172.344C198.158 175.077 194.58 178.722 196.667 179.633C198.754 180.544 210.233 182.367 210.83 179.633C211.426 176.9 203.674 176.596 205.165 172.04C206.655 167.484 209.339 165.358 207.848 163.232C206.357 161.106 201.587 159.588 201.587 159.588C201.587 159.588 194.729 153.209 194.43 151.995C194.132 150.78 192.641 145.313 191.747 144.098C190.852 142.883 189.958 145.92 186.082 145.313C182.206 144.705 183.398 141.364 182.206 139.542C181.013 137.72 176.242 134.682 171.919 136.201C167.744 137.72 167.446 138.631 165.657 142.275C163.868 145.92 166.552 147.439 165.061 149.868C163.57 152.298 159.694 154.121 158.799 156.55C157.905 158.98 159.097 161.41 157.308 163.84C155.519 166.269 150.451 167.181 150.451 162.928C150.451 158.676 151.345 156.854 149.258 155.943C147.171 155.032 144.487 155.335 141.804 152.298C139.12 149.261 139.418 143.035 139.418 143.035C139.418 143.035 148.811 135.138 151.494 133.771C154.178 132.556 158.054 134.682 160.141 134.379C162.228 134.075 165.21 133.164 164.912 130.43C164.614 127.697 162.825 126.178 166.701 123.445C170.577 120.711 172.962 115.548 173.559 113.878C174.155 112.359 178.628 108.411 182.653 112.966C186.529 117.522 185.336 121.774 185.336 121.774C185.336 121.774 175.646 122.382 176.689 125.115C177.584 127.849 183.249 127.545 183.845 129.975C184.442 132.405 182.653 134.834 188.616 134.531C194.58 134.227 197.263 133.316 195.772 130.279C194.281 127.241 192.791 122.686 194.58 123.597C196.369 124.508 197.859 127.545 201.736 125.115C205.612 122.686 203.525 117.219 200.841 114.941C198.158 112.815 195.772 110.385 194.58 106.74C193.387 103.096 191.598 102.184 188.318 101.881C185.038 101.577 180.566 100.97 177.435 102.488C174.453 104.007 173.26 104.31 172.664 105.525C172.068 106.74 170.875 108.259 169.981 108.563C169.086 108.866 165.806 110.081 165.806 110.081L161.632 107.651C161.632 107.651 160.439 109.17 158.054 109.474C155.668 109.777 155.37 105.525 155.37 105.525L170.726 97.6286C170.726 97.6286 176.391 97.3249 178.478 98.236C180.566 99.1472 186.529 99.7546 189.362 98.5397C192.045 97.3249 191.747 98.236 193.834 96.4137C195.921 94.5914 200.096 92.1616 200.096 92.1616C200.096 92.1616 202.779 90.0356 205.761 87.9095C208.743 85.7835 211.724 84.8723 215.75 84.2649C219.626 83.6575 221.415 84.2649 218.433 85.1761C215.451 86.0872 212.172 87.6058 210.681 89.4281C209.19 91.2505 206.208 92.4653 209.488 93.0728C212.768 93.6802 216.346 93.0728 220.073 96.11C223.651 99.1472 224.844 99.1472 222.757 103.399C220.669 107.651 217.986 113.574 220.073 115.7C222.16 117.826 221.266 115.093 220.968 121.774C220.669 128.456 221.266 131.342 223.651 135.897C226.036 140.453 230.211 139.542 231.702 141.061C233.193 142.579 235.28 143.187 237.367 142.275C239.454 141.364 242.138 133.771 242.138 133.771L249.89 123.9L261.668 119.041C261.668 119.041 268.526 116.611 273.147 114.485C277.62 112.359 280.303 110.84 277.918 105.981C275.533 101.121 273.147 93.9839 273.147 93.9839L271.955 92.4653Z" fill="white"/>
<path d="M414.033 201.957C404.044 167.332 384.663 138.175 359.467 116.459C357.38 116.004 354.697 115.093 351.566 113.878C344.112 110.84 335.912 108.714 337.105 115.396C338.297 122.078 340.385 125.875 337.999 128.304C335.614 130.734 334.421 137.112 339.192 141.516C343.963 145.92 347.839 149.109 348.882 146.376C349.777 143.642 353.355 145.465 354.846 148.502C356.337 151.539 354.548 155.487 357.529 154.576C360.511 153.665 364.984 150.628 360.511 145.313C356.039 140.149 353.057 136.505 353.355 132.405C353.653 128.456 356.337 122.23 356.933 128.152C357.529 134.075 359.617 136.657 362.896 141.061C366.176 145.313 369.754 148.046 368.562 152.45C367.369 156.702 363.493 158.828 361.406 158.828C359.318 158.828 356.337 157.917 353.653 157.31C350.97 156.702 349.777 157.31 348.882 158.525C347.988 159.739 346.199 163.384 345.603 166.118C345.006 168.851 343.814 172.799 339.937 173.711C336.061 174.622 329.949 175.533 333.378 178.266C336.658 181 341.13 177.659 341.726 184.948C342.323 192.237 339.341 193.452 333.378 192.845C327.414 192.237 325.327 194.364 326.52 200.134C327.712 205.905 329.203 210.005 331.29 211.22C333.378 212.435 339.639 212.435 336.658 216.991C333.676 221.546 328.011 223.369 326.371 227.773C324.88 232.025 322.494 237.036 320.705 238.555C318.916 240.073 309.524 253.893 309.226 263.004C308.928 272.268 311.909 288.061 320.705 296.717C329.352 305.221 334.869 312.663 341.726 309.018C348.584 305.373 354.697 302.944 357.082 306.588C359.467 310.233 360.064 310.233 361.555 311.144C363.046 312.055 363.344 316.307 362.151 321.319C360.958 326.178 363.642 333.012 364.238 337.568C364.835 342.123 352.46 349.261 349.777 357.158C347.093 365.054 346.199 372.192 343.814 376.748C341.428 381.303 335.167 386.011 338.148 388.441C341.13 390.871 350.821 387.226 356.188 382.974C361.555 378.722 372.14 365.51 374.525 363.08C376.91 360.65 384.514 354.576 389.881 346.527C395.248 338.631 399.869 327.849 399.869 327.849C399.869 327.849 407.771 317.218 412.84 305.981C423.127 273.331 424.319 237.34 414.182 201.805L414.033 201.957Z" fill="white"/>
<path d="M327.563 168.699C328.756 170.521 332.93 171.736 336.21 170.521C339.49 169.307 342.77 167.484 341.875 165.054C340.981 162.625 336.806 161.714 336.806 161.714C336.806 161.714 330.545 159.284 329.054 154.424C327.563 149.565 324.283 142.731 321.003 146.528C317.723 150.172 323.09 153.513 323.09 154.728C323.09 155.943 318.32 154.121 317.127 157.765C315.934 161.41 316.829 165.054 319.214 165.358C321.6 165.662 324.283 165.966 325.178 163.536C326.072 161.106 324.879 158.069 326.668 159.284C328.457 160.499 330.545 160.195 329.65 162.625C328.756 165.054 326.37 166.877 327.563 168.699Z" fill="white"/>
<path d="M370.052 376.917C437.996 307.708 437.996 195.498 370.052 126.289C302.108 57.0795 191.948 57.0795 124.004 126.289C56.06 195.498 56.06 307.708 124.004 376.917C191.948 446.126 302.108 446.126 370.052 376.917Z" stroke="#07132B" stroke-linecap="round" stroke-linejoin="round"/>
</svg>
