<svg width="459" height="440" fill="none" xmlns="http://www.w3.org/2000/svg"><path d="M161.531 5.84c0-.456 0-.76-.15-1.216-.745-2.43-3.13-3.796-5.516-3.037-1.192.304-2.087 1.215-2.683 2.278-2.684-2.581-6.411-3.493-10.138-2.43-2.087.608-3.876 1.975-5.218 3.645-3.727-2.582-8.349-3.645-12.97-2.126-7.902 2.43-12.374 10.934-9.989 19.134v.304c-.596 0-1.342 0-1.938.304-3.727 1.063-5.665 5.011-4.622 8.808.298.91.746 1.822 1.342 2.581 15.952-11.085 33.246-20.5 51.882-28.094V5.84ZM64.924 75.088c0-.304-.299-.456-.448-.608-1.192-1.215-3.28-1.063-4.323 0-.596.608-.895 1.519-.895 2.278-2.385-.607-5.218 0-7.007 2.126-1.043 1.215-1.64 2.582-1.938 4.1-3.13-.303-6.261.76-8.647 3.341-4.025 4.252-3.727 11.086.448 15.186h.149c-.447.304-.746.456-1.044.911-1.789 1.975-1.789 5.164.298 6.986.448.456 1.044.759 1.79 1.063 5.814-12.453 13.119-24.298 21.766-35.535l-.15.152ZM22.285 167.722c-.298-.152-.745-.303-1.043-.455-2.386-.608-4.771.911-5.367 3.341-.299 1.215 0 2.429.596 3.492-3.429 1.063-6.262 3.949-7.156 7.745-.447 2.278-.298 4.404.447 6.378-4.025 1.975-7.305 5.619-8.349 10.479-1.938 8.2 3.131 16.401 11.182 18.375h.298c-.298.607-.596 1.215-.745 1.822-.895 3.797 1.49 7.593 5.218 8.504 1.043.304 1.938.304 2.832 0-1.342-19.59-.745-39.635 1.938-59.833l.15.152ZM32.87 287.084h-.745c-1.64.456-2.535 2.278-2.087 3.949.298.911.894 1.518 1.49 1.822-1.788 1.822-2.385 4.556-1.64 7.289.448 1.519 1.342 2.734 2.535 3.645-1.789 2.582-2.534 6.074-1.49 9.263 1.64 5.619 7.602 8.808 13.119 7.138h.149c0 .455 0 .911.149 1.367.745 2.581 3.429 4.1 6.112 3.341.597-.152 1.193-.608 1.79-.912-7.604-11.389-14.164-23.69-19.382-36.902ZM90.268 371.519c-.298.152-.597.455-.895.759-1.64 1.822-1.64 4.708.15 6.378.894.911 2.087 1.215 3.28 1.215-.746 3.645.148 7.441 2.981 10.175 1.64 1.518 3.578 2.429 5.665 2.733a15.564 15.564 0 0 0 4.622 12.604c6.112 5.771 15.505 5.467 21.319-.759l.149-.152c.298.608.745 1.063 1.193 1.519 2.832 2.733 7.156 2.582 9.839-.304.746-.759 1.193-1.518 1.491-2.43-17.443-8.504-34.14-19.134-49.794-31.587v-.151ZM197.161 423.91c0 .304-.149.456-.298.76-.447 1.67.597 3.341 2.386 3.796.894.152 1.64 0 2.385-.455.745 2.429 2.684 4.404 5.367 5.163 1.491.304 2.982.152 4.324-.304 1.341 2.885 3.876 5.163 7.156 5.923 5.665 1.366 11.33-2.278 12.672-8.049v-.152c.447.152.894.456 1.342.456 2.534.607 5.218-1.063 5.814-3.645.149-.759.149-1.367 0-1.974-13.418 1.063-27.283.607-41.148-1.367v-.152ZM297.496 413.432c0 .456 0 .759.149 1.215.745 2.43 3.13 3.796 5.516 3.037 1.193-.304 2.087-1.215 2.683-2.278 2.684 2.582 6.411 3.493 10.138 2.43 2.087-.607 3.876-1.974 5.218-3.645 3.727 2.582 8.349 3.645 12.97 2.126 7.902-2.429 12.375-10.934 9.989-19.134v-.304c.596 0 1.342 0 1.938-.303 3.727-1.063 5.665-5.012 4.622-8.808-.298-.912-.746-1.823-1.342-2.582-15.952 11.086-33.246 20.501-51.881 28.094v.152ZM393.954 344.184c0 .304.298.455.447.607 1.192 1.215 3.28 1.063 4.323 0 .597-.607.895-1.518.895-2.278 2.385.608 5.218 0 7.007-2.126 1.043-1.215 1.64-2.581 1.938-4.1 3.131.304 6.261-.759 8.647-3.341 4.025-4.252 3.727-11.086-.448-15.186h-.149c.448-.304.746-.455 1.044-.911 1.789-1.974 1.789-5.163-.298-6.986-.447-.455-1.044-.759-1.789-1.063-5.814 12.453-13.12 24.298-21.767 35.536l.15-.152ZM436.741 251.549c.298.152.745.304 1.044.456 2.385.607 4.77-.911 5.367-3.341.298-1.215 0-2.43-.597-3.493 3.429-1.063 6.262-3.948 7.156-7.745.448-2.278.299-4.404-.447-6.378 4.025-1.974 7.305-5.619 8.349-10.478 1.938-8.201-3.131-16.401-11.182-18.375h-.298c.299-.608.597-1.215.746-1.823.894-3.796-1.491-7.593-5.218-8.504-1.044-.304-1.938-.304-2.833 0 1.342 19.59.746 39.636-1.938 59.833l-.149-.152ZM368.758 47.753c.298-.152.597-.456.895-.76 1.64-1.822 1.64-4.707-.149-6.378-.895-.91-2.088-1.215-3.28-1.215.745-3.644-.149-7.44-2.982-10.174-1.64-1.519-3.578-2.43-5.665-2.734.447-4.555-1.193-9.263-4.622-12.604-6.112-5.77-15.505-5.467-21.319.76l-.149.151c-.298-.607-.745-1.063-1.193-1.518-2.832-2.734-7.156-2.582-9.839.303-.746.76-1.193 1.519-1.491 2.43 17.443 8.504 34.14 19.134 49.794 31.587v.152Z" fill="#fff" stroke="#07132B" stroke-linecap="round" stroke-linejoin="round"/></svg>