<svg width="23" height="18" fill="none" xmlns="http://www.w3.org/2000/svg"><g clip-path="url('#clip0_1494_157')"><path d="M17.538 6.75h-5.463v1.969c0 1.396-1.16 2.531-2.588 2.531-1.426 0-2.587-1.136-2.587-2.531V4.444l-2.332 1.37A2.236 2.236 0 0 0 3.45 7.742v1.663L.575 11.028c-.55.31-.74.999-.42 1.537l2.875 4.873c.316.537 1.02.72 1.57.41l3.716-2.098h4.909c1.269 0 2.3-1.009 2.3-2.25h.575c.636 0 1.15-.503 1.15-1.125v-2.25h.288a.851.851 0 0 0 .862-.844V7.594a.851.851 0 0 0-.862-.844Zm5.307-1.315L19.97.563A1.164 1.164 0 0 0 18.4.15L14.684 2.25h-3.673c-.431 0-.851.12-1.218.341l-1.204.735c-.338.204-.539.566-.539.953v4.44c0 .777.643 1.406 1.437 1.406.795 0 1.438-.63 1.438-1.406V5.625h6.613c1.11 0 2.012.882 2.012 1.969v1.002l2.875-1.625c.55-.312.737-.998.42-1.536Z" fill="#07132B"/></g><defs><clipPath id="clip0_1494_157"><path fill="#fff" d="M0 0h23v18H0z"/></clipPath></defs></svg>