<svg width="234" height="190" fill="none" xmlns="http://www.w3.org/2000/svg"><path d="M90.31 174.013c.895-6.074-2.832-19.438-2.832-19.438s-7.901 5.163-8.349 5.619c-5.218 4.556-12.82 16.553-9.84 23.842 2.088 5.315 8.35 6.834 12.971 4.252 4.77-2.581 7.305-9.111 8.05-14.275Z" fill="#3AF2AE"/><path d="M127.135 159.131c-.597-5.923-7.156-16.856-7.753-17.768 6.113-3.644 12.076-7.896 17.741-12.604 3.28-2.582 6.56-5.467 9.84-8.201-1.342 1.519-2.385 2.886-2.534 3.038-3.877 5.77-8.051 19.438-3.28 25.664 3.429 4.556 9.69 4.404 13.566.608 4.026-3.797 4.622-10.631 4.026-15.946-.597-5.315-5.964-14.882-7.455-17.312 1.193-1.063 2.535-2.126 3.728-3.341 5.814-5.315 11.628-10.63 17.592-15.641 2.087-1.823 4.174-3.493 6.261-5.164-1.193 1.367-2.087 2.43-2.236 2.734-3.876 5.771-8.051 19.438-3.28 25.664 3.429 4.556 9.691 4.404 13.567.608 4.025-3.797 4.621-10.631 4.025-15.946-.596-5.011-5.516-13.819-7.156-16.856 2.236-1.67 4.323-3.341 6.56-4.86 1.491-1.063 2.981-1.974 4.472-2.885 1.491-.911 3.131-1.822 4.622-2.734a264.54 264.54 0 0 1 9.094-4.859c2.087-1.063 4.025-2.126 5.963-3.037-2.087 1.67-6.112 5.163-6.41 5.619-4.771 5.163-10.883 17.92-7.156 24.905 2.683 5.011 8.945 5.77 13.417 2.733 4.473-3.189 6.113-9.87 6.411-15.034.149-5.77-4.323-17.312-4.92-18.679 3.28-1.67 6.56-3.189 9.542-4.708 2.683-1.366 5.367-2.43 7.901-3.644l-1.193-4.708c-2.683 1.215-5.516 2.734-8.647 4.1-3.279 1.67-6.857 3.493-10.585 5.467-.596-.759-3.876-5.315-7.603-9.111 3.131-5.012 5.367-16.401 5.665-17.768 3.578.456 7.156.911 10.436 1.519 2.237.303 4.473.76 6.56 1.063l-1.342-5.012c-1.491-.151-2.981-.455-4.621-.607a908.777 908.777 0 0 0-11.778-1.367c0-1.518-.745-13.819-3.429-18.982-2.385-4.708-6.709-9.871-12.076-10.782-5.218-.912-10.585 2.581-10.883 8.352-.447 7.897 10.436 16.705 16.847 19.286.447.152 4.621 1.367 7.454 1.974l-4.92-.455c-3.429-.304-6.709-.608-10.436-.76-1.789 0-3.578 0-5.367-.151h-5.516c-4.324 0-8.647.455-13.12.91.299-3.036 1.044-13.819-.596-18.83-1.64-5.011-5.218-10.782-10.287-12.604-5.069-1.67-10.883.91-12.076 6.53-1.64 7.745 7.753 18.223 13.865 21.716.298.152 4.92 2.278 7.454 3.34-2.683.304-5.218.608-7.901.912-7.603 1.063-15.356 2.43-23.108 3.644-2.386.456-4.771.76-7.156 1.063 0-1.063 1.342-13.819-.597-19.438-1.64-5.011-5.218-10.782-10.286-12.604-5.069-1.67-10.884.911-12.076 6.53-1.64 7.745 7.752 18.223 13.865 21.716.447.304 7.007 3.189 8.796 3.948-5.218.76-10.436 1.519-15.505 2.126-7.156.76-14.163 1.063-20.872.911 0-.455 1.342-13.819-.596-19.59-1.64-5.01-5.218-10.782-10.287-12.604-5.07-1.67-10.883.911-12.076 6.53-1.64 7.745 7.752 18.223 13.865 21.716.447.304 7.603 3.493 8.945 3.948h-1.193c-7.305-.303-14.312-1.518-20.723-2.885-3.727-.76-7.305-1.822-10.734-2.885.447-2.43 2.684-13.668 1.491-18.983-1.193-5.163-4.025-11.39-8.945-13.667-4.92-2.278-10.883-.304-12.672 5.163-2.535 7.441 5.814 18.983 11.33 23.083.298.152 3.578 2.278 6.113 3.645-1.491-.456-3.131-1.063-4.622-1.52-5.516-1.973-10.585-3.947-14.908-5.922-2.535-1.063-4.771-2.126-6.71-3.189-.745-2.733-3.875-13.363-7.304-17.464C19.943 4.69 14.576.59 9.06.893 3.693 1.196-.78 5.753.115 11.37c1.192 7.745 13.715 14.123 20.573 15.186.597 0 9.989.456 9.989.456v-.152c1.938 1.063 4.174 2.126 6.41 3.189 4.324 1.974 9.244 4.252 14.76 6.226 5.516 2.126 11.629 4.1 18.188 5.77 6.56 1.671 13.567 3.038 21.021 3.494h.298c-2.236.607-8.348 2.278-8.796 2.43-6.41 2.733-17.293 11.693-16.697 19.59.447 5.618 5.814 9.11 11.032 8.2 5.367-.911 9.69-6.227 11.927-10.934 2.684-5.315 3.13-18.223 3.28-19.135 7.007.304 14.312 0 21.617-.455 4.174-.304 8.349-.911 12.672-1.367-1.938.608-3.578 1.063-3.876 1.063-6.411 2.734-17.294 11.693-16.697 19.59.447 5.619 5.814 9.112 11.032 8.2 5.367-.91 9.69-6.226 11.927-10.933 2.385-4.708 2.981-15.642 3.13-18.68 1.64-.151 3.28-.455 4.92-.607 7.753-1.063 15.505-2.278 23.108-3.189 2.684-.303 5.367-.455 8.051-.759-1.64.456-3.131.911-3.28 1.063-6.411 2.733-17.294 11.693-16.697 19.59.447 5.619 5.814 9.112 11.032 8.2 5.367-.91 9.69-6.226 11.927-10.933 2.236-4.556 2.981-14.58 3.13-18.072 2.684 0 5.517-.304 8.051-.304h5.367c1.789 0 3.578.152 5.367.304 3.429.304 6.858.608 10.138 1.063 2.236.304 4.472.608 6.709.76-2.684.303-7.902.91-8.349 1.063-4.473 1.063-11.331 4.707-15.505 9.263-.596.152-1.342.304-1.938.607-4.92 2.278-7.454 8.2-4.622 13.06 3.877 6.834 17.741 8.049 24.599 6.682.448 0 4.622-1.518 7.306-2.43-1.491.76-2.982 1.52-4.473 2.43-2.982 1.67-5.963 3.341-9.094 5.163-1.491.912-2.982 1.975-4.622 2.886-1.491.911-2.981 2.126-4.621 3.189-3.578 2.581-7.007 5.315-10.436 8.048-1.342-2.733-6.56-12.148-10.734-15.337-4.026-3.19-10.138-6.227-15.505-4.708-5.218 1.367-8.498 6.834-6.56 12.149 2.833 7.289 16.399 10.782 23.257 10.326.447 0 5.367-.91 8.051-1.367-2.087 1.671-4.026 3.341-6.113 5.164-5.814 5.163-11.479 10.63-17.294 16.097-1.789 1.67-3.578 3.341-5.367 4.859-.447-.911-6.41-12.3-11.032-15.945-4.025-3.189-10.138-6.226-15.505-4.708-5.218 1.367-8.497 6.834-6.559 12.149 2.832 7.29 16.399 10.782 23.257 10.327.447 0 7.603-1.215 9.392-1.671-3.876 3.645-7.752 7.138-11.778 10.479-5.516 4.555-11.181 8.808-16.995 12.604-.298-.456-6.262-12.301-11.032-15.945-4.026-3.189-10.138-6.227-15.505-4.708-5.218 1.367-8.498 6.834-6.56 12.149 2.833 7.289 16.399 10.782 23.257 10.326.597 0 8.2-1.366 9.542-1.67a4.507 4.507 0 0 0-1.044.759c-6.261 3.797-12.672 6.834-18.934 9.264a175.545 175.545 0 0 1-10.585 3.644c-.894-2.278-5.218-12.908-9.094-16.704-3.727-3.645-9.392-7.29-14.908-6.378-5.218.911-9.244 5.922-7.753 11.389 1.938 7.593 15.058 12.453 22.065 12.908.447 0 4.174-.152 7.007-.455-1.64.455-3.131.911-4.622 1.366-5.665 1.519-10.883 2.582-15.654 3.493-2.683.456-5.069.911-7.305 1.215-2.087-1.822-10.436-8.96-15.505-10.478-4.92-1.519-11.628-1.975-16.1 1.366-4.324 3.189-5.517 9.568-1.79 13.82 5.218 5.922 19.083 3.948 25.345 1.063.596-.304 8.646-5.164 8.497-5.315 2.237-.304 4.473-.608 7.156-1.063 4.771-.76 9.99-1.671 15.803-3.038 5.666-1.366 11.927-3.037 18.189-5.467 6.41-2.277 12.97-5.163 19.381-8.959h.149c-1.491 1.67-5.665 6.53-5.964 6.985-3.876 5.771-8.05 19.438-3.279 25.665 3.429 4.555 9.69 4.404 13.566.607 4.026-3.796 4.622-10.63 4.026-15.945l.298-1.367Z" fill="#3AF2AE"/><path d="M57.81 37.795h-9.988c-6.858.91-19.68 6.682-21.17 14.426-1.044 5.62 3.13 10.327 8.498 10.783 5.516.455 10.883-3.493 14.46-7.442 4.026-4.555 8.2-17.767 8.2-17.767Z" fill="#3AF2AE"/></svg>