<svg width="486" height="444" fill="none" xmlns="http://www.w3.org/2000/svg"><path d="M200.692 30.22c0-.455-.596-.911-1.044-.76-.596 0-1.043.456-.894 1.064.298 3.493.596 7.137.894 10.63.597 0 1.342 0 1.938-.152-.298-3.492-.596-7.137-.894-10.63v-.152ZM296.702 29.765c-.596 0-1.043.303-1.043.759-.298 3.493-.596 7.137-.895 10.63.597 0 1.342 0 1.938.152.299-3.493.597-7.137.895-10.63 0-.456-.298-.911-.895-1.063v.152Z" fill="#07132B"/><path d="M333.228 86.864c.596-4.708 1.342-9.415 1.938-14.123h.447c0-.456.15-.911.299-1.367h-.448c.895-6.226 1.789-12.3 2.535-18.527.298 0 .596 0 1.043.152 0-.455.149-.911.299-1.367-.299 0-.746 0-1.044-.151l3.131-22.78c.596 0 1.192.152 1.789.304 0-.455.149-.91.298-1.366-.447 0-.895 0-1.342-.152l.447-2.734h.299v-.607h-.299c.448-.76.597-1.519.299-2.43-.299-.76-1.044-1.367-1.789-1.822-.299-.152-.597-.304-.895-.608-.149 0-.298-.303-.596-.455v-.152h.149v-.152c.149 0 .298 0 .298-.304 0-.152 0-.303-.298-.303v-.152h.149v-.152h-.149v.303c-.149 0-.298 0-.298.304 0 .152 0 .304.298.304h-.149v.304h-.448c-.447 0-.745.303-1.192.303-.895 0-1.64.608-2.087 1.063-.597.608-.746 1.519-.448 2.278h-.298v.608h.298c0 .91-.298 1.822-.447 2.733-.447 0-.894 0-1.193-.152 0 .456 0 .912-.149 1.367.597 0 1.193.152 1.789.304-1.341 7.441-2.832 15.034-4.174 22.475-.298 0-.745 0-1.044-.152 0 .456 0 .911-.149 1.367.298 0 .597 0 1.044.152-1.193 6.074-2.236 12.3-3.28 18.375h-.447c0 .455 0 .911-.149 1.367h.447c-.895 4.707-1.64 9.415-2.535 14.123a284.338 284.338 0 0 0-16.399-2.278l.895-10.479h.298v-1.063h-.298c.447-4.555.894-9.111 1.192-13.819h.746V56.34h-.746c.448-5.619 1.044-11.238 1.491-16.856h1.342V38.42h-.895c0-.608.15-1.367.299-1.975h.149v-.455h-.149c.298-.608.447-1.215 0-1.822-.299-.608-.746-1.063-1.342-1.215-.298 0-.447-.304-.596-.304 0 0-.299-.152-.448-.304v-.303s.298 0 .298-.152c0 0 0-.152-.149-.304v-.304.304s-.298 0-.298.152c0 0 0 .152.149.303h-.298c-.298 0-.596.152-.894.304-.597 0-1.193.456-1.491.911-.448.456-.448 1.215-.298 1.823h-.149v.455h.149c0 .608 0 1.367-.149 1.975h-.895v1.063h1.342l-2.237 16.856h-.745v1.063h.745c-.596 4.556-1.192 9.112-1.938 13.667h-.298v1.063h.298c-.447 3.493-.894 6.986-1.341 10.327-2.833-.304-5.666-.608-8.647-.911l3.578-40.091c-4.175-.456-8.349-.76-12.374-1.063h1.043c.298-3.645.448-7.138.746-10.782 0-.456-.448-.912-.895-.912-.596 0-1.043.304-1.043.912-.299 3.644-.448 7.137-.746 10.782h.746-1.491c-1.491 0-3.131-.152-4.622-.304l.298-5.315h.597v-1.367h-.597c.895-1.67.895-3.493 0-5.163-.745-1.519-2.236-2.734-3.876-3.341-.298 0-.596-.304-.894-.456-.448-.303-1.044-.455-1.491-.759-.298-.152-.597-.304-.746-.456v-.455c.149 0 .299 0 .299-.304 0-.152-.001-.304-.299-.304v-.151c.298 0 .746-.304.746-.608s-.298-.607-.597-.76v-.455c.149 0 .299 0 .299-.303 0-.152 0-.304-.299-.304v-.76h-.298v.76c-.149 0-.298 0-.298.304 0 .151 0 .303.298.303v.456c-.447 0-.745.303-.745.607s.298.608.596.76v.151c-.149 0-.298 0-.298.304 0 .152 0 .304.298.304v.455c-.447.152-.894.456-1.193.608-.447.152-.745.304-1.192.456-.298 0-.597.151-.895.303-1.043.304-1.938.76-2.832 1.367 0-2.126-.298-4.1-1.491-6.074-1.789-3.038-4.92-5.467-8.796-6.682-.597-.152-1.193-.456-1.789-.608-.895-.303-1.64-.76-2.386-1.063-.894-.455-1.639-.911-2.534-1.215v-.91c.298 0 .596-.305.596-.76 0-.304-.298-.608-.596-.76V6.53a1.35 1.35 0 0 0 1.342-1.367c0-.76-.597-1.215-1.342-1.367v-.759c.298 0 .596-.304.596-.76 0-.303-.298-.607-.596-.758V0h-.447v1.519c-.298 0-.597.303-.597.759 0 .455.299.607.597.76v.759c-.746 0-1.342.607-1.342 1.366 0 .76.596 1.215 1.342 1.367v.456c-.298 0-.597.303-.597.759 0 .304.299.607.597.76v.91c-.597.304-1.193.608-1.64.912-.746.303-1.342.759-2.087 1.063-.299 0-.448.151-.746.303-.745.304-1.342.608-2.087.911-3.578 1.215-6.411 3.493-8.051 6.379-1.043 1.67-1.49 3.644-1.49 5.466-.597-.303-1.044-.607-1.64-.759-.298 0-.597-.152-1.044-.303-.447-.152-1.043-.456-1.491-.608-.298 0-.596-.304-.894-.456v-.455c.149 0 .298-.152.298-.304s0-.304-.298-.304v-.151c.298 0 .596-.304.596-.76 0-.303-.298-.607-.745-.607v-.456c.149 0 .298-.152.298-.303 0-.152 0-.304-.298-.304v-.76h-.299v.76c-.149 0-.298.152-.298.304 0 .151 0 .303.298.303v.456c-.298 0-.596.303-.596.76 0 .303.298.607.746.607v.151c-.15 0-.299.152-.299.304s0 .304.299.304v.455c-.448.152-.746.456-1.193.608-.447.152-.746.456-1.193.607-.298 0-.596.304-.894.304-1.789.608-3.28 1.822-4.175 3.493-.894 1.67-.894 3.493 0 5.163h-.447v1.367h.596c0 1.822.15 3.493.299 5.315-1.789 0-3.429.152-5.218.304h-1.491.745c-.149-3.645-.447-7.138-.596-10.782 0-.456-.447-.912-1.044-.912-.596 0-1.043.456-.894.912.298 3.644.447 7.137.745 10.782h1.044c-4.175.303-8.349.607-12.374.91 1.192 13.364 2.236 26.728 3.429 40.092h1.341c-2.683.304-5.367.456-8.05.76-.447-3.494-.895-6.986-1.342-10.327h.298v-1.063h-.298l-1.789-13.668h.746v-1.063h-.746c-.745-5.619-1.342-11.237-2.087-16.856h1.342v-1.063h-.895c0-.608 0-1.367-.149-1.974h.149v-.456h-.149c.149-.608 0-1.215-.298-1.822-.298-.456-.895-.76-1.491-.912-.298 0-.596-.151-.894-.303h-.299s.149 0 .149-.304c0 0 0-.152-.298-.152v-.303.303s-.149 0-.149.304c0 0 0 .152.298.152v.152s-.298.151-.447.303c-.149 0-.447.304-.745.304a3.537 3.537 0 0 0-1.342 1.215 1.969 1.969 0 0 0 0 1.822h-.149v.456h.149c0 .607 0 1.367.149 1.974h-.894v1.063h1.341l1.342 16.857h-.745v1.063h.745c.298 4.555.745 9.263 1.044 13.819h-.299v1.063h.299l.894 10.478c-5.516.608-10.883 1.367-16.399 2.126-.746-4.707-1.64-9.415-2.386-14.123h.448c0-.455 0-.91-.149-1.367h-.448c-1.043-6.074-2.087-12.3-3.13-18.375.298 0 .596 0 1.043-.151 0-.456 0-.912-.149-1.367-.298 0-.745 0-1.043.152-1.342-7.593-2.684-15.035-4.026-22.628.597 0 1.193-.151 1.789-.303 0-.456 0-.911-.149-1.367-.447 0-.894 0-1.342.152 0-.911-.298-1.822-.447-2.734h.298v-.607h-.298c.298-.76 0-1.67-.447-2.278-.447-.607-1.193-1.063-2.087-1.215-.448 0-.895-.152-1.193-.303h-.447v-.304h-.149c.149 0 .298-.152.298-.304s-.149-.304-.298-.304v-.303h-.149v.152h.149v.151c-.149 0-.298.152-.298.304s.149.304.298.304v.152h.149v.151c-.149 0-.298.304-.597.304-.298.152-.596.456-.894.608-.895.455-1.491 1.063-1.789 1.822-.298.76-.298 1.67.298 2.43h-.298v.607h.298c0 .911.298 1.822.447 2.734-.447 0-.894 0-1.341.152 0 .455.149.91.298 1.366.596 0 1.192-.152 1.789-.303.894 7.593 1.938 15.186 2.981 22.779-.298 0-.745 0-1.043.151 0 .456.149.912.298 1.367.298 0 .596 0 1.044-.152.745 6.227 1.64 12.301 2.385 18.527h-.447c0 .456.149.911.298 1.367h.447l1.789 14.123-3.131.456c.746 4.1 0 25.208.597 29.309 56.652-9.719 114.497-9.568 171 .911.745-4.1 2.982-25.209 3.578-29.157-1.193-.152-2.236-.456-3.429-.608l-1.64.152ZM202.481 51.177c-.149-2.278.745-4.252 2.385-5.011.298-.304.596-.608 1.044-.912.447.304.894.608 1.192.76 1.64.455 2.982 2.277 3.131 4.555.298 3.493.447 7.138.746 10.63-2.535.153-5.069.304-7.455.608-.298-3.493-.596-7.137-.894-10.63h-.149Zm2.385 29.765c-.298-3.493-.596-7.138-.894-10.63-.149-2.279.745-4.253 2.236-5.012l.894-.911c.448.303.746.607 1.193.759 1.64.456 2.833 2.278 2.982 4.556.298 3.493.447 7.137.745 10.63-2.385.152-4.771.304-7.156.608Zm26.388-46.925c.895 0 1.789.607 1.789 1.518 0 2.126 0 4.1.149 6.227h-3.429c0-2.127 0-4.1-.149-6.227 0-.91.746-1.518 1.64-1.67v.152Zm-5.069.151c.895 0 1.789.608 1.789 1.52 0 2.125 0 4.1.149 6.225h-3.429c0-2.126-.149-4.1-.298-6.226 0-.911.746-1.518 1.64-1.67l.149.151Zm-4.92.152c.895 0 1.789.608 1.789 1.519 0 2.126.15 4.1.299 6.226-1.193 0-2.237 0-3.429.152 0-2.126-.149-4.1-.299-6.226 0-.911.746-1.67 1.64-1.67Zm-3.429 15.794c0-2.278 1.491-4.404 3.728-5.011.447-.304 1.043-.608 1.49-.912l1.789.911c2.386.456 4.175 2.278 4.175 4.708 0 3.493.298 7.138.298 10.63-3.727 0-7.454.304-11.181.456-.149-3.493-.448-7.138-.597-10.63l.298-.152Zm1.491 29.764c-.149-3.492-.447-7.137-.596-10.63 0-2.278 1.342-4.252 3.578-5.011.447-.304.895-.608 1.491-.911l1.789.91a5.118 5.118 0 0 1 4.174 4.709c0 3.492.298 7.137.298 10.63-3.578 0-7.156.303-10.734.455v-.152Zm18.487-.607c0-6.682-.298-13.364-.298-20.046 0-4.252 2.981-8.048 7.305-9.111.894-.608 1.938-1.063 2.832-1.67 1.044.607 2.237 1.214 3.28 1.822 4.473 1.063 7.604 4.86 7.455 9.111 0 6.682-.299 13.364-.448 20.046a444.49 444.49 0 0 0-20.126 0v-.152Zm25.791-37.51c0-2.126 0-4.1.15-6.226 0-.91.745-1.518 1.789-1.518.894 0 1.64.759 1.64 1.67 0 2.126-.15 4.1-.299 6.226h-3.429l.149-.151Zm11.927-7.289c.895 0 1.64.76 1.64 1.67 0 2.127-.149 4.1-.298 6.227-1.193 0-2.236 0-3.429-.152 0-2.126.149-4.1.298-6.226 0-.911.895-1.519 1.789-1.519Zm-4.92-.152c.895 0 1.64.76 1.64 1.67 0 2.127-.149 4.101-.298 6.227h-3.429c0-2.126.149-4.1.298-6.226 0-.911.895-1.519 1.789-1.519v-.152Zm-3.428 15.338c0-2.278 1.789-4.252 4.323-4.556l1.789-.91c.447.303 1.044.607 1.491.91 2.385.608 3.876 2.734 3.727 5.012-.149 3.493-.447 7.137-.596 10.63-3.728-.152-7.455-.456-11.033-.607 0-3.493.299-7.138.448-10.63l-.149.151Zm-1.044 29.917c0-3.493.298-7.138.447-10.63 0-2.278 1.789-4.253 4.175-4.556l1.789-.911c.447.303.894.607 1.49.91a4.885 4.885 0 0 1 3.578 5.012c-.149 3.493-.447 7.137-.596 10.63-3.578-.152-7.156-.455-10.734-.455h-.149Zm20.126-28.702c.149-2.278 1.491-4.252 3.131-4.556.447-.303.895-.607 1.193-.759l.894.911c1.491.608 2.535 2.734 2.386 5.012-.298 3.492-.597 7.137-.895 10.63-2.534-.152-4.92-.456-7.454-.608.298-3.492.447-6.985.745-10.63Zm-2.236 29.613c.298-3.493.447-6.986.746-10.63.149-2.278 1.341-4.252 2.981-4.556.447-.304.746-.608 1.193-.76l.894.912c1.491.607 2.386 2.733 2.237 5.011-.299 3.493-.597 7.138-.895 10.63-2.385-.151-4.771-.455-7.156-.607ZM472.026 28.094l-1.044-1.063 1.64-1.822c.298-.304.298-.608 0-.911l-.298-.304s-.298-.152-.447-.152c-.149 0-.298 0-.447.152l-1.64 1.822-1.044-1.063s-.298-.152-.447-.152c-.149 0-.298 0-.447.152l-.299.304c-.298.304-.298.607 0 .911l1.044 1.063-1.193 1.215c-3.13 2.43-11.479 8.808-22.511 14.123-.299-.304-.597-.304-.895 0l-1.491 1.67s-.149.304-.149.456v.304l-7.156 7.593c-.298-.152-.596 0-.894 0l-1.491 1.67s-.149.304-.149.456c-2.684 1.67-8.796 4.556-12.673 6.074l-1.49-1.518c-.299-.304-.597-.304-.895 0l-2.833 3.037s-.149.303-.149.455c0 .152 0 .304.149.456l1.193 1.063-5.069 5.467-1.192-1.063c-.299-.304-.597-.304-.895 0l-19.381 20.805c-.298.303-.298.607 0 .91l1.193 1.064-54.267 58.466c-.298.304-.298.608 0 .911l18.785 18.223h.596c.149 0 .298 0 .447-.151l54.267-58.467 1.193 1.063s.298.152.447.152c.149 0 .298 0 .447-.152l19.381-20.804c.298-.304.298-.608 0-.912l-1.193-1.063 5.069-5.467 1.193 1.064h.298c.298 0 .448 0 .746-.152l2.832-3.037s.149-.304.149-.456c0-.152 0-.304-.149-.456l-1.341-1.215c1.192-3.948 3.727-10.478 5.218-13.211.149 0 .298 0 .447-.152l1.491-1.67c.298-.304.298-.608 0-.912l7.156-7.745c0 .152.298.304.447.304.149 0 .298 0 .447-.152l1.491-1.67s.149-.304.149-.456c0-.152 0-.304-.149-.456h-.149c4.323-10.63 9.69-19.134 12.523-23.234l1.491-1.67 1.043 1.062s.299.152.448.152c.149 0 .298 0 .447-.152l.298-.303c.298-.304.298-.608 0-.912l-.298.456Z" fill="#07132B"/><path d="M417.163 96.583c3.429-3.644 3.28-9.415-.298-12.908-3.578-3.493-9.244-3.34-12.673.304-3.429 3.644-3.279 9.415.299 12.908 3.578 3.493 9.243 3.341 12.672-.304Z" fill="#fff"/><path d="M414.777 94.305c2.088-2.278 2.088-5.922-.149-8.2a5.733 5.733 0 0 0-8.05.152c-2.087 2.277-2.087 5.922.149 8.2a5.733 5.733 0 0 0 8.05-.152ZM416.716 83.675l-2.237 2.582M406.727 94.609l-2.236 2.43M417.163 96.583l-2.385-2.278M406.578 86.409l-2.386-2.278M419.399 88.383l-3.28.759M405.087 91.572l-3.131.759M419.25 92.635l-3.131-.76M405.087 88.99l-3.131-.911M414.33 98.71l-1.341-3.038M408.367 85.042l-1.342-3.038M409.56 99.468l.297-3.34M411.348 84.586l.447-3.189M411.051 92.331l-2.088-10.175M409.261 90.964l4.324-1.518" stroke="#07132B" stroke-width=".5" stroke-linecap="round" stroke-linejoin="round"/><path d="m128.088 114.806-1.64-1.518.596-.608-1.938-1.822-1.789 1.822c-9.541-3.644-19.977-10.478-24.3-13.515 0 0-.15 0-.299-.152 0 0-.15 0-.298-.152l.596-.607-1.938-1.823-.745.911C87.537 92.787 62.49 70.92 50.265 59.225c-1.938-1.822-3.578-3.492-4.77-4.707l-.746-.76v-.151l-3.28-3.341-1.789-1.67-1.64-1.52L36.4 48.9l-1.64-1.519-.894.912-6.56-6.227-.447.456 6.56 6.226-.895.911 1.64 1.519-1.64 1.822 1.64 1.519 2.087 1.974 3.131 3.037h.15l.148.152c1.342 1.063 3.131 2.734 5.367 4.86C57.273 76.234 80.231 100.38 85.6 108.884l-.895.911 1.938 1.822.596-.759s0 .152.15.304c0 0 0 .152.149.303 3.13 4.252 10.585 14.275 14.759 23.842l-1.789 1.975 1.938 1.822.596-.607 1.64 1.518 3.578 8.504 8.2 19.287 8.945-9.72-4.771-9.719c-2.385-4.707-1.49-10.478 2.088-14.274 3.429-3.645 8.497-5.012 13.268-3.341l11.032 3.948 8.946-9.719-28.028-10.023.149-.152Zm-35.78-9.415 1.043-1.063c7.603 6.834 18.636 14.427 22.064 16.705l-5.217 5.618c-2.535-3.492-10.735-14.123-17.89-21.412v.152ZM393.906 350.949c-25.196 32.194-55.013 60.592-87.96 84.282 17.592 3.645 36.078 7.441 54.117 8.049 2.684-6.226.746-14.883 1.491-21.716 4.025.303 8.2.455 12.225.759 21.021.759 17.89 3.645 16.996-17.616v-.303c-.447-6.682-.895-13.364-1.64-20.046 9.989-.759 21.319.304 30.86-2.43-.447-17.767-5.665-36.142-9.392-53.303-5.367 7.593-10.883 15.186-16.548 22.476l-.149-.152ZM485.295 169.02c.298 0-16.101-35.079-42.788-31.435.299.76.597 1.519.746 2.278-20.872 7.897-41.893 15.642-62.914 23.387.298.607.447 1.215.746 1.974 3.578-1.367 7.156-2.582 10.734-3.949.745-.303 1.49 0 1.789.912.298.759 0 1.67-.895 1.822-3.578 1.215-7.156 2.582-10.734 3.796l.895 2.734c4.025-1.367 8.05-2.734 12.075-4.252.746-.304 1.491.152 1.789.911.299.759 0 1.67-.894 1.822a1169.48 1169.48 0 0 1-12.225 4.101c.447 1.518 1.044 3.189 1.491 4.707 4.025-1.367 8.199-2.733 12.225-3.948.745-.304 1.64.304 1.789 1.063.298.911 0 1.822-.895 1.974-4.025 1.367-8.199 2.582-12.225 3.948.746 2.278 1.342 4.556 2.088 6.834 4.025-1.215 8.199-2.43 12.224-3.796.746-.304 1.64.455 1.939 1.67.298 1.215 0 2.278-.746 2.43-4.174 1.215-8.2 2.43-12.374 3.645.447 1.518.895 3.037 1.193 4.555 4.174-1.215 8.199-2.278 12.374-3.492 2.385-.76 4.92.911 5.665 3.492.745 2.582-.745 5.164-3.28 5.923-4.174 1.063-8.349 2.126-12.374 3.189.447 1.519.746 3.037 1.193 4.556 4.174-1.063 8.349-2.126 12.523-3.037 2.385-.608 4.92 1.063 5.516 3.644.596 2.582-.894 5.163-3.429 5.771-4.174.911-8.349 1.822-12.523 2.885l.895 4.556 12.523-2.733c2.534-.608 4.919 1.214 5.367 3.796.447 2.582-1.044 5.163-3.578 5.619-4.175.759-8.349 1.67-12.523 2.43.447 2.429.894 4.859 1.341 7.137 3.28-.607 6.709-1.215 9.989-1.822 3.131-.608 6.262 1.67 6.709 5.163.596 3.341-1.64 6.53-4.92 6.986-3.28.455-6.709 1.063-9.989 1.518l.448 3.189c3.727-.455 7.454-1.063 11.181-1.518 2.534-.304 4.92 1.518 5.367 4.252.298 2.733-1.491 5.163-4.025 5.619l-11.182 1.366.895 9.112c3.876-.456 7.603-.759 11.479-1.215 1.491-.152 2.833 1.063 2.982 2.582 0 1.518-.894 3.037-2.385 3.037-3.877.304-7.604.607-11.48 1.063 0 .759 0 1.518.149 2.126 3.876-.304 7.604-.608 11.48-.911 1.491 0 2.832 1.063 2.832 2.581 0 1.519-1.043 2.886-2.534 3.038-3.876.303-7.752.607-11.48.759 0 1.063 0 2.278.15 3.341 4.174-.304 8.199-.456 12.374-.76 1.043 0 1.938.76 1.938 1.823s-.746 1.974-1.789 2.126c-4.175.304-8.2.455-12.374.759v2.43c4.174-.152 8.199-.456 12.374-.608 1.043 0 1.938.76 1.938 1.823s-.746 1.974-1.789 2.126c-4.175.152-8.2.304-12.374.455v1.975c3.876 0 7.901-.304 11.777-.456.597 0 1.193.456 1.193 1.215 0 .607-.447 1.215-1.044 1.215-3.876 0-7.901.303-11.777.455v1.975c3.578 0 7.156-.152 10.734-.304.596 0 1.043.455 1.193 1.063 0 .607-.448 1.215-1.044 1.215-3.578 0-7.156.152-10.734.303v1.519c3.578 0 7.156 0 10.734-.152.596 0 1.044.456 1.044 1.215 0 .607-.448 1.215-1.044 1.215-3.578 0-7.156 0-10.734.152v1.67c12.672 0 25.195-.303 37.867-.455-.447.455 19.68-25.057 8.945-73.804-1.192.151-2.385.455-3.578.607-.298-1.974-.596-4.1-.894-6.074 1.342-.304 2.683-.456 4.025-.76-.447-2.581-.894-5.011-1.342-7.593-1.341.304-2.683.456-4.025.76-.745-4.556-1.64-9.112-2.534-13.516.298 0 .745-.152 1.043-.304.895-.151 1.789-.455 2.684-.607h.298c-.596-3.037-1.342-6.226-1.938-9.264 5.218-3.796 10.436-7.593 15.505-11.541.745-.607 1.491-1.215 2.385-1.822 1.342-.911 2.535-1.974 3.876-2.886-.596-2.581-1.341-5.163-1.938-7.593 4.175-1.214 8.2-2.277 12.374-3.492 1.193-1.671 2.535-3.341 3.727-5.012.597-.911 1.342-1.67 1.938-2.581l.597.303Zm-63.958-16.856c2.982-1.063 5.815-2.126 8.796-3.189 1.044-.304 2.237-.152 3.131.455.298.152.597.456.895.608l-11.182 4.1c-.596-.607-1.192-1.367-1.64-1.822v-.152Zm4.324 5.315a294.65 294.65 0 0 0 10.585-3.797c.596-.151 1.193 0 1.789.456.298.304.596.456.894.759 1.193 1.063.895 3.038-.298 3.493-3.131 1.215-6.261 2.582-9.392 3.797-1.193-1.671-2.236-3.341-3.429-4.708h-.149Zm5.963 8.504c3.727-1.215 7.604-2.43 11.331-3.796.745-.304 1.64 0 2.236.911.894 1.215.447 3.037-.745 3.493-3.578 1.063-7.007 2.126-10.585 3.189-.746-1.367-1.491-2.734-2.237-3.949v.152Zm4.026 7.441 11.628-3.644c1.044-.304 2.386 0 3.131 1.215v.151c1.491 1.975.745 4.708-1.193 5.315l-10.734 3.19c-.894-2.278-1.938-4.253-2.982-6.227h.15Zm-31.756-12.452c-.447-.608-1.043-1.215-1.639-1.823 2.236-.759 4.472-1.67 6.708-2.429 1.342-.456 2.833 0 3.728 1.063l-8.946 3.189h.149Zm3.429 6.226c-.447-.911-1.043-1.974-1.49-2.885 2.981-1.063 5.963-2.126 8.945-3.038.596-.151 1.192 0 1.64.456.745.911.447 2.43-.597 2.734a181.032 181.032 0 0 0-8.348 2.885l-.15-.152Zm4.026 8.352c-.746-1.67-1.64-3.341-2.386-5.163 3.131-1.063 6.262-2.126 9.244-3.037 1.043-.304 2.385 0 2.981 1.215.895 1.67.298 3.644-1.341 4.252l-8.498 2.733Zm4.174 10.327c-.894-2.43-1.789-4.708-2.683-7.138 3.279-1.063 6.708-2.126 9.988-3.189 1.342-.455 2.833.304 3.578 1.519.149.304.298.607.448.759 1.043 1.974.298 4.404-1.64 5.012-3.28.911-6.411 1.822-9.691 2.885v.152Zm4.622 12.756c-.895-2.733-1.789-5.315-2.684-8.049 3.429-.911 6.858-1.974 10.287-2.885 1.64-.455 3.578.608 4.174 2.43 0 .304.149.607.299.911.745 2.126-.299 4.556-2.237 5.011-3.28.912-6.559 1.671-9.839 2.582Zm3.876 14.427c-.746-3.189-1.64-6.378-2.534-9.567 3.578-.912 7.156-1.823 10.883-2.734 1.789-.455 3.727.759 4.472 2.734.149.607.447 1.214.597 1.822.745 2.43-.448 4.859-2.684 5.467-3.578.759-7.156 1.67-10.734 2.43v-.152Zm14.163 48.899c.149 1.518-.745 2.885-2.236 3.037-1.938.304-4.026.456-5.964.759-.149-1.822-.447-3.644-.596-5.467 1.938-.303 4.025-.455 5.963-.759 1.342-.152 2.684.911 2.833 2.43Zm-10.138-29.765c-.447-2.43-.894-5.011-1.342-7.441 2.088-.456 4.175-.911 6.262-1.215 1.64-.304 3.131.759 3.578 2.582 0 .455.149.911.298 1.367.149 1.67-.745 3.34-2.385 3.644-2.087.456-4.174.759-6.262 1.215l-.149-.152Zm1.789 14.579c-.447-3.341-1.043-6.53-1.491-9.871l7.604-1.367c.745 0 1.491 0 2.087.304l1.342 8.656c-.597.455-1.193.911-1.938.911-2.535.456-5.069.759-7.604 1.215v.152Zm-3.727 29.764-.447-5.467c3.578-.303 7.156-.759 10.734-1.215 1.342 0 2.683.912 2.833 2.582 0 1.519-.895 2.885-2.237 3.037-3.578.304-7.156.608-10.734 1.063h-.149Zm.298 3.493 10.287-.911c1.342 0 2.385 1.063 2.385 2.582 0 1.214-.894 2.126-1.938 2.126-3.429.303-6.857.607-10.436.759 0-1.519-.149-3.037-.298-4.556Zm.597 8.201c3.429-.304 6.708-.456 10.137-.76 1.044 0 1.938.911 1.938 2.126 0 1.063-.745 1.823-1.789 1.975-3.428.151-6.708.455-10.137.607 0-1.367 0-2.734-.298-3.948h.149Zm10.585 10.174c-3.28.152-6.709.304-9.989.456v-2.886c3.28-.151 6.709-.303 9.989-.607.894 0 1.64.911 1.341 1.822 0 .608-.596 1.063-1.192 1.215h-.149Zm7.156-4.252c.894 0 1.64.759 1.64 1.671 0 .911-.597 1.822-1.491 1.822-.895 0-1.64-.759-1.64-1.671 0-.911.596-1.822 1.491-1.822Zm2.981-22.323c.15 1.67-.894 3.189-2.385 3.341-1.491 0-2.833-1.063-2.982-2.734-.149-1.67.895-3.189 2.386-3.341 1.491-.152 2.832 1.063 2.981 2.734Zm6.56-81.397c-3.578.911-7.007 1.822-10.585 2.733-.894-2.885-1.938-5.619-2.982-8.2 3.728-1.063 7.455-2.126 11.033-3.189 1.491-.456 3.13.455 4.025 2.126.149.303.298.607.447 1.063 1.044 2.278 0 4.859-2.087 5.315l.149.152Z" fill="#07132B"/><path opacity=".1" d="M453.838 240.698c-3.429.608-7.007 1.215-10.436 1.671.298 2.278.596 4.404.894 6.682-5.516 2.126-10.883 4.1-16.399 6.226.596 4.252 1.044 8.656 1.491 12.908-8.2 2.126-16.4 4.1-24.599 5.923 3.876-.456 7.603-.76 11.479-1.215 1.491-.152 2.833 1.063 2.982 2.581 0 1.519-.894 3.038-2.385 3.038-3.877.303-7.604.759-11.48 1.063 0 .759 0 1.518.149 2.126 3.876-.304 7.604-.608 11.48-.912 1.491 0 2.832 1.063 2.832 2.582s-1.043 2.885-2.534 3.037c-3.876.304-7.752.608-11.48.76 0 1.063 0 2.277.15 3.341 4.174-.304 8.199-.456 12.374-.76 1.043 0 1.938.759 1.938 1.823 0 1.063-.746 1.974-1.789 2.126-4.175.303-8.2.455-12.374.759v2.43c4.174-.152 8.199-.456 12.374-.608 1.043 0 1.938.759 1.938 1.823 0 1.063-.746 1.974-1.789 2.126-4.175.151-8.2.303-12.374.455v1.974c3.876 0 7.901-.303 11.777-.455.597 0 1.193.455 1.193 1.215 0 .607-.447 1.214-1.044 1.214-3.876 0-7.901.304-11.777.456v1.974c3.578 0 7.156-.152 10.734-.303.596 0 1.043.455 1.193 1.063 0 .607-.448 1.214-1.044 1.214-3.578 0-7.156.152-10.734.304v1.519c3.578 0 7.156 0 10.734-.152.596 0 1.044.455 1.044 1.215 0 .607-.448 1.215-1.044 1.215-3.578 0-7.156 0-10.734.152v1.67c12.672 0 25.195-.304 37.867-.456-.447.456 19.68-25.057 8.945-73.804h.448Zm-23.854 24.905c-.149-1.822-.447-3.644-.596-5.467 1.938-.303 4.025-.455 5.963-.759 1.342-.152 2.684.911 2.833 2.43.149 1.519-.746 2.885-2.236 3.037-1.939.304-4.026.456-5.964.759Zm-3.876 10.934-.447-5.467c3.578-.303 7.156-.759 10.734-1.214 1.342 0 2.683.911 2.832 2.581 0 1.519-.894 2.885-2.236 3.037-3.578.304-7.156.608-10.734 1.063h-.149Zm16.25-4.252c-.149-1.67.895-3.189 2.386-3.341 1.49-.152 2.832 1.063 2.981 2.734.149 1.67-.894 3.189-2.385 3.341-1.491 0-2.833-1.063-2.982-2.734Zm-15.505 12.453c0-1.519-.149-3.037-.298-4.556l10.287-.911c1.342 0 2.385 1.063 2.385 2.581 0 1.215-.894 2.127-1.938 2.127-3.429.303-6.858.607-10.436.759Zm.448 7.593c0-1.367 0-2.734-.299-3.949 3.429-.303 6.709-.455 10.138-.759 1.044 0 1.938.911 1.938 2.126 0 1.063-.745 1.823-1.789 1.974-3.429.152-6.709.456-10.137.608h.149Zm17.443 1.822c.894 0 1.639.759 1.639 1.671 0 .911-.596 1.822-1.49 1.822-.895 0-1.64-.759-1.64-1.671 0-.911.596-1.822 1.491-1.822Zm-17.145 4.708v-2.886c3.28-.151 6.709-.303 9.988-.607.895 0 1.64.911 1.342 1.822 0 .608-.596 1.063-1.192 1.215-3.28.152-6.709.304-9.989.456h-.149Z" fill="#fff"/><path d="m102.743 164.768-1.342 6.378-9.243 1.519-1.192 5.619-9.095 1.063-.745 3.493-9.094.759-.597 3.189-8.945.456-1.043 5.467h-8.945l-.746 3.644H42.96c0-.152-1.043 4.708-1.043 4.708l-8.796-.456-.597 3.189-8.796-.759-1.49 7.593-5.07-1.063-5.068-1.063-5.07-1.063-1.937-.456-5.07 25.057 10.139 2.126 1.938.456 5.069 1.063-1.491 7.593 8.348 2.885-.596 3.189 8.2 3.038-1.044 4.859 8.2 3.341-.746 3.645 8.2 3.644-1.044 5.467 8.051 4.101-.596 3.189 8.05 4.404-.745 3.492 7.901 4.708-1.192 5.619 7.901 5.163-1.342 6.378 7.753 5.619 31.009-153.682-9.243 2.126v.303ZM20.15 221.564l-.745 3.796-6.709-1.366.745-3.797 6.71 1.367Z" fill="#07132B"/><g opacity=".3" fill="#fff"><path d="m75.55 225.724-3.627 17.999 2.483.519 3.627-17.999-2.482-.519ZM62.74 222.933l-3.627 18 2.483.519 3.627-18-2.482-.519ZM72.398 224.929l-3.627 18 2.483.519 3.627-18-2.483-.519ZM66.038 223.758l-3.627 18 2.483.519 3.627-18-2.483-.519ZM69.07 224.252l-3.626 18 2.482.519 3.628-18-2.483-.519ZM82.06 227.046l-3.627 18 2.482.519 3.628-18-2.483-.519ZM88.54 228.365l-3.628 18 2.483.519 3.627-18-2.482-.519ZM78.879 226.4l-3.628 18 2.483.519 3.627-18-2.483-.519ZM91.722 229.011l-3.628 18 2.483.519 3.627-18-2.482-.519ZM21.593 214.344l-3.627 18 1.752.367 3.628-18-1.753-.367ZM85.358 227.719l-3.627 18 2.482.519 3.628-17.999-2.483-.52ZM59.559 222.287l-3.628 18 2.483.519 3.627-18-2.482-.519ZM40.09 218.174l-3.627 18 2.482.519 3.628-18-2.483-.519ZM56.23 221.611l-3.627 17.999 2.483.519 3.628-17.999-2.483-.519ZM30.429 216.209 26.8 234.208l2.483.52 3.627-18-2.482-.519ZM94.966 229.633l-3.627 18 3.213.672 3.627-18-3.213-.672ZM23.95 214.738l-3.628 17.999 2.482.519 3.628-17.999-2.483-.519ZM33.61 216.855l-3.627 17.999 2.483.52 3.627-18-2.483-.519ZM27.1 215.532l-3.627 18 2.483.519 3.627-18-2.482-.519ZM53.08 220.816l-3.628 18 2.483.519 3.627-18-2.483-.519ZM49.751 220.291l-3.627 18 2.483.519 3.627-18-2.483-.519ZM43.418 218.851 39.79 236.85l2.482.519L45.9 219.37l-2.482-.519ZM36.908 217.68l-3.627 18 2.483.519 3.627-18-2.483-.519ZM46.57 219.645l-3.628 18 2.483.519 3.627-18-2.483-.519Z"/></g><path d="m62.49 378.739-3.876 1.063L61 382.839l-4.026 3.038-2.832.455.894 1.215-1.64 1.367 39.21 52.088 1.64-1.367 1.043 1.519 1.193-2.582-.298-.304 4.025-3.037 2.534 3.341 2.087-3.493-1.639-2.278 16.548-12.908 1.044 1.519 1.192-2.582-.298-.303 23.555-18.375-39.209-52.088-23.555 18.375-2.833.455.895 1.215-16.549 12.908-1.49-1.974v-.304Zm57.1-12.452 11.778 15.793-25.196 19.59c-4.323 3.341-10.436 2.43-13.716-1.822-3.28-4.404-2.385-10.63 1.79-13.971l25.195-19.59h.149Z" fill="#07132B"/></svg>