<svg width="681" height="522" fill="none" xmlns="http://www.w3.org/2000/svg"><path d="M590.043 446.013c-.894-6.074 2.833-19.438 2.833-19.438s7.901 5.163 8.349 5.619c5.217 4.556 12.821 16.553 9.839 23.842-2.087 5.315-8.349 6.834-12.97 4.252-4.771-2.581-7.305-9.111-8.051-14.275Z" fill="#3AF2AE"/><path d="M553.219 431.131c.596-5.923 7.156-16.856 7.753-17.768-6.113-3.644-12.076-7.896-17.742-12.604-3.279-2.582-6.559-5.467-9.839-8.201 1.342 1.519 2.385 2.886 2.534 3.038 3.877 5.77 8.051 19.438 3.28 25.664-3.429 4.556-9.69 4.404-13.567.608-4.025-3.797-4.621-10.631-4.025-15.946.597-5.315 5.964-14.882 7.454-17.312-1.192-1.063-2.534-2.126-3.727-3.341-5.814-5.315-11.628-10.63-17.592-15.641-2.087-1.823-4.174-3.493-6.261-5.164 1.192 1.367 2.087 2.43 2.236 2.734 3.876 5.771 8.051 19.438 3.28 25.664-3.429 4.556-9.691 4.404-13.567.608-4.025-3.797-4.621-10.631-4.025-15.946.596-5.011 5.516-13.819 7.156-16.856-2.236-1.671-4.324-3.341-6.56-4.86-1.491-1.063-2.982-1.974-4.472-2.885-1.491-.911-3.131-1.822-4.622-2.733a264.384 264.384 0 0 0-9.094-4.86c-2.087-1.063-4.025-2.126-5.964-3.037 2.088 1.67 6.113 5.163 6.411 5.619 4.771 5.163 10.883 17.919 7.156 24.905-2.683 5.011-8.945 5.77-13.417 2.733-4.473-3.189-6.113-9.871-6.411-15.034-.149-5.771 4.323-17.312 4.92-18.679-3.28-1.67-6.56-3.189-9.542-4.707-2.683-1.367-5.367-2.43-7.901-3.645l1.192-4.708c2.684 1.215 5.517 2.734 8.647 4.1 3.28 1.671 6.858 3.493 10.585 5.467.597-.759 3.877-5.315 7.604-9.111-3.131-5.012-5.367-16.401-5.665-17.768-3.579.456-7.157.911-10.436 1.519-2.237.303-4.473.759-6.56 1.063l1.342-5.012c1.49-.151 2.981-.455 4.621-.607 3.727-.456 7.604-.911 11.778-1.367 0-1.518.745-13.819 3.429-18.982 2.385-4.708 6.709-9.871 12.076-10.782 5.218-.912 10.585 2.581 10.883 8.352.447 7.897-10.436 16.705-16.847 19.286-.447.152-4.621 1.367-7.454 1.974l4.92-.455c3.429-.304 6.709-.608 10.436-.76 1.789 0 3.578 0 5.367-.151h5.516c4.323 0 8.647.455 13.119.911-.298-3.037-1.043-13.819.597-18.831 1.64-5.011 5.218-10.782 10.287-12.604 5.069-1.671 10.883.911 12.076 6.53 1.639 7.745-7.753 18.223-13.865 21.716-.299.152-4.92 2.278-7.455 3.341 2.684.303 5.218.607 7.902.911 7.603 1.063 15.356 2.43 23.108 3.644 2.385.456 4.771.76 7.156 1.063 0-1.063-1.342-13.819.596-19.438 1.64-5.011 5.218-10.782 10.287-12.604 5.069-1.67 10.883.911 12.076 6.53 1.64 7.745-7.752 18.223-13.865 21.716-.447.304-7.007 3.189-8.796 3.948 5.218.76 10.436 1.519 15.505 2.126 7.156.76 14.163 1.063 20.872.912 0-.456-1.342-13.82.596-19.59 1.64-5.012 5.218-10.782 10.287-12.605 5.069-1.67 10.883.911 12.076 6.53 1.64 7.745-7.752 18.223-13.865 21.716-.447.304-7.603 3.493-8.945 3.949h1.193c7.305-.304 14.312-1.519 20.723-2.886 3.727-.759 7.305-1.822 10.734-2.885-.448-2.43-2.684-13.668-1.491-18.983 1.192-5.163 4.025-11.389 8.945-13.667 4.92-2.278 10.883-.304 12.672 5.163 2.534 7.441-5.814 18.983-11.33 23.083-.299.152-3.578 2.278-6.113 3.645 1.491-.456 3.131-1.063 4.622-1.519 5.516-1.974 10.585-3.948 14.908-5.923 2.535-1.063 4.771-2.126 6.709-3.189.745-2.733 3.876-13.363 7.305-17.464 3.28-4.1 8.647-8.2 14.163-7.896 5.367.303 9.84 4.859 8.945 10.478-1.192 7.745-13.715 14.123-20.573 15.186-.597 0-9.989.456-9.989.456v-.152c-1.938 1.063-4.174 2.126-6.411 3.189-4.323 1.974-9.243 4.252-14.759 6.226-5.516 2.126-11.629 4.1-18.188 5.771-6.56 1.67-13.567 3.037-21.021 3.493h-.299c2.237.607 8.349 2.277 8.796 2.429 6.411 2.734 17.294 11.694 16.698 19.59-.447 5.619-5.814 9.112-11.032 8.201-5.367-.911-9.691-6.227-11.927-10.934-2.684-5.315-3.131-18.223-3.28-19.135-7.007.304-14.312 0-21.617-.455-4.175-.304-8.349-.911-12.672-1.367 1.938.608 3.578 1.063 3.876 1.063 6.41 2.734 17.294 11.693 16.697 19.59-.447 5.619-5.814 9.112-11.032 8.201-5.367-.912-9.691-6.227-11.927-10.934-2.385-4.708-2.981-15.642-3.131-18.679-1.64-.152-3.279-.456-4.919-.608-7.753-1.063-15.505-2.278-23.109-3.189-2.683-.303-5.367-.455-8.05-.759 1.64.456 3.131.911 3.28 1.063 6.41 2.734 17.294 11.693 16.697 19.59-.447 5.619-5.814 9.112-11.032 8.2-5.367-.911-9.691-6.226-11.927-10.933-2.236-4.556-2.981-14.579-3.131-18.072-2.683 0-5.516-.304-8.05-.304h-5.367c-1.789 0-3.578.152-5.367.304-3.429.304-6.858.608-10.138 1.063-2.236.304-4.473.608-6.709.759 2.684.304 7.902.912 8.349 1.064 4.472 1.063 11.33 4.707 15.505 9.263.596.152 1.342.304 1.938.607 4.92 2.278 7.454 8.201 4.621 13.06-3.876 6.834-17.741 8.049-24.599 6.682-.447 0-4.621-1.518-7.305-2.43 1.491.76 2.982 1.519 4.473 2.43 2.982 1.671 5.963 3.341 9.094 5.163 1.491.912 2.982 1.975 4.622 2.886 1.491.911 2.981 2.126 4.621 3.189 3.578 2.581 7.007 5.315 10.436 8.048 1.342-2.733 6.56-12.148 10.734-15.337 4.026-3.189 10.138-6.227 15.505-4.708 5.218 1.367 8.498 6.834 6.56 12.149-2.833 7.289-16.399 10.782-23.257 10.326-.448 0-5.367-.911-8.051-1.367 2.087 1.671 4.025 3.341 6.113 5.164 5.814 5.163 11.479 10.63 17.293 16.097 1.789 1.67 3.578 3.341 5.367 4.859.448-.911 6.411-12.3 11.033-15.945 4.025-3.189 10.137-6.226 15.505-4.708 5.217 1.367 8.497 6.834 6.559 12.149-2.832 7.29-16.399 10.782-23.257 10.327-.447 0-7.603-1.215-9.392-1.671 3.876 3.645 7.752 7.138 11.777 10.479 5.517 4.555 11.182 8.808 16.996 12.604.298-.456 6.262-12.301 11.032-15.945 4.026-3.189 10.138-6.227 15.505-4.708 5.218 1.367 8.498 6.834 6.56 12.149-2.833 7.289-16.399 10.782-23.257 10.326-.597 0-8.2-1.366-9.542-1.67.298.152.746.455 1.044.759 6.261 3.797 12.672 6.834 18.934 9.264a175.521 175.521 0 0 0 10.585 3.644c.894-2.278 5.218-12.908 9.094-16.704 3.727-3.645 9.392-7.29 14.908-6.378 5.218.911 9.244 5.922 7.753 11.389-1.938 7.593-15.058 12.453-22.065 12.908-.447 0-4.174-.152-7.007-.455 1.64.455 3.131.911 4.622 1.366 5.665 1.519 10.883 2.582 15.654 3.493 2.683.456 5.069.911 7.305 1.215 2.087-1.822 10.436-8.96 15.505-10.478 4.919-1.519 11.628-1.975 16.101 1.366 4.323 3.189 5.516 9.568 1.789 13.82-5.218 5.922-19.083 3.948-25.345 1.063-.596-.304-8.647-5.164-8.497-5.315-2.237-.304-4.473-.608-7.157-1.063-4.77-.76-9.988-1.671-15.803-3.038-5.665-1.366-11.926-3.037-18.188-5.467-6.41-2.277-12.97-5.163-19.381-8.959h-.149c1.491 1.67 5.665 6.53 5.963 6.985 3.877 5.771 8.051 19.438 3.28 25.665-3.429 4.555-9.69 4.404-13.566.607-4.026-3.796-4.622-10.63-4.026-15.945l-.298-1.367Z" fill="#3AF2AE"/><path d="M622.395 309.795h9.988c6.858.911 19.679 6.682 21.17 14.426 1.044 5.619-3.131 10.327-8.498 10.783-5.516.455-10.883-3.493-14.461-7.442-4.025-4.555-8.199-17.767-8.199-17.767ZM90.31 446.013c.895-6.074-2.832-19.438-2.832-19.438s-7.901 5.163-8.349 5.619c-5.218 4.556-12.82 16.553-9.84 23.842 2.088 5.315 8.35 6.834 12.971 4.252 4.77-2.581 7.305-9.111 8.05-14.275Z" fill="#3AF2AE"/><path d="M127.135 431.131c-.597-5.923-7.156-16.856-7.753-17.768 6.113-3.644 12.076-7.896 17.741-12.604 3.28-2.582 6.56-5.467 9.84-8.201-1.342 1.519-2.385 2.886-2.534 3.038-3.877 5.77-8.051 19.438-3.28 25.664 3.429 4.556 9.69 4.404 13.566.608 4.026-3.797 4.622-10.631 4.026-15.946-.597-5.315-5.964-14.882-7.455-17.312 1.193-1.063 2.535-2.126 3.728-3.341 5.814-5.315 11.628-10.63 17.592-15.641 2.087-1.823 4.174-3.493 6.261-5.164-1.193 1.367-2.087 2.43-2.236 2.734-3.876 5.771-8.051 19.438-3.28 25.664 3.429 4.556 9.691 4.404 13.567.608 4.025-3.797 4.621-10.631 4.025-15.946-.596-5.011-5.516-13.819-7.156-16.856 2.236-1.671 4.323-3.341 6.56-4.86 1.491-1.063 2.981-1.974 4.472-2.885 1.491-.911 3.131-1.822 4.622-2.733a264.384 264.384 0 0 1 9.094-4.86c2.087-1.063 4.025-2.126 5.963-3.037-2.087 1.67-6.112 5.163-6.41 5.619-4.771 5.163-10.883 17.919-7.156 24.905 2.683 5.011 8.945 5.77 13.417 2.733 4.473-3.189 6.113-9.871 6.411-15.034.149-5.771-4.323-17.312-4.92-18.679 3.28-1.67 6.56-3.189 9.542-4.707 2.683-1.367 5.367-2.43 7.901-3.645l-1.193-4.708c-2.683 1.215-5.516 2.734-8.647 4.1-3.279 1.671-6.857 3.493-10.585 5.467-.596-.759-3.876-5.315-7.603-9.111 3.131-5.012 5.367-16.401 5.665-17.768 3.578.456 7.156.911 10.436 1.519 2.237.303 4.473.759 6.56 1.063l-1.342-5.012c-1.491-.151-2.981-.455-4.621-.607a908.649 908.649 0 0 0-11.778-1.367c0-1.518-.745-13.819-3.429-18.982-2.385-4.708-6.709-9.871-12.076-10.782-5.218-.912-10.585 2.581-10.883 8.352-.447 7.897 10.436 16.705 16.847 19.286.447.152 4.621 1.367 7.454 1.974l-4.92-.455c-3.429-.304-6.709-.608-10.436-.76-1.789 0-3.578 0-5.367-.151h-5.516c-4.324 0-8.647.455-13.12.911.299-3.037 1.044-13.819-.596-18.831-1.64-5.011-5.218-10.782-10.287-12.604-5.069-1.671-10.883.911-12.076 6.53-1.64 7.745 7.753 18.223 13.865 21.716.298.152 4.92 2.278 7.454 3.341-2.683.303-5.218.607-7.901.911-7.603 1.063-15.356 2.43-23.108 3.644-2.386.456-4.771.76-7.156 1.063 0-1.063 1.342-13.819-.597-19.438-1.64-5.011-5.218-10.782-10.286-12.604-5.069-1.67-10.884.911-12.076 6.53-1.64 7.745 7.752 18.223 13.865 21.716.447.304 7.007 3.189 8.796 3.948-5.218.76-10.436 1.519-15.505 2.126-7.156.76-14.163 1.063-20.872.912 0-.456 1.342-13.82-.596-19.59-1.64-5.012-5.218-10.782-10.287-12.605-5.07-1.67-10.883.911-12.076 6.53-1.64 7.745 7.752 18.223 13.865 21.716.447.304 7.603 3.493 8.945 3.949h-1.193c-7.305-.304-14.312-1.519-20.723-2.886-3.727-.759-7.305-1.822-10.734-2.885.447-2.43 2.684-13.668 1.491-18.983-1.193-5.163-4.025-11.389-8.945-13.667-4.92-2.278-10.883-.304-12.672 5.163-2.535 7.441 5.814 18.983 11.33 23.083.298.152 3.578 2.278 6.113 3.645-1.491-.456-3.131-1.063-4.622-1.519-5.516-1.974-10.585-3.948-14.908-5.923-2.535-1.063-4.771-2.126-6.71-3.189-.745-2.733-3.875-13.363-7.304-17.464-3.28-4.1-8.647-8.2-14.163-7.896-5.367.303-9.84 4.859-8.945 10.478 1.192 7.745 13.715 14.123 20.573 15.186.597 0 9.989.456 9.989.456v-.152c1.938 1.063 4.174 2.126 6.41 3.189 4.324 1.974 9.244 4.252 14.76 6.226 5.516 2.126 11.629 4.1 18.188 5.771 6.56 1.67 13.567 3.037 21.021 3.493h.298c-2.236.607-8.348 2.277-8.796 2.429-6.41 2.734-17.293 11.694-16.697 19.59.447 5.619 5.814 9.112 11.032 8.201 5.367-.911 9.69-6.227 11.927-10.934 2.684-5.315 3.13-18.223 3.28-19.135 7.007.304 14.312 0 21.617-.455 4.174-.304 8.349-.911 12.672-1.367-1.938.608-3.578 1.063-3.876 1.063-6.411 2.734-17.294 11.693-16.697 19.59.447 5.619 5.814 9.112 11.032 8.201 5.367-.912 9.69-6.227 11.927-10.934 2.385-4.708 2.981-15.642 3.13-18.679 1.64-.152 3.28-.456 4.92-.608 7.753-1.063 15.505-2.278 23.108-3.189 2.684-.303 5.367-.455 8.051-.759-1.64.456-3.131.911-3.28 1.063-6.411 2.734-17.294 11.693-16.697 19.59.447 5.619 5.814 9.112 11.032 8.2 5.367-.911 9.69-6.226 11.927-10.933 2.236-4.556 2.981-14.579 3.13-18.072 2.684 0 5.517-.304 8.051-.304h5.367c1.789 0 3.578.152 5.367.304 3.429.304 6.858.608 10.138 1.063 2.236.304 4.472.608 6.709.759-2.684.304-7.902.912-8.349 1.064-4.473 1.063-11.331 4.707-15.505 9.263-.596.152-1.342.304-1.938.607-4.92 2.278-7.454 8.201-4.622 13.06 3.877 6.834 17.741 8.049 24.599 6.682.448 0 4.622-1.518 7.306-2.43-1.491.76-2.982 1.519-4.473 2.43-2.982 1.671-5.963 3.341-9.094 5.163-1.491.912-2.982 1.975-4.622 2.886-1.491.911-2.981 2.126-4.621 3.189-3.578 2.581-7.007 5.315-10.436 8.048-1.342-2.733-6.56-12.148-10.734-15.337-4.026-3.189-10.138-6.227-15.505-4.708-5.218 1.367-8.498 6.834-6.56 12.149 2.833 7.289 16.399 10.782 23.257 10.326.447 0 5.367-.911 8.051-1.367-2.087 1.671-4.026 3.341-6.113 5.164-5.814 5.163-11.479 10.63-17.294 16.097-1.789 1.67-3.578 3.341-5.367 4.859-.447-.911-6.41-12.3-11.032-15.945-4.025-3.189-10.138-6.226-15.505-4.708-5.218 1.367-8.497 6.834-6.559 12.149 2.832 7.29 16.399 10.782 23.257 10.327.447 0 7.603-1.215 9.392-1.671-3.876 3.645-7.752 7.138-11.778 10.479-5.516 4.555-11.181 8.808-16.995 12.604-.298-.456-6.262-12.301-11.032-15.945-4.026-3.189-10.138-6.227-15.505-4.708-5.218 1.367-8.498 6.834-6.56 12.149 2.833 7.289 16.399 10.782 23.257 10.326.597 0 8.2-1.366 9.542-1.67a4.507 4.507 0 0 0-1.044.759c-6.261 3.797-12.672 6.834-18.934 9.264a175.545 175.545 0 0 1-10.585 3.644c-.894-2.278-5.218-12.908-9.094-16.704-3.727-3.645-9.392-7.29-14.908-6.378-5.218.911-9.244 5.922-7.753 11.389 1.938 7.593 15.058 12.453 22.065 12.908.447 0 4.174-.152 7.007-.455-1.64.455-3.131.911-4.622 1.366-5.665 1.519-10.883 2.582-15.654 3.493-2.683.456-5.069.911-7.305 1.215-2.087-1.822-10.436-8.96-15.505-10.478-4.92-1.519-11.628-1.975-16.1 1.366-4.324 3.189-5.517 9.568-1.79 13.82 5.218 5.922 19.083 3.948 25.345 1.063.596-.304 8.646-5.164 8.497-5.315 2.237-.304 4.473-.608 7.156-1.063 4.771-.76 9.99-1.671 15.803-3.038 5.666-1.366 11.927-3.037 18.189-5.467 6.41-2.277 12.97-5.163 19.381-8.959h.149c-1.491 1.67-5.665 6.53-5.964 6.985-3.876 5.771-8.05 19.438-3.279 25.665 3.429 4.555 9.69 4.404 13.566.607 4.026-3.796 4.622-10.63 4.026-15.945l.298-1.367Z" fill="#3AF2AE"/><path d="M57.81 309.795h-9.988c-6.858.911-19.68 6.682-21.17 14.426-1.044 5.619 3.13 10.327 8.498 10.783 5.516.455 10.883-3.493 14.46-7.442 4.026-4.555 8.2-17.767 8.2-17.767Z" fill="#3AF2AE"/><path d="M280.692 30.22c0-.455-.596-.911-1.044-.76-.596 0-1.043.456-.894 1.064.298 3.493.596 7.137.894 10.63.597 0 1.342 0 1.938-.152-.298-3.492-.596-7.137-.894-10.63v-.152ZM376.702 29.765c-.596 0-1.043.303-1.043.759-.298 3.493-.596 7.137-.895 10.63.597 0 1.342 0 1.938.152.299-3.493.597-7.137.895-10.63 0-.456-.298-.911-.895-1.063v.152Z" fill="#07132B"/><path d="M413.228 86.864c.596-4.708 1.342-9.415 1.938-14.123h.447c0-.456.15-.911.299-1.367h-.448c.895-6.226 1.789-12.3 2.535-18.527.298 0 .596 0 1.043.152 0-.455.149-.911.299-1.367-.299 0-.746 0-1.044-.151l3.131-22.78c.596 0 1.192.152 1.789.304 0-.455.149-.91.298-1.366-.447 0-.895 0-1.342-.152l.447-2.734h.299v-.607h-.299c.448-.76.597-1.519.299-2.43-.299-.76-1.044-1.367-1.789-1.822-.299-.152-.597-.304-.895-.608-.149 0-.298-.303-.596-.455v-.152h.149v-.152c.149 0 .298 0 .298-.304 0-.152 0-.303-.298-.303v-.152h.149v-.152h-.149v.303c-.149 0-.298 0-.298.304 0 .152 0 .304.298.304h-.149v.304h-.448c-.447 0-.745.303-1.192.303-.895 0-1.64.608-2.087 1.063-.597.608-.746 1.519-.448 2.278h-.298v.608h.298c0 .91-.298 1.822-.447 2.733-.447 0-.894 0-1.193-.152 0 .456 0 .912-.149 1.367.597 0 1.193.152 1.789.304-1.341 7.441-2.832 15.034-4.174 22.475-.298 0-.745 0-1.044-.152 0 .456 0 .911-.149 1.367.298 0 .597 0 1.044.152-1.193 6.074-2.236 12.3-3.28 18.375h-.447c0 .455 0 .911-.149 1.367h.447c-.895 4.707-1.64 9.415-2.535 14.123a284.338 284.338 0 0 0-16.399-2.278l.895-10.479h.298v-1.063h-.298c.447-4.555.894-9.111 1.192-13.819h.746V56.34h-.746c.448-5.619 1.044-11.238 1.491-16.856h1.342V38.42h-.895c0-.608.15-1.367.299-1.975h.149v-.455h-.149c.298-.608.447-1.215 0-1.822-.299-.608-.746-1.063-1.342-1.215-.298 0-.447-.304-.596-.304 0 0-.299-.152-.448-.304v-.303s.298 0 .298-.152c0 0 0-.152-.149-.304v-.304.304s-.298 0-.298.152c0 0 0 .152.149.303h-.298c-.298 0-.596.152-.894.304-.597 0-1.193.456-1.491.911-.448.456-.448 1.215-.298 1.823h-.149v.455h.149c0 .608 0 1.367-.149 1.975h-.895v1.063h1.342l-2.237 16.856h-.745v1.063h.745c-.596 4.556-1.192 9.112-1.938 13.667h-.298v1.063h.298c-.447 3.493-.894 6.986-1.341 10.327-2.833-.304-5.666-.608-8.647-.911l3.578-40.091c-4.175-.456-8.349-.76-12.374-1.063h1.043c.298-3.645.448-7.138.746-10.782 0-.456-.448-.912-.895-.912-.596 0-1.043.304-1.043.912-.299 3.644-.448 7.137-.746 10.782h.746-1.491c-1.491 0-3.131-.152-4.622-.304l.298-5.315h.597v-1.367h-.597c.895-1.67.895-3.493 0-5.163-.745-1.519-2.236-2.734-3.876-3.341-.298 0-.596-.304-.894-.456-.448-.303-1.044-.455-1.491-.759-.298-.152-.597-.304-.746-.456v-.455c.149 0 .299 0 .299-.304 0-.152-.001-.304-.299-.304v-.151c.298 0 .746-.304.746-.608s-.298-.607-.597-.76v-.455c.149 0 .299 0 .299-.303 0-.152 0-.304-.299-.304v-.76h-.298v.76c-.149 0-.298 0-.298.304 0 .151 0 .303.298.303v.456c-.447 0-.745.303-.745.607s.298.608.596.76v.151c-.149 0-.298 0-.298.304 0 .152 0 .304.298.304v.455c-.447.152-.894.456-1.193.608-.447.152-.745.304-1.192.456-.298 0-.597.151-.895.303-1.043.304-1.938.76-2.832 1.367 0-2.126-.298-4.1-1.491-6.074-1.789-3.038-4.92-5.467-8.796-6.682-.597-.152-1.193-.456-1.789-.608-.895-.303-1.64-.76-2.386-1.063-.894-.455-1.639-.911-2.534-1.215v-.91c.298 0 .596-.305.596-.76 0-.304-.298-.608-.596-.76V6.53a1.35 1.35 0 0 0 1.342-1.367c0-.76-.597-1.215-1.342-1.367v-.759c.298 0 .596-.304.596-.76 0-.303-.298-.607-.596-.758V0h-.447v1.519c-.298 0-.597.303-.597.759 0 .455.299.607.597.76v.759c-.746 0-1.342.607-1.342 1.366 0 .76.596 1.215 1.342 1.367v.456c-.298 0-.597.303-.597.759 0 .304.299.607.597.76v.91c-.597.304-1.193.608-1.64.912-.746.303-1.342.759-2.087 1.063-.299 0-.448.151-.746.303-.745.304-1.342.608-2.087.911-3.578 1.215-6.411 3.493-8.051 6.379-1.043 1.67-1.49 3.644-1.49 5.466-.597-.303-1.044-.607-1.64-.759-.298 0-.597-.152-1.044-.303-.447-.152-1.043-.456-1.491-.608-.298 0-.596-.304-.894-.456v-.455c.149 0 .298-.152.298-.304s0-.304-.298-.304v-.151c.298 0 .596-.304.596-.76 0-.303-.298-.607-.745-.607v-.456c.149 0 .298-.152.298-.303 0-.152 0-.304-.298-.304v-.76h-.299v.76c-.149 0-.298.152-.298.304 0 .151 0 .303.298.303v.456c-.298 0-.596.303-.596.76 0 .303.298.607.746.607v.151c-.15 0-.299.152-.299.304s0 .304.299.304v.455c-.448.152-.746.456-1.193.608-.447.152-.746.456-1.193.607-.298 0-.596.304-.894.304-1.789.608-3.28 1.822-4.175 3.493-.894 1.67-.894 3.493 0 5.163h-.447v1.367h.596c0 1.822.15 3.493.299 5.315-1.789 0-3.429.152-5.218.304h-1.491.745c-.149-3.645-.447-7.138-.596-10.782 0-.456-.447-.912-1.044-.912-.596 0-1.043.456-.894.912.298 3.644.447 7.137.745 10.782h1.044c-4.175.303-8.349.607-12.374.91 1.192 13.364 2.236 26.728 3.429 40.092h1.341c-2.683.304-5.367.456-8.05.76-.447-3.494-.895-6.986-1.342-10.327h.298v-1.063h-.298l-1.789-13.668h.746v-1.063h-.746c-.745-5.619-1.342-11.237-2.087-16.856h1.342v-1.063h-.895c0-.608 0-1.367-.149-1.974h.149v-.456h-.149c.149-.608 0-1.215-.298-1.822-.298-.456-.895-.76-1.491-.912-.298 0-.596-.151-.894-.303h-.299s.149 0 .149-.304c0 0 0-.152-.298-.152v-.303.303s-.149 0-.149.304c0 0 0 .152.298.152v.152s-.298.151-.447.303c-.149 0-.447.304-.745.304a3.537 3.537 0 0 0-1.342 1.215 1.969 1.969 0 0 0 0 1.822h-.149v.456h.149c0 .607 0 1.367.149 1.974h-.894v1.063h1.341l1.342 16.857h-.745v1.063h.745c.298 4.555.745 9.263 1.044 13.819h-.299v1.063h.299l.894 10.478c-5.516.608-10.883 1.367-16.399 2.126-.746-4.707-1.64-9.415-2.386-14.123h.448c0-.455 0-.91-.149-1.367h-.448c-1.043-6.074-2.087-12.3-3.13-18.375.298 0 .596 0 1.043-.151 0-.456 0-.912-.149-1.367-.298 0-.745 0-1.043.152-1.342-7.593-2.684-15.035-4.026-22.628.597 0 1.193-.151 1.789-.303 0-.456 0-.911-.149-1.367-.447 0-.894 0-1.342.152 0-.911-.298-1.822-.447-2.734h.298v-.607h-.298c.298-.76 0-1.67-.447-2.278-.447-.607-1.193-1.063-2.087-1.215-.448 0-.895-.152-1.193-.303h-.447v-.304h-.149c.149 0 .298-.152.298-.304s-.149-.304-.298-.304v-.303h-.149v.152h.149v.151c-.149 0-.298.152-.298.304s.149.304.298.304v.152h.149v.151c-.149 0-.298.304-.597.304-.298.152-.596.456-.894.608-.895.455-1.491 1.063-1.789 1.822-.298.76-.298 1.67.298 2.43h-.298v.607h.298c0 .911.298 1.822.447 2.734-.447 0-.894 0-1.341.152 0 .455.149.91.298 1.366.596 0 1.192-.152 1.789-.303.894 7.593 1.938 15.186 2.981 22.779-.298 0-.745 0-1.043.151 0 .456.149.912.298 1.367.298 0 .596 0 1.044-.152.745 6.227 1.64 12.301 2.385 18.527h-.447c0 .456.149.911.298 1.367h.447l1.789 14.123-3.131.456c.746 4.1 0 25.208.597 29.309 56.652-9.719 114.497-9.568 171 .911.745-4.1 2.982-25.209 3.578-29.157-1.193-.152-2.236-.456-3.429-.608l-1.64.152ZM282.481 51.177c-.149-2.278.745-4.252 2.385-5.011.298-.304.596-.608 1.044-.912.447.304.894.608 1.192.76 1.64.455 2.982 2.277 3.131 4.555.298 3.493.447 7.138.746 10.63-2.535.153-5.069.304-7.455.608-.298-3.493-.596-7.137-.894-10.63h-.149Zm2.385 29.765c-.298-3.493-.596-7.138-.894-10.63-.149-2.279.745-4.253 2.236-5.012l.894-.911c.448.303.746.607 1.193.759 1.64.456 2.833 2.278 2.982 4.556.298 3.493.447 7.137.745 10.63-2.385.152-4.771.304-7.156.608Zm26.388-46.925c.895 0 1.789.607 1.789 1.518 0 2.126 0 4.1.149 6.227h-3.429c0-2.127 0-4.1-.149-6.227 0-.91.746-1.518 1.64-1.67v.152Zm-5.069.151c.895 0 1.789.608 1.789 1.52 0 2.125 0 4.1.149 6.225h-3.429c0-2.126-.149-4.1-.298-6.226 0-.911.746-1.518 1.64-1.67l.149.151Zm-4.92.152c.895 0 1.789.608 1.789 1.519 0 2.126.15 4.1.299 6.226-1.193 0-2.237 0-3.429.152 0-2.126-.149-4.1-.299-6.226 0-.911.746-1.67 1.64-1.67Zm-3.429 15.794c0-2.278 1.491-4.404 3.728-5.011.447-.304 1.043-.608 1.49-.912l1.789.911c2.386.456 4.175 2.278 4.175 4.708 0 3.493.298 7.138.298 10.63-3.727 0-7.454.304-11.181.456-.149-3.493-.448-7.138-.597-10.63l.298-.152Zm1.491 29.764c-.149-3.492-.447-7.137-.596-10.63 0-2.278 1.342-4.252 3.578-5.011.447-.304.895-.608 1.491-.911l1.789.91a5.118 5.118 0 0 1 4.174 4.709c0 3.492.298 7.137.298 10.63-3.578 0-7.156.303-10.734.455v-.152Zm18.487-.607c0-6.682-.298-13.364-.298-20.046 0-4.252 2.981-8.048 7.305-9.111.894-.608 1.938-1.063 2.832-1.67 1.044.607 2.237 1.214 3.28 1.822 4.473 1.063 7.604 4.86 7.455 9.111 0 6.682-.299 13.364-.448 20.046a444.49 444.49 0 0 0-20.126 0v-.152Zm25.791-37.51c0-2.126 0-4.1.15-6.226 0-.91.745-1.518 1.789-1.518.894 0 1.64.759 1.64 1.67 0 2.126-.15 4.1-.299 6.226h-3.429l.149-.151Zm11.927-7.289c.895 0 1.64.76 1.64 1.67 0 2.127-.149 4.1-.298 6.227-1.193 0-2.236 0-3.429-.152 0-2.126.149-4.1.298-6.226 0-.911.895-1.519 1.789-1.519Zm-4.92-.152c.895 0 1.64.76 1.64 1.67 0 2.127-.149 4.101-.298 6.227h-3.429c0-2.126.149-4.1.298-6.226 0-.911.895-1.519 1.789-1.519v-.152Zm-3.428 15.338c0-2.278 1.789-4.252 4.323-4.556l1.789-.91c.447.303 1.044.607 1.491.91 2.385.608 3.876 2.734 3.727 5.012-.149 3.493-.447 7.137-.596 10.63-3.728-.152-7.455-.456-11.033-.607 0-3.493.299-7.138.448-10.63l-.149.151Zm-1.044 29.917c0-3.493.298-7.138.447-10.63 0-2.278 1.789-4.253 4.175-4.556l1.789-.911c.447.303.894.607 1.49.91a4.885 4.885 0 0 1 3.578 5.012c-.149 3.493-.447 7.137-.596 10.63-3.578-.152-7.156-.455-10.734-.455h-.149Zm20.126-28.702c.149-2.278 1.491-4.252 3.131-4.556.447-.303.895-.607 1.193-.759l.894.911c1.491.608 2.535 2.734 2.386 5.012-.298 3.492-.597 7.137-.895 10.63-2.534-.152-4.92-.456-7.454-.608.298-3.492.447-6.985.745-10.63Zm-2.236 29.613c.298-3.493.447-6.986.746-10.63.149-2.278 1.341-4.252 2.981-4.556.447-.304.746-.608 1.193-.76l.894.912c1.491.607 2.386 2.733 2.237 5.011-.299 3.493-.597 7.138-.895 10.63-2.385-.151-4.771-.455-7.156-.607ZM552.026 28.094l-1.044-1.063 1.64-1.822c.298-.304.298-.608 0-.911l-.298-.304s-.298-.152-.447-.152c-.149 0-.298 0-.447.152l-1.64 1.822-1.044-1.063s-.298-.152-.447-.152c-.149 0-.298 0-.447.152l-.299.304c-.298.304-.298.607 0 .911l1.044 1.063-1.193 1.215c-3.13 2.43-11.479 8.808-22.511 14.123-.299-.304-.597-.304-.895 0l-1.491 1.67s-.149.304-.149.456v.304l-7.156 7.593c-.298-.152-.596 0-.894 0l-1.491 1.67s-.149.304-.149.456c-2.684 1.67-8.796 4.556-12.673 6.074l-1.49-1.518c-.299-.304-.597-.304-.895 0l-2.833 3.037s-.149.303-.149.455c0 .152 0 .304.149.456l1.193 1.063-5.069 5.467-1.192-1.063c-.299-.304-.597-.304-.895 0l-19.381 20.805c-.298.303-.298.607 0 .91l1.193 1.064-54.267 58.466c-.298.304-.298.608 0 .911l18.785 18.223h.596c.149 0 .298 0 .447-.151l54.267-58.467 1.193 1.063s.298.152.447.152c.149 0 .298 0 .447-.152l19.381-20.804c.298-.304.298-.608 0-.912l-1.193-1.063 5.069-5.467 1.193 1.064h.298c.298 0 .448 0 .746-.152l2.832-3.037s.149-.304.149-.456c0-.152 0-.304-.149-.456l-1.341-1.215c1.192-3.948 3.727-10.478 5.218-13.211.149 0 .298 0 .447-.152l1.491-1.67c.298-.304.298-.608 0-.912l7.156-7.745c0 .152.298.304.447.304.149 0 .298 0 .447-.152l1.491-1.67s.149-.304.149-.456c0-.152 0-.304-.149-.456h-.149c4.323-10.63 9.69-19.134 12.523-23.234l1.491-1.67 1.043 1.062s.299.152.448.152c.149 0 .298 0 .447-.152l.298-.303c.298-.304.298-.608 0-.912l-.298.456Z" fill="#07132B"/><path d="M497.163 96.583c3.429-3.644 3.28-9.415-.298-12.908-3.578-3.493-9.244-3.34-12.673.304-3.429 3.644-3.279 9.415.299 12.908 3.578 3.493 9.243 3.341 12.672-.304Z" fill="#fff"/><path d="M494.777 94.305c2.088-2.278 2.088-5.922-.149-8.2a5.733 5.733 0 0 0-8.05.152c-2.087 2.277-2.087 5.922.149 8.2a5.733 5.733 0 0 0 8.05-.152ZM496.716 83.675l-2.237 2.582M486.727 94.609l-2.236 2.43M497.163 96.583l-2.385-2.278M486.578 86.409l-2.386-2.278M499.399 88.383l-3.28.759M485.087 91.572l-3.131.759M499.25 92.635l-3.131-.76M485.087 88.99l-3.131-.911M494.33 98.71l-1.341-3.038M488.367 85.042l-1.342-3.038M489.56 99.468l.297-3.34M491.348 84.586l.447-3.189M491.051 92.331l-2.088-10.175M489.261 90.964l4.324-1.518" stroke="#07132B" stroke-width=".5" stroke-linecap="round" stroke-linejoin="round"/><path d="m208.088 114.806-1.64-1.518.596-.608-1.938-1.822-1.789 1.822c-9.541-3.644-19.977-10.478-24.301-13.515 0 0-.149 0-.298-.152 0 0-.149 0-.298-.152l.596-.607-1.938-1.823-.745.911c-8.796-4.555-33.843-26.423-46.068-38.117a161.39 161.39 0 0 1-4.77-4.707l-.746-.76v-.151l-3.28-3.341-1.789-1.67-1.64-1.52-1.639 1.823-1.64-1.519-.895.912-6.56-6.227-.447.456 6.56 6.226-.895.911 1.64 1.519-1.64 1.822 1.64 1.519 2.087 1.974 3.131 3.037h.149l.149.152c1.342 1.063 3.131 2.734 5.367 4.86 12.225 11.693 35.184 35.839 40.552 44.343l-.895.911 1.938 1.822.596-.759s0 .152.15.304c0 0 0 .152.149.303 3.13 4.252 10.585 14.275 14.759 23.842l-1.789 1.975 1.938 1.822.596-.607 1.64 1.518 3.578 8.504 8.2 19.287 8.945-9.72-4.771-9.719c-2.385-4.707-1.49-10.478 2.088-14.274 3.429-3.645 8.497-5.012 13.268-3.341l11.032 3.948 8.946-9.719-28.028-10.023.149-.152Zm-35.781-9.415 1.044-1.063c7.603 6.834 18.636 14.427 22.064 16.705l-5.217 5.618c-2.535-3.492-10.735-14.123-17.891-21.412v.152ZM473.906 350.949c-25.196 32.194-55.013 60.592-87.96 84.282 17.592 3.645 36.078 7.441 54.117 8.049 2.684-6.226.746-14.883 1.491-21.716 4.025.303 8.2.455 12.225.759 21.021.759 17.89 3.645 16.996-17.616v-.303c-.447-6.682-.895-13.364-1.64-20.046 9.989-.759 21.319.304 30.86-2.43-.447-17.767-5.665-36.142-9.392-53.303-5.367 7.593-10.883 15.186-16.548 22.476l-.149-.152ZM565.295 169.02c.298 0-16.101-35.079-42.788-31.435.299.76.597 1.519.746 2.278-20.872 7.897-41.893 15.642-62.914 23.387.298.607.447 1.215.746 1.974 3.578-1.367 7.156-2.582 10.734-3.949.745-.303 1.49 0 1.789.912.298.759 0 1.67-.895 1.822-3.578 1.215-7.156 2.582-10.734 3.796l.895 2.734c4.025-1.367 8.05-2.734 12.075-4.252.746-.304 1.491.152 1.789.911.299.759 0 1.67-.894 1.822a1169.48 1169.48 0 0 1-12.225 4.101c.447 1.518 1.044 3.189 1.491 4.707 4.025-1.367 8.199-2.733 12.225-3.948.745-.304 1.64.304 1.789 1.063.298.911 0 1.822-.895 1.974-4.025 1.367-8.199 2.582-12.225 3.948.746 2.278 1.342 4.556 2.088 6.834 4.025-1.215 8.199-2.43 12.224-3.796.746-.304 1.64.455 1.939 1.67.298 1.215 0 2.278-.746 2.43-4.174 1.215-8.2 2.43-12.374 3.645.447 1.518.895 3.037 1.193 4.555 4.174-1.215 8.199-2.278 12.374-3.492 2.385-.76 4.92.911 5.665 3.492.745 2.582-.745 5.164-3.28 5.923-4.174 1.063-8.349 2.126-12.374 3.189.447 1.519.746 3.037 1.193 4.556 4.174-1.063 8.349-2.126 12.523-3.037 2.385-.608 4.92 1.063 5.516 3.644.596 2.582-.894 5.163-3.429 5.771-4.174.911-8.349 1.822-12.523 2.885l.895 4.556 12.523-2.733c2.534-.608 4.919 1.214 5.367 3.796.447 2.582-1.044 5.163-3.578 5.619-4.175.759-8.349 1.67-12.523 2.43.447 2.429.894 4.859 1.341 7.137 3.28-.607 6.709-1.215 9.989-1.822 3.131-.608 6.262 1.67 6.709 5.163.596 3.341-1.64 6.53-4.92 6.986-3.28.455-6.709 1.063-9.989 1.518l.448 3.189c3.727-.455 7.454-1.063 11.181-1.518 2.534-.304 4.92 1.518 5.367 4.252.298 2.733-1.491 5.163-4.025 5.619l-11.182 1.366.895 9.112c3.876-.456 7.603-.759 11.479-1.215 1.491-.152 2.833 1.063 2.982 2.582 0 1.518-.894 3.037-2.385 3.037-3.877.304-7.604.607-11.48 1.063 0 .759 0 1.518.149 2.126 3.876-.304 7.604-.608 11.48-.911 1.491 0 2.832 1.063 2.832 2.581 0 1.519-1.043 2.886-2.534 3.038-3.876.303-7.752.607-11.48.759 0 1.063 0 2.278.15 3.341 4.174-.304 8.199-.456 12.374-.76 1.043 0 1.938.76 1.938 1.823s-.746 1.974-1.789 2.126c-4.175.304-8.2.455-12.374.759v2.43c4.174-.152 8.199-.456 12.374-.608 1.043 0 1.938.76 1.938 1.823s-.746 1.974-1.789 2.126c-4.175.152-8.2.304-12.374.455v1.975c3.876 0 7.901-.304 11.777-.456.597 0 1.193.456 1.193 1.215 0 .607-.447 1.215-1.044 1.215-3.876 0-7.901.303-11.777.455v1.975c3.578 0 7.156-.152 10.734-.304.596 0 1.043.455 1.193 1.063 0 .607-.448 1.215-1.044 1.215-3.578 0-7.156.152-10.734.303v1.519c3.578 0 7.156 0 10.734-.152.596 0 1.044.456 1.044 1.215 0 .607-.448 1.215-1.044 1.215-3.578 0-7.156 0-10.734.152v1.67c12.672 0 25.195-.303 37.867-.455-.447.455 19.68-25.057 8.945-73.804-1.192.151-2.385.455-3.578.607-.298-1.974-.596-4.1-.894-6.074 1.342-.304 2.683-.456 4.025-.76-.447-2.581-.894-5.011-1.342-7.593-1.341.304-2.683.456-4.025.76-.745-4.556-1.64-9.112-2.534-13.516.298 0 .745-.152 1.043-.304.895-.151 1.789-.455 2.684-.607h.298c-.596-3.037-1.342-6.226-1.938-9.264 5.218-3.796 10.436-7.593 15.505-11.541.745-.607 1.491-1.215 2.385-1.822 1.342-.911 2.535-1.974 3.876-2.886-.596-2.581-1.341-5.163-1.938-7.593 4.175-1.214 8.2-2.277 12.374-3.492 1.193-1.671 2.535-3.341 3.727-5.012.597-.911 1.342-1.67 1.938-2.581l.597.303Zm-63.958-16.856c2.982-1.063 5.815-2.126 8.796-3.189 1.044-.304 2.237-.152 3.131.455.298.152.597.456.895.608l-11.182 4.1c-.596-.607-1.192-1.367-1.64-1.822v-.152Zm4.324 5.315a294.65 294.65 0 0 0 10.585-3.797c.596-.151 1.193 0 1.789.456.298.304.596.456.894.759 1.193 1.063.895 3.038-.298 3.493-3.131 1.215-6.261 2.582-9.392 3.797-1.193-1.671-2.236-3.341-3.429-4.708h-.149Zm5.963 8.504c3.727-1.215 7.604-2.43 11.331-3.796.745-.304 1.64 0 2.236.911.894 1.215.447 3.037-.745 3.493-3.578 1.063-7.007 2.126-10.585 3.189-.746-1.367-1.491-2.734-2.237-3.949v.152Zm4.026 7.441 11.628-3.644c1.044-.304 2.386 0 3.131 1.215v.151c1.491 1.975.745 4.708-1.193 5.315l-10.734 3.19c-.894-2.278-1.938-4.253-2.982-6.227h.15Zm-31.756-12.452c-.447-.608-1.043-1.215-1.639-1.823 2.236-.759 4.472-1.67 6.708-2.429 1.342-.456 2.833 0 3.728 1.063l-8.946 3.189h.149Zm3.429 6.226c-.447-.911-1.043-1.974-1.49-2.885 2.981-1.063 5.963-2.126 8.945-3.038.596-.151 1.192 0 1.64.456.745.911.447 2.43-.597 2.734a181.032 181.032 0 0 0-8.348 2.885l-.15-.152Zm4.026 8.352c-.746-1.67-1.64-3.341-2.386-5.163 3.131-1.063 6.262-2.126 9.244-3.037 1.043-.304 2.385 0 2.981 1.215.895 1.67.298 3.644-1.341 4.252l-8.498 2.733Zm4.174 10.327c-.894-2.43-1.789-4.708-2.683-7.138 3.279-1.063 6.708-2.126 9.988-3.189 1.342-.455 2.833.304 3.578 1.519.149.304.298.607.448.759 1.043 1.974.298 4.404-1.64 5.012-3.28.911-6.411 1.822-9.691 2.885v.152Zm4.622 12.756c-.895-2.733-1.789-5.315-2.684-8.049 3.429-.911 6.858-1.974 10.287-2.885 1.64-.455 3.578.608 4.174 2.43 0 .304.149.607.299.911.745 2.126-.299 4.556-2.237 5.011-3.28.912-6.559 1.671-9.839 2.582Zm3.876 14.427c-.746-3.189-1.64-6.378-2.534-9.567 3.578-.912 7.156-1.823 10.883-2.734 1.789-.455 3.727.759 4.472 2.734.149.607.447 1.214.597 1.822.745 2.43-.448 4.859-2.684 5.467-3.578.759-7.156 1.67-10.734 2.43v-.152Zm14.163 48.899c.149 1.518-.745 2.885-2.236 3.037-1.938.304-4.026.456-5.964.759-.149-1.822-.447-3.644-.596-5.467 1.938-.303 4.025-.455 5.963-.759 1.342-.152 2.684.911 2.833 2.43Zm-10.138-29.765c-.447-2.43-.894-5.011-1.342-7.441 2.088-.456 4.175-.911 6.262-1.215 1.64-.304 3.131.759 3.578 2.582 0 .455.149.911.298 1.367.149 1.67-.745 3.34-2.385 3.644-2.087.456-4.174.759-6.262 1.215l-.149-.152Zm1.789 14.579c-.447-3.341-1.043-6.53-1.491-9.871l7.604-1.367c.745 0 1.491 0 2.087.304l1.342 8.656c-.597.455-1.193.911-1.938.911-2.535.456-5.069.759-7.604 1.215v.152Zm-3.727 29.764-.447-5.467c3.578-.303 7.156-.759 10.734-1.215 1.342 0 2.683.912 2.833 2.582 0 1.519-.895 2.885-2.237 3.037-3.578.304-7.156.608-10.734 1.063h-.149Zm.298 3.493 10.287-.911c1.342 0 2.385 1.063 2.385 2.582 0 1.214-.894 2.126-1.938 2.126-3.429.303-6.857.607-10.436.759 0-1.519-.149-3.037-.298-4.556Zm.597 8.201c3.429-.304 6.708-.456 10.137-.76 1.044 0 1.938.911 1.938 2.126 0 1.063-.745 1.823-1.789 1.975-3.428.151-6.708.455-10.137.607 0-1.367 0-2.734-.298-3.948h.149Zm10.585 10.174c-3.28.152-6.709.304-9.989.456v-2.886c3.28-.151 6.709-.303 9.989-.607.894 0 1.64.911 1.341 1.822 0 .608-.596 1.063-1.192 1.215h-.149Zm7.156-4.252c.894 0 1.64.759 1.64 1.671 0 .911-.597 1.822-1.491 1.822-.895 0-1.64-.759-1.64-1.671 0-.911.596-1.822 1.491-1.822Zm2.981-22.323c.15 1.67-.894 3.189-2.385 3.341-1.491 0-2.833-1.063-2.982-2.734-.149-1.67.895-3.189 2.386-3.341 1.491-.152 2.832 1.063 2.981 2.734Zm6.56-81.397c-3.578.911-7.007 1.822-10.585 2.733-.894-2.885-1.938-5.619-2.982-8.2 3.728-1.063 7.455-2.126 11.033-3.189 1.491-.456 3.13.455 4.025 2.126.149.303.298.607.447 1.063 1.044 2.278 0 4.859-2.087 5.315l.149.152Z" fill="#07132B"/><path opacity=".1" d="M533.838 240.698c-3.429.608-7.007 1.215-10.436 1.671.298 2.278.596 4.404.894 6.682-5.516 2.126-10.883 4.1-16.399 6.226.596 4.252 1.044 8.656 1.491 12.908-8.2 2.126-16.4 4.1-24.599 5.923 3.876-.456 7.603-.76 11.479-1.215 1.491-.152 2.833 1.063 2.982 2.581 0 1.519-.894 3.038-2.385 3.038-3.877.303-7.604.759-11.48 1.063 0 .759 0 1.518.149 2.126 3.876-.304 7.604-.608 11.48-.912 1.491 0 2.832 1.063 2.832 2.582s-1.043 2.885-2.534 3.037c-3.876.304-7.752.608-11.48.76 0 1.063 0 2.277.15 3.341 4.174-.304 8.199-.456 12.374-.76 1.043 0 1.938.759 1.938 1.823 0 1.063-.746 1.974-1.789 2.126-4.175.303-8.2.455-12.374.759v2.43c4.174-.152 8.199-.456 12.374-.608 1.043 0 1.938.759 1.938 1.823 0 1.063-.746 1.974-1.789 2.126-4.175.151-8.2.303-12.374.455v1.974c3.876 0 7.901-.303 11.777-.455.597 0 1.193.455 1.193 1.215 0 .607-.447 1.214-1.044 1.214-3.876 0-7.901.304-11.777.456v1.974c3.578 0 7.156-.152 10.734-.303.596 0 1.043.455 1.193 1.063 0 .607-.448 1.214-1.044 1.214-3.578 0-7.156.152-10.734.304v1.519c3.578 0 7.156 0 10.734-.152.596 0 1.044.455 1.044 1.215 0 .607-.448 1.215-1.044 1.215-3.578 0-7.156 0-10.734.152v1.67c12.672 0 25.195-.304 37.867-.456-.447.456 19.68-25.057 8.945-73.804h.448Zm-23.854 24.905c-.149-1.822-.447-3.644-.596-5.467 1.938-.303 4.025-.455 5.963-.759 1.342-.152 2.684.911 2.833 2.43.149 1.519-.746 2.885-2.236 3.037-1.939.304-4.026.456-5.964.759Zm-3.876 10.934-.447-5.467c3.578-.303 7.156-.759 10.734-1.214 1.342 0 2.683.911 2.832 2.581 0 1.519-.894 2.885-2.236 3.037-3.578.304-7.156.608-10.734 1.063h-.149Zm16.25-4.252c-.149-1.67.895-3.189 2.386-3.341 1.49-.152 2.832 1.063 2.981 2.734.149 1.67-.894 3.189-2.385 3.341-1.491 0-2.833-1.063-2.982-2.734Zm-15.505 12.453c0-1.519-.149-3.037-.298-4.556l10.287-.911c1.342 0 2.385 1.063 2.385 2.581 0 1.215-.894 2.127-1.938 2.127-3.429.303-6.858.607-10.436.759Zm.448 7.593c0-1.367 0-2.734-.299-3.949 3.429-.303 6.709-.455 10.138-.759 1.044 0 1.938.911 1.938 2.126 0 1.063-.745 1.823-1.789 1.974-3.429.152-6.709.456-10.137.608h.149Zm17.443 1.822c.894 0 1.639.759 1.639 1.671 0 .911-.596 1.822-1.49 1.822-.895 0-1.64-.759-1.64-1.671 0-.911.596-1.822 1.491-1.822Zm-17.145 4.708v-2.886c3.28-.151 6.709-.303 9.988-.607.895 0 1.64.911 1.342 1.822 0 .608-.596 1.063-1.192 1.215-3.28.152-6.709.304-9.989.456h-.149Z" fill="#fff"/><path d="m182.743 164.768-1.342 6.378-9.243 1.519-1.193 5.619-9.094 1.063-.745 3.493-9.094.759-.597 3.189-8.945.456-1.043 5.467h-8.945l-.746 3.644h-8.796c0-.152-1.043 4.708-1.043 4.708l-8.796-.456-.597 3.189-8.796-.759-1.491 7.593-5.068-1.063-5.07-1.063-5.068-1.063-1.938-.456-5.07 25.057 10.139 2.126 1.938.456 5.069 1.063-1.491 7.593 8.348 2.885-.596 3.189 8.2 3.038-1.044 4.859 8.2 3.341-.746 3.645 8.2 3.644-1.044 5.467 8.051 4.101-.596 3.189 8.05 4.404-.745 3.492 7.901 4.708-1.192 5.619 7.901 5.163-1.342 6.378 7.753 5.619 31.009-153.682-9.243 2.126v.303Zm-82.593 56.796-.745 3.796-6.709-1.366.745-3.797 6.709 1.367Z" fill="#07132B"/><g opacity=".3" fill="#fff"><path d="m155.551 225.724-3.628 17.999 2.483.519 3.627-17.999-2.482-.519ZM142.741 222.933l-3.628 18 2.483.519 3.627-18-2.482-.519ZM152.399 224.929l-3.628 18 2.483.519 3.627-18-2.482-.519ZM146.038 223.758l-3.627 18 2.483.519 3.627-18-2.483-.519ZM149.071 224.252l-3.627 18 2.482.519 3.628-18-2.483-.519ZM162.06 227.046l-3.627 18 2.483.519 3.627-18-2.483-.519ZM168.54 228.365l-3.628 18 2.483.519 3.627-18-2.482-.519ZM158.879 226.4l-3.628 18 2.483.519 3.627-18-2.482-.519ZM171.722 229.011l-3.628 18 2.483.519 3.627-18-2.482-.519ZM101.593 214.344l-3.627 18 1.753.367 3.627-18-1.753-.367ZM165.358 227.719l-3.627 18 2.482.519 3.628-17.999-2.483-.52ZM139.559 222.287l-3.628 18 2.483.519 3.627-18-2.482-.519ZM120.09 218.174l-3.627 18 2.482.519 3.628-18-2.483-.519ZM136.231 221.611l-3.627 17.999 2.482.519 3.627-17.999-2.482-.519ZM110.429 216.209l-3.628 17.999 2.483.52 3.627-18-2.482-.519ZM174.966 229.633l-3.627 18 3.213.672 3.627-18-3.213-.672ZM103.949 214.738l-3.627 17.999 2.482.519 3.628-17.999-2.483-.519ZM113.61 216.855l-3.627 17.999 2.483.52 3.627-18-2.483-.519ZM107.101 215.532l-3.628 18 2.483.519 3.627-18-2.482-.519ZM133.079 220.816l-3.627 18 2.483.519 3.627-18-2.483-.519ZM129.751 220.291l-3.627 18 2.483.519 3.627-18-2.483-.519ZM123.418 218.851l-3.627 17.999 2.482.519 3.627-17.999-2.482-.519ZM116.908 217.68l-3.627 18 2.482.519 3.628-18-2.483-.519ZM126.569 219.645l-3.627 18 2.483.519 3.627-18-2.483-.519Z"/></g><path d="m142.49 378.739-3.876 1.063 2.386 3.037-4.026 3.038-2.832.455.894 1.215-1.64 1.367 39.21 52.088 1.639-1.367 1.044 1.519 1.193-2.582-.298-.304 4.025-3.037 2.534 3.341 2.087-3.493-1.639-2.278 16.548-12.908 1.044 1.519 1.192-2.582-.298-.303 23.555-18.375-39.209-52.088-23.555 18.375-2.833.455.895 1.215-16.549 12.908-1.491-1.974v-.304Zm57.1-12.452 11.778 15.793-25.196 19.59c-4.323 3.341-10.436 2.43-13.716-1.822-3.279-4.404-2.385-10.63 1.789-13.971l25.196-19.59h.149Z" fill="#07132B"/><path d="M263.531 54.84c0-.456 0-.76-.15-1.216-.745-2.43-3.13-3.796-5.516-3.037-1.192.304-2.087 1.215-2.683 2.278-2.684-2.581-6.411-3.493-10.138-2.43-2.087.608-3.876 1.975-5.218 3.645-3.727-2.582-8.349-3.645-12.97-2.126-7.902 2.43-12.374 10.934-9.989 19.134v.304c-.596 0-1.342 0-1.938.304-3.727 1.063-5.665 5.011-4.622 8.808.298.91.746 1.822 1.342 2.581 15.952-11.085 33.246-20.5 51.882-28.094v-.152ZM166.924 124.088c0-.304-.299-.456-.448-.608-1.192-1.215-3.279-1.063-4.323 0-.596.608-.895 1.519-.895 2.278-2.385-.607-5.218 0-7.007 2.126-1.043 1.215-1.639 2.582-1.938 4.1-3.13-.303-6.261.76-8.647 3.341-4.025 4.252-3.727 11.086.448 15.186h.149c-.447.304-.746.456-1.044.911-1.789 1.975-1.789 5.164.298 6.986.448.456 1.044.759 1.789 1.063 5.815-12.453 13.12-24.298 21.767-35.535l-.149.152ZM124.285 216.722c-.298-.152-.745-.303-1.043-.455-2.386-.608-4.771.911-5.367 3.341-.299 1.215 0 2.429.596 3.492-3.429 1.063-6.262 3.949-7.156 7.745-.447 2.278-.298 4.404.447 6.378-4.025 1.975-7.305 5.619-8.349 10.479-1.938 8.2 3.131 16.401 11.182 18.375h.298c-.298.607-.596 1.215-.746 1.822-.894 3.797 1.491 7.593 5.218 8.504 1.044.304 1.939.304 2.833 0-1.342-19.59-.745-39.635 1.938-59.833l.149.152ZM134.87 336.084h-.745c-1.64.456-2.535 2.278-2.087 3.949.298.911.894 1.518 1.491 1.822-1.79 1.822-2.386 4.556-1.64 7.289.447 1.519 1.341 2.734 2.534 3.645-1.789 2.582-2.534 6.074-1.491 9.263 1.64 5.619 7.603 8.808 13.12 7.138h.149c0 .455 0 .911.149 1.367.745 2.581 3.429 4.1 6.112 3.341.597-.152 1.193-.608 1.789-.912-7.603-11.389-14.163-23.69-19.381-36.902ZM192.268 420.519c-.298.152-.597.455-.895.759-1.64 1.822-1.64 4.708.149 6.378.895.911 2.088 1.215 3.28 1.215-.745 3.645.149 7.441 2.982 10.175 1.64 1.518 3.578 2.429 5.665 2.733a15.564 15.564 0 0 0 4.622 12.604c6.112 5.771 15.505 5.467 21.319-.759l.149-.152c.298.608.745 1.063 1.193 1.519 2.832 2.733 7.156 2.582 9.839-.304.746-.759 1.193-1.518 1.491-2.43-17.443-8.504-34.14-19.134-49.794-31.587v-.151ZM299.161 472.91c0 .304-.149.456-.298.76-.447 1.67.597 3.341 2.386 3.796.894.152 1.64 0 2.385-.455.745 2.429 2.684 4.404 5.367 5.163 1.491.304 2.982.152 4.324-.304 1.341 2.885 3.876 5.163 7.156 5.923 5.665 1.366 11.33-2.278 12.672-8.049v-.152c.447.152.894.456 1.342.456 2.534.607 5.218-1.063 5.814-3.645.149-.759.149-1.367 0-1.974-13.418 1.063-27.283.607-41.148-1.367v-.152ZM399.496 462.432c0 .456 0 .759.149 1.215.745 2.43 3.13 3.796 5.516 3.037 1.193-.304 2.087-1.215 2.683-2.278 2.684 2.582 6.411 3.493 10.138 2.43 2.087-.607 3.876-1.974 5.218-3.645 3.727 2.582 8.349 3.645 12.97 2.126 7.902-2.429 12.375-10.934 9.989-19.134v-.304c.596 0 1.342 0 1.938-.303 3.727-1.063 5.665-5.012 4.622-8.808-.298-.912-.746-1.823-1.342-2.582-15.952 11.086-33.246 20.501-51.881 28.094v.152ZM495.954 393.184c0 .304.298.455.447.607 1.192 1.215 3.28 1.063 4.323 0 .597-.607.895-1.518.895-2.278 2.385.608 5.218 0 7.007-2.126 1.043-1.215 1.64-2.581 1.938-4.1 3.131.304 6.261-.759 8.647-3.341 4.025-4.252 3.727-11.086-.448-15.186h-.149c.448-.304.746-.455 1.044-.911 1.789-1.974 1.789-5.163-.298-6.986-.447-.455-1.044-.759-1.789-1.063-5.814 12.453-13.12 24.298-21.767 35.536l.15-.152ZM538.741 300.549c.298.152.745.304 1.044.456 2.385.607 4.77-.911 5.367-3.341.298-1.215 0-2.43-.597-3.493 3.429-1.063 6.262-3.948 7.156-7.745.448-2.278.299-4.404-.447-6.378 4.025-1.974 7.305-5.619 8.349-10.478 1.938-8.201-3.131-16.401-11.182-18.375h-.298c.299-.608.597-1.215.746-1.823.894-3.796-1.491-7.593-5.218-8.504-1.044-.304-1.938-.304-2.833 0 1.342 19.59.746 39.636-1.938 59.833l-.149-.152ZM470.758 96.753c.298-.152.597-.456.895-.76 1.64-1.822 1.64-4.707-.149-6.378-.895-.91-2.088-1.215-3.28-1.215.745-3.644-.149-7.44-2.982-10.174-1.64-1.519-3.578-2.43-5.665-2.734.447-4.555-1.193-9.263-4.622-12.604-6.112-5.77-15.505-5.467-21.319.76l-.149.151c-.298-.607-.745-1.063-1.193-1.518-2.832-2.734-7.156-2.582-9.839.303-.746.76-1.193 1.519-1.491 2.43 17.443 8.504 34.14 19.134 49.794 31.587v.152Z" fill="#fff" stroke="#07132B" stroke-linecap="round" stroke-linejoin="round"/><path d="M450.052 395.917c67.944-69.209 67.944-181.419 0-250.628-67.944-69.21-178.104-69.21-246.048 0-67.944 69.209-67.944 181.419 0 250.628 67.944 69.209 178.104 69.209 246.048 0Z" fill="#3AF2AE"/><path d="M351.955 111.465s1.192-3.644-1.789-7.593c-2.982-3.948-5.069-3.948-8.647-4.555-3.578-.608-5.964-1.215-10.884-1.52-4.77-.303-9.094-.303-12.97-.303-3.876 0-5.963.304-8.051-.303-2.087-.608-1.789-1.823-5.068-1.823h-1.64c-8.2 1.215-16.4 3.037-24.599 5.467-64.703 19.286-110.174 73.5-122.101 136.674.895 6.682 4.175 20.198 6.858 29.613 1.491 5.467 2.833 9.567 3.429 9.871 1.64 1.063-1.789-13.06-2.683-17.768-.895-4.556-2.088-8.808-.895-7.289 1.193 1.519 7.156 15.338 7.454 21.109.299 5.77-2.385 7.593 1.193 11.997 3.578 4.252 12.672 13.819 14.163 12.604 1.491-1.215.895-5.467 2.982-3.037 2.087 2.429 2.087 6.682 5.963 7.593 3.876.911 5.367.911 6.858 2.733 1.491 1.822 4.473 7.593 7.454 9.264 2.982 1.67 5.069 2.126 7.753 1.822 2.683-.304 3.876-2.126 5.367-.607 1.491 1.518.298 4.555 1.491 6.985 1.192 2.43 4.174 3.645 4.174 5.771s-8.051 11.693-3.28 22.019c4.771 10.479 18.338 20.502 18.338 20.502l14.163 6.378 6.261 11.693 2.087 10.175s7.455 20.501 13.865 26.271c6.262 5.771 14.76 13.212 19.53 15.035 4.771 1.822 9.393 2.126 5.666-.608-3.579-2.733-5.069-4.556-6.56-5.771-1.491-1.214-.895-3.34-2.684-4.555-1.789-1.215-3.578-.304-2.683-2.734.894-2.43 1.491-2.126 2.981-3.645 1.491-1.518 2.386-3.948 2.386-3.948s-1.491-3.948-1.193-5.467c.298-1.518 1.789 1.215 3.876-1.822 2.088-3.037 4.175-7.593 4.175-7.593l1.491-3.341 1.49-5.163 6.262-1.519 6.262-2.733 4.174-5.467 1.491-5.771v-10.782l1.192-2.126s9.095-4.252 9.989-10.175c.895-5.77-.596-8.504-.596-8.504l-6.262-1.822-10.287-2.734-7.156-1.518-5.367-1.823-5.665-2.126-2.684-2.429v-4.556l-3.876-4.86-2.981-1.518-4.771-1.823-4.473-.607-3.876-1.823-4.771-4.859-5.665-3.645-7.156-2.429-2.683.303-5.069.304-5.964-2.126s-1.789-1.822-2.981-2.126c-1.193-.304-2.684-.304-2.684-.304l-3.28 4.556s.298-4.86-2.385-4.252c-2.684.607-8.051 4.252-8.051 4.252l-.596 4.556s-4.174-3.949-5.367-3.949c-1.193 0-2.684 3.645-6.262 1.823-3.578-1.823-4.77-4.86-5.069-6.378-.298-1.519.597-6.378 0-8.505-.596-2.126-3.876-2.126-3.876-2.126s-1.789 0-2.981-.303c-1.193-.304-3.28-.911-3.28-.911s2.087-10.479.298-12.909c-1.789-2.429-3.876-2.126-4.473-.303-.596 1.822-1.789 3.948-3.578 5.163-1.789 1.215-3.28 2.733-5.069 1.822-1.789-.911-7.156-6.074-7.156-13.819 0-7.745 4.771-16.553 4.771-16.553s5.367-4.556 9.392-4.252c4.026.304 4.175 1.215 5.666-.304 1.49-1.518 4.77-1.214 5.963-.607 1.193.607 4.473 2.43 4.771 4.556.298 2.126.596 7.289 2.683 9.567 2.087 2.126 3.28-3.037 3.28-3.037s-2.982-5.771-2.982-8.504c0-2.734-.298-3.949.299-4.86.596-.911 14.759-8.2 15.952-12.301 1.192-3.948 1.192-5.77 1.192-8.504 0-2.733 8.349-6.682 10.585-7.593 2.088-.911.299-5.467 4.771-8.504 4.473-3.037 18.934-7.897 15.356-6.378-3.578 1.519-4.175 4.252 2.385 1.519 6.56-2.734 15.654-3.038 9.094-5.771-6.559-2.734-13.865-2.126-13.566-4.252.298-2.126 4.174-6.378 9.988-6.986 5.367-.607 8.349-3.037 8.2-1.063v.456c-.596 2.733-4.174 6.378-2.087 7.289 2.087.911 13.566 2.734 14.163 0 .596-2.733-7.156-3.037-5.665-7.593 1.49-4.556 4.174-6.682 2.683-8.808-1.491-2.126-6.261-3.644-6.261-3.644s-6.858-6.379-7.157-7.593c-.298-1.215-1.789-6.682-2.683-7.897-.895-1.215-1.789 1.822-5.665 1.215-3.876-.608-2.684-3.949-3.876-5.771-1.193-1.822-5.964-4.86-10.287-3.341-4.175 1.519-4.473 2.43-6.262 6.074-1.789 3.645.895 5.164-.596 7.593-1.491 2.43-5.367 4.253-6.262 6.682-.894 2.43.298 4.86-1.491 7.29-1.789 2.429-6.857 3.341-6.857-.912 0-4.252.894-6.074-1.193-6.985-2.087-.911-4.771-.608-7.454-3.645-2.684-3.037-2.386-9.263-2.386-9.263s9.393-7.897 12.076-9.264c2.684-1.215 6.56.911 8.647.608 2.087-.304 5.069-1.215 4.771-3.949-.298-2.733-2.087-4.252 1.789-6.985 3.876-2.734 6.261-7.897 6.858-9.567.596-1.519 5.069-5.467 9.094-.912 3.876 4.556 2.683 8.808 2.683 8.808s-9.69.608-8.647 3.341c.895 2.734 6.56 2.43 7.156 4.86.597 2.43-1.192 4.859 4.771 4.556 5.964-.304 8.647-1.215 7.156-4.252-1.491-3.038-2.981-7.593-1.192-6.682 1.789.911 3.279 3.948 7.156 1.518 3.876-2.429 1.789-7.896-.895-10.174-2.683-2.126-5.069-4.556-6.261-8.201-1.193-3.644-2.982-4.556-6.262-4.859-3.28-.304-7.752-.911-10.883.607-2.982 1.519-4.175 1.822-4.771 3.037-.596 1.215-1.789 2.734-2.683 3.038-.895.303-4.175 1.518-4.175 1.518l-4.174-2.43s-1.193 1.519-3.578 1.823c-2.386.303-2.684-3.949-2.684-3.949l15.356-7.896s5.665-.304 7.752.607c2.088.911 8.051 1.519 10.884.304 2.683-1.215 2.385-.304 4.472-2.126 2.087-1.823 6.262-4.252 6.262-4.252s2.683-2.126 5.665-4.252c2.982-2.127 5.963-3.038 9.989-3.645 3.876-.608 5.665 0 2.683.911s-6.261 2.43-7.752 4.252c-1.491 1.822-4.473 3.037-1.193 3.645 3.28.607 6.858 0 10.585 3.037 3.578 3.037 4.771 3.037 2.684 7.289-2.088 4.252-4.771 10.175-2.684 12.301 2.087 2.126 1.193-.607.895 6.074-.299 6.682.298 9.568 2.683 14.123 2.385 4.556 6.56 3.645 8.051 5.164 1.491 1.518 3.578 2.126 5.665 1.214 2.087-.911 4.771-8.504 4.771-8.504l7.752-9.871 11.778-4.859s6.858-2.43 11.479-4.556c4.473-2.126 7.156-3.645 4.771-8.504-2.385-4.86-4.771-11.997-4.771-11.997l-1.192-1.519ZM494.033 220.957c-9.989-34.625-29.37-63.782-54.566-85.498-2.087-.455-4.77-1.366-7.901-2.581-7.454-3.038-15.654-5.164-14.461 1.518 1.192 6.682 3.28 10.479.894 12.908-2.385 2.43-3.578 8.808 1.193 13.212s8.647 7.593 9.69 4.86c.895-2.734 4.473-.911 5.964 2.126 1.491 3.037-.298 6.985 2.683 6.074 2.982-.911 7.455-3.948 2.982-9.263-4.472-5.164-7.454-8.808-7.156-12.908.298-3.949 2.982-10.175 3.578-4.253.596 5.923 2.684 8.505 5.963 12.909 3.28 4.252 6.858 6.985 5.666 11.389-1.193 4.252-5.069 6.378-7.156 6.378-2.088 0-5.069-.911-7.753-1.518-2.683-.608-3.876 0-4.771 1.215-.894 1.214-2.683 4.859-3.279 7.593-.597 2.733-1.789 6.681-5.666 7.593-3.876.911-9.988 1.822-6.559 4.555 3.28 2.734 7.752-.607 8.348 6.682.597 7.289-2.385 8.504-8.348 7.897-5.964-.608-8.051 1.519-6.858 7.289 1.192 5.771 2.683 9.871 4.77 11.086 2.088 1.215 8.349 1.215 5.368 5.771-2.982 4.555-8.647 6.378-10.287 10.782-1.491 4.252-3.877 9.263-5.666 10.782-1.789 1.518-11.181 15.338-11.479 24.449-.298 9.264 2.683 25.057 11.479 33.713 8.647 8.504 14.164 15.946 21.021 12.301 6.858-3.645 12.971-6.074 15.356-2.43 2.385 3.645 2.982 3.645 4.473 4.556 1.491.911 1.789 5.163.596 10.175-1.193 4.859 1.491 11.693 2.087 16.249.597 4.555-11.778 11.693-14.461 19.59-2.684 7.896-3.578 15.034-5.963 19.59-2.386 4.555-8.647 9.263-5.666 11.693 2.982 2.43 12.673-1.215 18.04-5.467 5.367-4.252 15.952-17.464 18.337-19.894 2.385-2.43 9.989-8.504 15.356-16.553 5.367-7.896 9.988-18.678 9.988-18.678s7.902-10.631 12.971-21.868c10.287-32.65 11.479-68.641 1.342-104.176l-.149.152Z" fill="#fff"/><path d="M407.563 187.699c1.193 1.822 5.367 3.037 8.647 1.822 3.28-1.214 6.56-3.037 5.665-5.467-.894-2.429-5.069-3.34-5.069-3.34s-6.261-2.43-7.752-7.29c-1.491-4.859-4.771-11.693-8.051-7.896-3.28 3.644 2.087 6.985 2.087 8.2 0 1.215-4.77-.607-5.963 3.037-1.193 3.645-.298 7.289 2.087 7.593 2.386.304 5.069.608 5.964-1.822.894-2.43-.299-5.467 1.49-4.252 1.789 1.215 3.877.911 2.982 3.341-.894 2.429-3.28 4.252-2.087 6.074Z" fill="#fff"/><path d="M450.052 395.917c67.944-69.209 67.944-181.419 0-250.628-67.944-69.21-178.104-69.21-246.048 0-67.944 69.209-67.944 181.419 0 250.628 67.944 69.209 178.104 69.209 246.048 0Z" stroke="#07132B" stroke-linecap="round" stroke-linejoin="round"/><path d="M364.179 172.817s4.622 0 9.244.759c6.708 1.215 8.647 4.1 9.69 4.556 1.193.456 5.367 2.885 5.367 4.1 0 1.215-4.472 3.037-7.156 3.797-2.833.759-6.709 1.215-14.759 1.366h-55.609s-12.97-.607-24.897-4.403c-12.076-3.797-15.803-6.379-16.101-7.897-.298-1.519 5.367-2.126 5.367-2.126l-7.007-26.728h6.411l17.89 21.564 13.566 4.708 57.994.304Z" fill="#fff" stroke="#07132B" stroke-miterlimit="10"/><path d="M297.091 180.865c7.156 3.341 25.792 1.671 25.792 1.671h65.448c-.596 1.215-4.473 2.885-7.156 3.645-2.833.759-6.709 1.214-14.759 1.366h-55.609s-12.97-.607-24.897-4.404c-12.076-3.796-15.803-6.378-16.101-7.896-.299-1.519 5.367-2.126 5.367-2.126l-7.007-26.728h6.41l17.89 21.564 13.567 4.708h-19.53s3.28 4.86 10.436 8.2h.149ZM377.895 176.765l.895 1.823-1.938-.456v-1.367h1.043ZM379.684 176.765l1.193 1.519c-.894.152-1.342.455-1.342.455h-.149l-.894-2.126h1.192v.152ZM380.132 176.765h.894c1.044.76 1.64 1.215 2.087 1.367h-1.938l-1.043-1.519v.152Z" fill="#07132B"/><path d="m331.679 188.307 3.876.607c1.491.152 2.982.304 4.473.304h4.025c.746 0 1.342-.76 1.342-1.519v-4.859c0-.76-.596-1.367-1.342-1.367h-7.007l-5.516.607c-.596 0-.895.456-.895 1.063v4.101c0 .607.448 1.063.895 1.063h.149Z" fill="#fff" stroke="#07132B" stroke-miterlimit="10"/><path d="M363.285 179.499c.298 0 .447-.152.447-.456v-.455c0-.304-.149-.456-.447-.456-.298 0-.447.152-.447.456v.455c0 .304.149.456.447.456ZM361.645 179.499c.298 0 .447-.152.447-.456v-.455c0-.304-.149-.456-.447-.456-.298 0-.447.152-.447.456v.455c0 .304.149.456.447.456ZM360.005 179.499c.298 0 .447-.152.447-.456v-.455c0-.304-.149-.456-.447-.456-.298 0-.447.152-.447.456v.455c0 .304.149.456.447.456ZM358.365 179.499c.298 0 .447-.152.447-.456v-.455c0-.304-.149-.456-.447-.456-.298 0-.447.152-.447.456v.455c0 .304.149.456.447.456ZM356.725 179.499c.298 0 .447-.152.447-.456v-.455c0-.304-.149-.456-.447-.456-.298 0-.447.152-.447.456v.455c0 .304.149.456.447.456ZM355.085 179.499c.298 0 .447-.152.447-.456v-.455c0-.304-.149-.456-.447-.456-.298 0-.447.152-.447.456v.455c0 .304.149.456.447.456ZM353.296 179.499c.298 0 .447-.152.447-.456v-.455c0-.304-.149-.456-.447-.456-.298 0-.447.152-.447.456v.455c0 .304.149.456.447.456ZM351.656 179.499c.298 0 .447-.152.447-.456v-.455c0-.304-.149-.456-.447-.456-.298 0-.447.152-.447.456v.455c0 .304.149.456.447.456ZM350.016 179.499c.298 0 .448-.152.448-.456v-.455c0-.304-.15-.456-.448-.456-.298 0-.447.152-.447.456v.455c0 .304.149.456.447.456ZM346.737 179.499c.298 0 .447-.152.447-.456v-.455c0-.304-.149-.456-.447-.456-.299 0-.448.152-.448.456v.455c0 .304.149.456.448.456ZM345.096 179.499c.299 0 .448-.152.448-.456v-.455c0-.304-.149-.456-.448-.456-.298 0-.447.152-.447.456v.455c0 .304.149.456.447.456ZM343.457 179.499c.298 0 .447-.152.447-.456v-.455c0-.304-.149-.456-.447-.456-.299 0-.448.152-.448.456v.455c0 .304.149.456.448.456ZM341.667 179.499c.299 0 .448-.152.448-.456v-.455c0-.304-.149-.456-.448-.456-.298 0-.447.152-.447.456v.455c0 .304.149.456.447.456ZM338.388 179.499c.298 0 .447-.152.447-.456v-.455c0-.304-.149-.456-.447-.456-.298 0-.448.152-.448.456v.455c0 .304.15.456.448.456ZM335.108 179.499c.298 0 .447-.152.447-.456v-.455c0-.304-.149-.456-.447-.456-.298 0-.447.152-.447.456v.455c0 .304.149.456.447.456ZM333.468 179.499c.298 0 .447-.152.447-.456v-.455c0-.304-.149-.456-.447-.456-.298 0-.447.152-.447.456v.455c0 .304.149.456.447.456ZM331.828 179.499c.298 0 .447-.152.447-.456v-.455c0-.304-.149-.456-.447-.456-.298 0-.447.152-.447.456v.455c0 .304.149.456.447.456ZM330.188 179.499c.298 0 .447-.152.447-.456v-.455c0-.304-.149-.456-.447-.456-.298 0-.447.152-.447.456v.455c0 .304.149.456.447.456ZM328.399 179.499c.298 0 .447-.152.447-.456v-.455c0-.304-.149-.456-.447-.456-.298 0-.447.152-.447.456v.455c0 .304.149.456.447.456ZM326.759 179.499c.298 0 .447-.152.447-.456v-.455c0-.304-.149-.456-.447-.456-.298 0-.447.152-.447.456v.455c0 .304.149.456.447.456ZM325.119 179.499c.299 0 .448-.152.448-.456v-.455c0-.304-.149-.456-.448-.456-.298 0-.447.152-.447.456v.455c0 .304.149.456.447.456ZM323.479 179.499c.298 0 .447-.152.447-.456v-.455c0-.304-.149-.456-.447-.456-.298 0-.447.152-.447.456v.455c0 .304.149.456.447.456ZM321.839 179.499c.298 0 .447-.152.447-.456v-.455c0-.304-.149-.456-.447-.456-.298 0-.447.152-.447.456v.455c0 .304.149.456.447.456ZM320.199 179.499c.299 0 .448-.152.448-.456v-.455c0-.304-.149-.456-.448-.456-.298 0-.447.152-.447.456v.455c0 .304.149.456.447.456ZM318.559 179.499c.298 0 .448-.152.448-.456v-.455c0-.304-.15-.456-.448-.456-.298 0-.447.152-.447.456v.455c0 .304.149.456.447.456ZM316.771 179.499c.298 0 .447-.152.447-.456v-.455c0-.304-.149-.456-.447-.456-.299 0-.448.152-.448.456v.455c0 .304.149.456.448.456Z" fill="#07132B"/><path d="M307.676 181.321c-.447-.152 3.28-1.063 3.28-1.063l-7.454-3.341-2.237-4.404h.597l4.323 4.404 26.985 4.86c0 .303-1.491 3.948-2.237 5.922h-16.548l2.683-4.404h-2.385s-2.534-.304-3.131-.607c-.596-.304 2.982-.911 2.982-.911-3.876.303-6.262 0-6.709-.152l-.149-.304ZM265.634 172.817s2.087-.608 4.324 0c2.236.607 14.61 4.252 14.61 4.252s.298.456-1.193 1.367c-1.49.911-3.13 1.215-3.578 2.581-4.919-1.822-7.752-3.341-8.945-4.404.298-.303.746-.607 1.193-.911-3.429-1.518-6.262-2.885-6.262-2.885h-.149Z" fill="#07132B"/></svg>