<svg width="46" height="46" fill="none" xmlns="http://www.w3.org/2000/svg"><g clip-path="url('#clip0_1587_99')"><circle cx="23" cy="23" r="23" fill="#5CFFE9"/><path d="M19 30h-3V20h3v10Zm11 0h-3v-5.342c0-1.392-.496-2.085-1.479-2.085-.779 0-1.273.388-1.521 1.165V30h-3s.04-9 0-10h2.368l.183 2h.062c.615-1 1.598-1.678 2.946-1.678 1.025 0 1.854.285 2.487 1.001.637.717.954 1.679.954 3.03V30ZM17.5 19c.856 0 1.55-.672 1.55-1.5S18.356 16 17.5 16c-.856 0-1.55.672-1.55 1.5s.694 1.5 1.55 1.5Z" fill="#07132B"/></g><defs><clipPath id="clip0_1587_99"><path fill="#fff" d="M0 0h46v46H0z"/></clipPath></defs></svg>