<svg width="124" height="45" fill="none" xmlns="http://www.w3.org/2000/svg"><path d="M99.18 27.817s4.621 0 9.243.76c6.708 1.214 8.647 4.1 9.69 4.555 1.193.456 5.367 2.885 5.367 4.1 0 1.215-4.472 3.037-7.156 3.797-2.833.759-6.709 1.215-14.759 1.366H45.956s-12.97-.607-24.897-4.404C8.983 34.196 5.256 31.614 4.958 30.096c-.298-1.519 5.367-2.126 5.367-2.126L3.318 1.24h6.41l17.89 21.564 13.567 4.708 57.994.304Z" fill="#fff" stroke="#07132B" stroke-miterlimit="10"/><path d="M32.091 35.865c7.156 3.341 25.792 1.67 25.792 1.67h65.448c-.596 1.216-4.473 2.886-7.156 3.646-2.833.759-6.709 1.214-14.759 1.366h-55.61s-12.97-.607-24.896-4.404C8.834 34.347 5.107 31.765 4.809 30.247c-.299-1.519 5.367-2.126 5.367-2.126L3.169 1.393h6.41l17.89 21.564 13.567 4.708h-19.53s3.28 4.86 10.436 8.2h.15ZM112.895 31.765l.895 1.822-1.938-.455v-1.367h1.043ZM114.684 31.765l1.193 1.519c-.894.152-1.342.455-1.342.455h-.149l-.894-2.126h1.192v.152ZM115.132 31.765h.894c1.044.76 1.64 1.215 2.087 1.367h-1.938l-1.043-1.519v.152Z" fill="#07132B"/><path d="m66.68 43.307 3.875.607c1.491.152 2.982.304 4.473.304h4.025c.746 0 1.342-.76 1.342-1.519v-4.86c0-.759-.596-1.366-1.342-1.366h-7.006l-5.517.607c-.596 0-.895.456-.895 1.063v4.1c0 .608.448 1.064.895 1.064h.15Z" fill="#fff" stroke="#07132B" stroke-miterlimit="10"/><path d="M98.285 34.499c.298 0 .447-.152.447-.456v-.456c0-.303-.149-.455-.447-.455-.298 0-.447.152-.447.456v.455c0 .304.149.456.447.456ZM96.645 34.499c.298 0 .447-.152.447-.456v-.456c0-.303-.149-.455-.447-.455-.298 0-.447.152-.447.456v.455c0 .304.149.456.447.456ZM95.005 34.499c.298 0 .447-.152.447-.456v-.456c0-.303-.149-.455-.447-.455-.298 0-.447.152-.447.456v.455c0 .304.149.456.447.456ZM93.365 34.499c.298 0 .447-.152.447-.456v-.456c0-.303-.149-.455-.447-.455-.298 0-.447.152-.447.456v.455c0 .304.149.456.447.456ZM91.725 34.499c.298 0 .447-.152.447-.456v-.456c0-.303-.149-.455-.447-.455-.298 0-.447.152-.447.456v.455c0 .304.149.456.447.456ZM90.085 34.499c.298 0 .448-.152.448-.456v-.456c0-.303-.15-.455-.448-.455-.298 0-.447.152-.447.456v.455c0 .304.149.456.447.456ZM88.296 34.499c.298 0 .447-.152.447-.456v-.456c0-.303-.149-.455-.447-.455-.298 0-.447.152-.447.456v.455c0 .304.149.456.447.456ZM86.656 34.499c.298 0 .447-.152.447-.456v-.456c0-.303-.149-.455-.447-.455-.298 0-.447.152-.447.456v.455c0 .304.149.456.447.456ZM85.016 34.499c.298 0 .448-.152.448-.456v-.456c0-.303-.15-.455-.448-.455-.298 0-.447.152-.447.456v.455c0 .304.15.456.447.456ZM81.737 34.499c.298 0 .447-.152.447-.456v-.456c0-.303-.15-.455-.447-.455-.299 0-.448.152-.448.456v.455c0 .304.15.456.448.456ZM80.096 34.499c.299 0 .448-.152.448-.456v-.456c0-.303-.15-.455-.448-.455-.298 0-.447.152-.447.456v.455c0 .304.15.456.447.456ZM78.457 34.499c.298 0 .447-.152.447-.456v-.456c0-.303-.15-.455-.447-.455-.299 0-.448.152-.448.456v.455c0 .304.15.456.448.456ZM76.668 34.499c.298 0 .447-.152.447-.456v-.456c0-.303-.15-.455-.447-.455-.299 0-.448.152-.448.456v.455c0 .304.15.456.448.456ZM73.388 34.499c.298 0 .447-.152.447-.456v-.456c0-.303-.15-.455-.447-.455-.299 0-.448.152-.448.456v.455c0 .304.15.456.448.456ZM70.108 34.499c.298 0 .447-.152.447-.456v-.456c0-.303-.149-.455-.447-.455-.298 0-.447.152-.447.456v.455c0 .304.149.456.447.456ZM68.468 34.499c.298 0 .447-.152.447-.456v-.456c0-.303-.15-.455-.447-.455-.298 0-.448.152-.448.456v.455c0 .304.15.456.448.456ZM66.828 34.499c.298 0 .447-.152.447-.456v-.456c0-.303-.149-.455-.447-.455-.298 0-.447.152-.447.456v.455c0 .304.149.456.447.456ZM65.188 34.499c.298 0 .447-.152.447-.456v-.456c0-.303-.149-.455-.447-.455-.298 0-.447.152-.447.456v.455c0 .304.149.456.447.456ZM63.4 34.499c.297 0 .446-.152.446-.456v-.456c0-.303-.149-.455-.447-.455-.298 0-.447.152-.447.456v.455c0 .304.149.456.447.456ZM61.759 34.499c.298 0 .447-.152.447-.456v-.456c0-.303-.149-.455-.447-.455-.298 0-.447.152-.447.456v.455c0 .304.149.456.447.456ZM60.12 34.499c.297 0 .447-.152.447-.456v-.456c0-.303-.15-.455-.448-.455-.298 0-.447.152-.447.456v.455c0 .304.15.456.447.456ZM58.48 34.499c.297 0 .447-.152.447-.456v-.456c0-.303-.15-.455-.448-.455-.298 0-.447.152-.447.456v.455c0 .304.15.456.447.456ZM56.84 34.499c.297 0 .446-.152.446-.456v-.456c0-.303-.149-.455-.447-.455-.298 0-.447.152-.447.456v.455c0 .304.149.456.447.456ZM55.2 34.499c.298 0 .447-.152.447-.456v-.456c0-.303-.15-.455-.447-.455-.299 0-.448.152-.448.456v.455c0 .304.15.456.447.456ZM53.56 34.499c.297 0 .447-.152.447-.456v-.456c0-.303-.15-.455-.448-.455-.298 0-.447.152-.447.456v.455c0 .304.15.456.447.456ZM51.77 34.499c.299 0 .448-.152.448-.456v-.456c0-.303-.15-.455-.448-.455-.298 0-.447.152-.447.456v.455c0 .304.15.456.447.456Z" fill="#07132B"/><path d="M42.676 36.321c-.447-.152 3.28-1.063 3.28-1.063l-7.454-3.34-2.237-4.405h.597l4.323 4.404 26.984 4.86c0 .303-1.49 3.948-2.236 5.922H49.385l2.683-4.404h-2.385s-2.534-.303-3.13-.607c-.597-.304 2.98-.911 2.98-.911-3.875.303-6.26 0-6.708-.152l-.149-.304ZM.634 27.817s2.087-.608 4.324 0c2.236.607 14.61 4.252 14.61 4.252s.298.456-1.193 1.367c-1.49.91-3.13 1.215-3.578 2.581-4.92-1.822-7.752-3.34-8.945-4.404.298-.303.746-.607 1.193-.91a236.48 236.48 0 0 1-6.262-2.886H.634Z" fill="#07132B"/></svg>