<svg width="494" height="503" fill="none" xmlns="http://www.w3.org/2000/svg"><path d="M370.052 376.917c67.944-69.209 67.944-181.419 0-250.628-67.944-69.21-178.104-69.21-246.048 0-67.944 69.209-67.944 181.419 0 250.628 67.944 69.209 178.104 69.209 246.048 0Z" fill="#3AF2AE"/><path d="M271.955 92.465s1.192-3.644-1.789-7.593c-2.982-3.948-5.069-3.948-8.647-4.555-3.578-.608-5.964-1.215-10.884-1.52-4.77-.303-9.094-.303-12.97-.303-3.876 0-5.963.304-8.051-.303-2.087-.608-1.789-1.823-5.068-1.823h-1.64c-8.2 1.215-16.4 3.037-24.599 5.467-64.703 19.286-110.174 73.5-122.1 136.674.894 6.682 4.174 20.198 6.857 29.613 1.491 5.467 2.833 9.567 3.43 9.871 1.64 1.063-1.79-13.06-2.684-17.768-.895-4.556-2.088-8.808-.895-7.289 1.193 1.519 7.156 15.338 7.454 21.109.299 5.77-2.385 7.593 1.193 11.997 3.578 4.252 12.672 13.819 14.163 12.604 1.491-1.215.895-5.467 2.982-3.037 2.087 2.429 2.087 6.682 5.963 7.593 3.876.911 5.367.911 6.858 2.733 1.491 1.822 4.473 7.593 7.454 9.264 2.982 1.67 5.069 2.126 7.753 1.822 2.683-.304 3.876-2.126 5.367-.607 1.491 1.518.298 4.555 1.491 6.985 1.192 2.43 4.174 3.645 4.174 5.771s-8.051 11.693-3.28 22.019c4.771 10.479 18.338 20.502 18.338 20.502l14.163 6.378 6.261 11.693 2.087 10.175s7.455 20.501 13.865 26.271c6.262 5.771 14.76 13.212 19.53 15.035 4.771 1.822 9.393 2.126 5.666-.608-3.579-2.733-5.069-4.556-6.56-5.771-1.491-1.214-.895-3.34-2.684-4.555-1.789-1.215-3.578-.304-2.683-2.734.894-2.43 1.491-2.126 2.981-3.645 1.491-1.518 2.386-3.948 2.386-3.948s-1.491-3.948-1.193-5.467c.298-1.518 1.789 1.215 3.876-1.822 2.088-3.037 4.175-7.593 4.175-7.593l1.491-3.341 1.49-5.163 6.262-1.519 6.262-2.733 4.174-5.467 1.491-5.771v-10.782l1.192-2.126s9.095-4.252 9.989-10.175c.895-5.77-.596-8.504-.596-8.504l-6.262-1.822-10.287-2.734-7.156-1.518-5.367-1.823-5.665-2.126-2.684-2.429v-4.556l-3.876-4.86-2.981-1.518-4.771-1.823-4.473-.607-3.876-1.823-4.771-4.859-5.665-3.645-7.156-2.429-2.683.303-5.069.304-5.964-2.126s-1.789-1.822-2.981-2.126c-1.193-.304-2.684-.304-2.684-.304l-3.28 4.556s.298-4.86-2.385-4.252c-2.684.607-8.051 4.252-8.051 4.252l-.596 4.556s-4.174-3.949-5.367-3.949c-1.193 0-2.684 3.645-6.262 1.823-3.578-1.823-4.77-4.86-5.069-6.378-.298-1.519.597-6.378 0-8.505-.596-2.126-3.876-2.126-3.876-2.126s-1.789 0-2.981-.303c-1.193-.304-3.28-.911-3.28-.911s2.087-10.479.298-12.909c-1.789-2.429-3.876-2.126-4.473-.303-.596 1.822-1.789 3.948-3.578 5.163-1.789 1.215-3.28 2.733-5.069 1.822-1.789-.911-7.156-6.074-7.156-13.819 0-7.745 4.771-16.553 4.771-16.553s5.367-4.556 9.392-4.252c4.026.304 4.175 1.215 5.666-.304 1.49-1.518 4.77-1.214 5.963-.607 1.193.607 4.473 2.43 4.771 4.556.298 2.126.596 7.289 2.683 9.567 2.087 2.126 3.28-3.037 3.28-3.037s-2.982-5.771-2.982-8.504c0-2.734-.298-3.949.299-4.86.596-.911 14.759-8.2 15.952-12.301 1.192-3.948 1.192-5.77 1.192-8.504 0-2.733 8.349-6.682 10.585-7.593 2.088-.911.299-5.467 4.771-8.504 4.473-3.037 18.934-7.897 15.356-6.378-3.578 1.519-4.175 4.252 2.385 1.519 6.56-2.734 15.654-3.038 9.094-5.771-6.559-2.734-13.865-2.126-13.566-4.252.298-2.126 4.174-6.378 9.988-6.986 5.367-.607 8.349-3.037 8.2-1.063v.456c-.596 2.733-4.174 6.378-2.087 7.289 2.087.911 13.566 2.734 14.163 0 .596-2.733-7.156-3.037-5.665-7.593 1.49-4.556 4.174-6.682 2.683-8.808-1.491-2.126-6.261-3.644-6.261-3.644s-6.858-6.379-7.157-7.593c-.298-1.215-1.789-6.682-2.683-7.897-.895-1.215-1.789 1.822-5.665 1.215-3.876-.608-2.684-3.949-3.876-5.771-1.193-1.822-5.964-4.86-10.287-3.341-4.175 1.519-4.473 2.43-6.262 6.074-1.789 3.645.895 5.164-.596 7.593-1.491 2.43-5.367 4.253-6.262 6.682-.894 2.43.298 4.86-1.491 7.29-1.789 2.429-6.857 3.341-6.857-.912 0-4.252.894-6.074-1.193-6.985-2.087-.911-4.771-.608-7.454-3.645-2.684-3.037-2.386-9.263-2.386-9.263s9.393-7.897 12.076-9.264c2.684-1.215 6.56.911 8.647.608 2.087-.304 5.069-1.215 4.771-3.949-.298-2.733-2.087-4.252 1.789-6.985 3.876-2.734 6.261-7.897 6.858-9.567.596-1.519 5.069-5.467 9.094-.912 3.876 4.556 2.683 8.808 2.683 8.808s-9.69.608-8.647 3.341c.895 2.734 6.56 2.43 7.156 4.86.597 2.43-1.192 4.859 4.771 4.556 5.964-.304 8.647-1.215 7.156-4.252-1.491-3.038-2.981-7.593-1.192-6.682 1.789.911 3.279 3.948 7.156 1.518 3.876-2.429 1.789-7.896-.895-10.174-2.683-2.126-5.069-4.556-6.261-8.201-1.193-3.644-2.982-4.556-6.262-4.859-3.28-.304-7.752-.911-10.883.607-2.982 1.519-4.175 1.822-4.771 3.037-.596 1.215-1.789 2.734-2.683 3.038-.895.303-4.175 1.518-4.175 1.518l-4.174-2.43s-1.193 1.519-3.578 1.823c-2.386.303-2.684-3.949-2.684-3.949l15.356-7.896s5.665-.304 7.752.607c2.088.911 8.051 1.519 10.884.304 2.683-1.215 2.385-.304 4.472-2.126 2.087-1.823 6.262-4.252 6.262-4.252s2.683-2.126 5.665-4.253c2.982-2.126 5.963-3.037 9.989-3.644 3.876-.608 5.665 0 2.683.911s-6.261 2.43-7.752 4.252c-1.491 1.823-4.473 3.037-1.193 3.645 3.28.607 6.858 0 10.585 3.037 3.578 3.037 4.771 3.037 2.684 7.289-2.088 4.252-4.771 10.175-2.684 12.301 2.087 2.126 1.193-.607.895 6.074-.299 6.682.298 9.568 2.683 14.123 2.385 4.556 6.56 3.645 8.051 5.164 1.491 1.518 3.578 2.126 5.665 1.214 2.087-.911 4.771-8.504 4.771-8.504l7.752-9.871 11.778-4.859s6.858-2.43 11.479-4.556c4.473-2.126 7.156-3.645 4.771-8.504-2.385-4.86-4.771-11.997-4.771-11.997l-1.192-1.519ZM414.033 201.957c-9.989-34.625-29.37-63.782-54.566-85.498-2.087-.455-4.77-1.366-7.901-2.581-7.454-3.038-15.654-5.164-14.461 1.518 1.192 6.682 3.28 10.479.894 12.908-2.385 2.43-3.578 8.808 1.193 13.212s8.647 7.593 9.69 4.86c.895-2.734 4.473-.911 5.964 2.126 1.491 3.037-.298 6.985 2.683 6.074 2.982-.911 7.455-3.948 2.982-9.263-4.472-5.164-7.454-8.808-7.156-12.908.298-3.949 2.982-10.175 3.578-4.253.596 5.923 2.684 8.505 5.963 12.909 3.28 4.252 6.858 6.985 5.666 11.389-1.193 4.252-5.069 6.378-7.156 6.378-2.088 0-5.069-.911-7.753-1.518-2.683-.608-3.876 0-4.771 1.215-.894 1.214-2.683 4.859-3.279 7.593-.597 2.733-1.789 6.681-5.666 7.593-3.876.911-9.988 1.822-6.559 4.555 3.28 2.734 7.752-.607 8.348 6.682.597 7.289-2.385 8.504-8.348 7.897-5.964-.608-8.051 1.519-6.858 7.289 1.192 5.771 2.683 9.871 4.77 11.086 2.088 1.215 8.349 1.215 5.368 5.771-2.982 4.555-8.647 6.378-10.287 10.782-1.491 4.252-3.877 9.263-5.666 10.782-1.789 1.518-11.181 15.338-11.479 24.449-.298 9.264 2.683 25.057 11.479 33.713 8.647 8.504 14.164 15.946 21.021 12.301 6.858-3.645 12.971-6.074 15.356-2.43 2.385 3.645 2.982 3.645 4.473 4.556 1.491.911 1.789 5.163.596 10.175-1.193 4.859 1.491 11.693 2.087 16.249.597 4.555-11.778 11.693-14.461 19.59-2.684 7.896-3.578 15.034-5.963 19.59-2.386 4.555-8.647 9.263-5.666 11.693 2.982 2.43 12.673-1.215 18.04-5.467 5.367-4.252 15.952-17.464 18.337-19.894 2.385-2.43 9.989-8.504 15.356-16.553 5.367-7.896 9.988-18.678 9.988-18.678s7.902-10.631 12.971-21.868c10.287-32.65 11.479-68.641 1.342-104.176l-.149.152Z" fill="#fff"/><path d="M327.563 168.699c1.193 1.822 5.367 3.037 8.647 1.822 3.28-1.214 6.56-3.037 5.665-5.467-.894-2.429-5.069-3.34-5.069-3.34s-6.261-2.43-7.752-7.29c-1.491-4.859-4.771-11.693-8.051-7.896-3.28 3.644 2.087 6.985 2.087 8.2 0 1.215-4.77-.607-5.963 3.037-1.193 3.645-.298 7.289 2.087 7.593 2.386.304 5.069.608 5.964-1.822.894-2.43-.299-5.467 1.49-4.252 1.789 1.215 3.877.911 2.982 3.341-.894 2.429-3.28 4.252-2.087 6.074Z" fill="#fff"/><path d="M370.052 376.917c67.944-69.209 67.944-181.419 0-250.628-67.944-69.21-178.104-69.21-246.048 0-67.944 69.209-67.944 181.419 0 250.628 67.944 69.209 178.104 69.209 246.048 0Z" stroke="#07132B" stroke-linecap="round" stroke-linejoin="round"/></svg>